{
.appVersion = "1192";
copyright = "Copyright (c) 2011 by Marcelo Magalhães (marcelomagalhaes.net), with Reserved Font Name \"Londrina Book\"";
customParameters = (
{
name = trademark;
value = "Londrina Book is a trademark of Marcelo Magalh„es.";
},
{
name = vendorID;
value = PYRS;
},
{
name = panose;
value = (
2,
0,
5,
6,
0,
0,
0,
2,
0,
4
);
},
{
name = unicodeRanges;
value = (
0,
1,
2,
3,
5,
31,
33,
35,
36,
45,
62
);
},
{
name = codePageRanges;
value = (
1252
);
},
{
name = blueScale;
value = 0.037;
},
{
name = glyphOrder;
value = (
.notdef,
.null,
CR,
space,
h,
i,
j,
k,
l,
m,
n,
o,
p,
q,
r,
s,
t,
u,
v,
w,
x,
y,
z,
A,
B,
C,
D,
E,
F,
G,
H,
I,
J,
K,
L,
M,
N,
O,
P,
Q,
R,
S,
T,
U,
V,
W,
X,
Y,
Z,
bracketleft,
bracketright,
exclam,
dollar,
parenleft,
parenright,
plus,
hyphen,
slash,
question,
zero,
one,
two,
three,
four,
five,
six,
seven,
eight,
nine,
braceleft,
braceright,
Euro,
plusminus,
Agrave,
Aacute,
Acircumflex,
Atilde,
Egrave,
Eacute,
Ecircumflex,
Ugrave,
Uacute,
Ucircumflex,
ugrave,
uacute,
ucircumflex,
egrave,
eacute,
ecircumflex,
igrave,
iacute,
icircumflex,
Ograve,
Oacute,
Ocircumflex,
Otilde,
agrave,
aacute,
acircumflex,
ograve,
oacute,
ocircumflex,
otilde,
Edieresis,
exclamdown,
Odieresis,
Udieresis,
atilde,
adieresis,
edieresis,
idieresis,
odieresis,
udieresis,
yacute,
ydieresis,
Igrave,
Iacute,
Icircumflex,
d,
period,
ellipsis,
equal,
grave,
Adieresis,
Idieresis,
colon,
divide,
semicolon,
comma,
quotesinglbase,
quotedblleft,
quotedblright,
quoteleft,
quoteright,
quotedblbase,
questiondown,
bar,
backslash,
percent,
less,
greater,
endash,
at,
quotesingle,
quotedbl,
emdash,
underscore,
a,
Ccedilla,
ccedilla,
AE,
ae,
Oslash,
oslash,
numbersign,
ampersand,
asterisk,
bullet,
Ntilde,
aring,
Yacute,
cent,
sterling,
yen,
Ydieresis,
oe,
tilde,
dagger,
daggerdbl,
OE,
florin,
asciitilde,
copyright,
ordfeminine,
dieresis,
circumflex,
registered,
degree,
perthousand,
Aring,
ordmasculine,
ntilde,
onequarter,
onehalf,
threequarters,
acute,
guillemotleft,

glyphs = (
{
glyphname = h;
layers = (
{
hints = (
{
place = "{36, 90}";
type = Stem;
},
{
place = "{326, 88}";
type = Stem;
}
);
layerId = "95F3C079-8CB7-481A-B676-05495FEB06E6";
paths = (
{
closed = 1;
nodes = (
"126 536 LINE",
"126 598 LINE SMOOTH",
"126 656 OFFCURVE",
"126 711 OFFCURVE",
"124 720 CURVE",
"124 725 OFFCURVE",
"96 721 OFFCURVE",
"86 721 CURVE",
"66 720 OFFCURVE",
"57 721 OFFCURVE",
"36 723 CURVE",
"32 547 OFFCURVE",
"36 161 OFFCURVE",
"36 -3 CURVE",
"86 1 OFFCURVE",
"80 -9 OFFCURVE",
"121 2 CURVE",
"121 6 LINE",
"126 96 OFFCURVE",
"121 171 OFFCURVE",
"120 232 CURVE",
"120 265 OFFCURVE",
"122 296 OFFCURVE",
"127 323 CURVE SMOOTH",
"141 396 OFFCURVE",
"209 413 OFFCURVE",
"272 397 CURVE SMOOTH",
"281 395 OFFCURVE",
"290 393 OFFCURVE",
"296 389 CURVE SMOOTH",
"318 374 OFFCURVE",
"325 338 OFFCURVE",
"326 306 CURVE SMOOTH",
"326 110 LINE",
"326 50 LINE SMOOTH",
"326 31 OFFCURVE",
"327 13 OFFCURVE",
"328 -2 CURVE",
"355 -3 OFFCURVE",
"379 -3 OFFCURVE",
"414 2 CURVE",
"405 139 OFFCURVE",
"435 426 OFFCURVE",
"393 464 CURVE SMOOTH",
"359 493 OFFCURVE",
"306 505 OFFCURVE",
"234 496 CURVE",
"173 492 OFFCURVE",
"149 467 OFFCURVE",
"126 447 CURVE"
);
}
);
width = 448;
}
);
note = h;
rightKerningGroup = h;
unicode = 0068;
},
{
glyphname = i;
layers = (
{
hints = (
{
horizontal = 1;
place = "{503, -20}";
target = down;
type = TopGhost;
},
{
horizontal = 1;
place = "{720, -20}";
target = down;
type = TopGhost;
},
{
place = "{59, 97}";
type = Stem;
}
);
layerId = "95F3C079-8CB7-481A-B676-05495FEB06E6";
paths = (
{
closed = 1;
nodes = (
"122 718 OFFCURVE",
"90 719 OFFCURVE",
"59 720 CURVE",
"58 659 OFFCURVE",
"63 621 OFFCURVE",
"63 582 CURVE",
"94 583 OFFCURVE",
"138 577 OFFCURVE",
"156 586 CURVE",
"155 634 OFFCURVE",
"153 699 OFFCURVE",
"153 718 CURVE"
);
},
{
closed = 1;
nodes = (
"157 503 LINE",
"99 503 OFFCURVE",
"74 507 OFFCURVE",
"63 505 CURVE",
"63 504 LINE",
"55 425 OFFCURVE",
"57 339 OFFCURVE",
"59 261 CURVE SMOOTH",
"59 177 LINE SMOOTH",
"59 117 OFFCURVE",
"60 57 OFFCURVE",
"58 -1 CURVE",
"71 3 OFFCURVE",
"132 -3 OFFCURVE",
"156 3 CURVE",
"146 168 OFFCURVE",
"156 339 OFFCURVE",
"157 500 CURVE SMOOTH"
);
}
);
width = 207;
}
);
note = i;
unicode = 0069;
},
{
glyphname = j;
layers = (
{
hints = (
{
horizontal = 1;
place = "{720, -20}";
target = down;
type = TopGhost;
},
{
place = "{82, 87}";
type = Stem;
}
);
layerId = "95F3C079-8CB7-481A-B676-05495FEB06E6";
paths = (
{
closed = 1;
nodes = (
"134 718 OFFCURVE",
"104 719 OFFCURVE",
"73 720 CURVE",
"72 659 OFFCURVE",
"77 620 OFFCURVE",
"77 584 CURVE",
"116 583 OFFCURVE",
"159 577 OFFCURVE",
"168 590 CURVE",
"168 630 OFFCURVE",
"165 701 OFFCURVE",
"165 718 CURVE"
);
},
{
closed = 1;
nodes = (
"82 453 OFFCURVE",
"82 407 OFFCURVE",
"82 362 CURVE",
"74 211 OFFCURVE",
"94 7 OFFCURVE",
"58 -63 CURVE",
"11 -98 OFFCURVE",
"-94 -98 OFFCURVE",
"-120 -96 CURVE",
"-123 -119 OFFCURVE",
"-128 -155 OFFCURVE",
"-120 -187 CURVE",
"-14 -192 OFFCURVE",
"120 -180 OFFCURVE",
"154 -99 CURVE",
"181 34 OFFCURVE",
"169 135 OFFCURVE",
"169 263 CURVE",
"164 312 OFFCURVE",
"175 435 OFFCURVE",
"167 500 CURVE",
"145 503 OFFCURVE",
"112 496 OFFCURVE",
"81 498 CURVE"
);
}
);
width = 204;
}
);
note = j;
unicode = 006A;
},
{
glyphname = k;
layers = (
{
hints = (
{
horizontal = 1;
place = "{0, 21}";
target = up;
type = BottomGhost;
},
{
place = "{38, 88}";
type = Stem;
}
);
layerId = "95F3C079-8CB7-481A-B676-05495FEB06E6";
paths = (
{
closed = 1;
nodes = (
"126 491 OFFCURVE",
"126 521 OFFCURVE",
"126 544 CURVE SMOOTH",
"126 727 LINE",
"101 729 OFFCURVE",
"63 726 OFFCURVE",
"38 726 CURVE",
"39 483 OFFCURVE",
"29 248 OFFCURVE",
"38 0 CURVE",
"65 -3 OFFCURVE",
"104 2 OFFCURVE",
"127 1 CURVE",
"127 33 OFFCURVE",
"128 55 OFFCURVE",
"128 84 CURVE SMOOTH",
"129 120 OFFCURVE",
"126 198 OFFCURVE",
"126 226 CURVE",
"259 106 OFFCURVE",
"276 65 OFFCURVE",
"334 -2 CURVE",
"370 -7 OFFCURVE",
"414 0 OFFCURVE",
"443 0 CURVE",
"356 106 OFFCURVE",
"326 150 OFFCURVE",
"191 289 CURVE",
"316 394 OFFCURVE",
"311 408 OFFCURVE",
"434 514 CURVE",
"410 516 OFFCURVE",
"358 510 OFFCURVE",
"325 517 CURVE",
"276 474 OFFCURVE",
"237 425 OFFCURVE",
"126 343 CURVE",
"123 366 OFFCURVE",
"125 410 OFFCURVE",
"125 455 CURVE SMOOTH"
);
}
);
width = 435;
}
);
note = k;
rightKerningGroup = k;
unicode = 006B;
},
{
glyphname = l;
layers = (
{
hints = (
{
horizontal = 1;
place = "{727, -20}";
target = down;
type = TopGhost;
},
{
place = "{55, 97}";
type = Stem;
}
);
layerId = "95F3C079-8CB7-481A-B676-05495FEB06E6";
paths = (
{
closed = 1;
nodes = (
"61 727 LINE",
"37 485 OFFCURVE",
"74 241 OFFCURVE",
"55 0 CURVE",
"69 4 OFFCURVE",
"139 -8 OFFCURVE",
"151 6 CURVE",
"143 167 OFFCURVE",
"152 560 OFFCURVE",
"152 724 CURVE"
);
}
);
width = 206;
}
);
note = l;
unicode = 006C;
},
{
glyphname = m;
layers = (
{
hints = (
{
horizontal = 1;
place = "{-2, 21}";
target = up;
type = BottomGhost;
},
{
place = "{36, 86}";
type = Stem;
},
{
place = "{303, 95}";
type = Stem;
},
{
place = "{565, 85}";
type = Stem;
}
);
layerId = "95F3C079-8CB7-481A-B676-05495FEB06E6";
paths = (
{
closed = 1;
nodes = (
"128 462 OFFCURVE",
"130 473 OFFCURVE",
"127 496 CURVE",
"127 502 OFFCURVE",
"99 497 OFFCURVE",
"89 497 CURVE",
"68 496 OFFCURVE",
"58 496 OFFCURVE",
"36 498 CURVE",
"31 322 OFFCURVE",
"37 161 OFFCURVE",
"37 -3 CURVE",
"77 0 OFFCURVE",
"92 -6 OFFCURVE",
"122 0 CURVE",
"122 4 LINE",
"125 49 OFFCURVE",
"125 93 OFFCURVE",
"124 138 CURVE SMOOTH",
"123 180 OFFCURVE",
"120 225 OFFCURVE",
"123 272 CURVE SMOOTH",
"127 329 OFFCURVE",
"150 392 OFFCURVE",
"239 391 CURVE SMOOTH",
"288 389 OFFCURVE",
"303 373 OFFCURVE",
"303 318 CURVE",
"308 250 OFFCURVE",
"307 174 OFFCURVE",
"306 122 CURVE SMOOTH",
"306 77 OFFCURVE",
"305 32 OFFCURVE",
"308 -2 CURVE",
"341 -2 OFFCURVE",
"365 -3 OFFCURVE",
"396 1 CURVE",
"391 77 OFFCURVE",
"401 206 OFFCURVE",
"398 295 CURVE SMOOTH",
"397 318 OFFCURVE",
"397 339 OFFCURVE",
"399 358 CURVE",
"414 392 OFFCURVE",
"460 403 OFFCURVE",
"508 395 CURVE",
"529 393 OFFCURVE",
"543 385 OFFCURVE",
"547 372 CURVE",
"563 347 OFFCURVE",
"563 282 OFFCURVE",
"565 259 CURVE",
"566 178 OFFCURVE",
"564 145 OFFCURVE",
"563 97 CURVE SMOOTH",
"563 61 OFFCURVE",
"563 25 OFFCURVE",
"565 -2 CURVE",
"595 -3 OFFCURVE",
"618 -3 OFFCURVE",
"650 2 CURVE",
"641 139 OFFCURVE",
"671 426 OFFCURVE",
"629 464 CURVE SMOOTH",
"597 491 OFFCURVE",
"564 497 OFFCURVE",
"499 495 CURVE SMOOTH",
"418 493 OFFCURVE",
"397 462 OFFCURVE",
"376 450 CURVE",
"370 465 OFFCURVE",
"358 473 OFFCURVE",
"347 478 CURVE",
"313 498 OFFCURVE",
"265 498 OFFCURVE",
"217 488 CURVE",
"178 482 OFFCURVE",
"150 464 OFFCURVE",
"129 443 CURVE"
);
}
);
width = 684;
}
);
leftKerningGroup = m;
note = m;
rightKerningGroup = h;
unicode = 006D;
},
{
glyphname = n;
layers = (
{
hints = (
{
horizontal = 1;
place = "{-1, 21}";
target = up;
type = BottomGhost;
},
{
horizontal = 1;
place = "{390, 105}";
type = Stem;
},
{
place = "{37, 90}";
type = Stem;
},
{
place = "{328, 88}";
type = Stem;
}
);
layerId = "95F3C079-8CB7-481A-B676-05495FEB06E6";
paths = (
{
closed = 1;
nodes = (
"132 463 OFFCURVE",
"134 474 OFFCURVE",
"131 497 CURVE",
"131 503 OFFCURVE",
"102 498 OFFCURVE",
"91 498 CURVE",
"70 496 OFFCURVE",
"60 496 OFFCURVE",
"37 498 CURVE",
"32 322 OFFCURVE",
"38 161 OFFCURVE",
"38 -3 CURVE",
"78 0 OFFCURVE",
"94 -6 OFFCURVE",
"127 1 CURVE",
"127 5 LINE",
"130 49 OFFCURVE",
"131 92 OFFCURVE",
"128 137 CURVE SMOOTH",
"127 163 OFFCURVE",
"126 195 OFFCURVE",
"126 232 CURVE",
"125 262 OFFCURVE",
"126 287 OFFCURVE",
"127 306 CURVE SMOOTH",
"132 371 OFFCURVE",
"177 389 OFFCURVE",
"265 390 CURVE",
"294 392 OFFCURVE",
"312 382 OFFCURVE",
"314 358 CURVE",
"325 327 OFFCURVE",
"326 285 OFFCURVE",
"328 255 CURVE",
"329 208 OFFCURVE",
"326 143 OFFCURVE",
"326 98 CURVE SMOOTH",
"326 62 OFFCURVE",
"325 26 OFFCURVE",
"328 -1 CURVE",
"364 -1 OFFCURVE",
"388 -2 OFFCURVE",
"416 2 CURVE",
"408 140 OFFCURVE",
"437 426 OFFCURVE",
"395 464 CURVE",
"370 485 OFFCURVE",
"338 494 OFFCURVE",
"305 495 CURVE SMOOTH",
"237 495 OFFCURVE",
"169 465 OFFCURVE",
"133 444 CURVE"
);
}
);
width = 450;
}
);
leftKerningGroup = m;
note = n;
rightKerningGroup = h;
unicode = 006E;
},
{
glyphname = o;
layers = (
{
hints = (
{
horizontal = 1;
place = "{-7, 21}";
target = up;
type = BottomGhost;
},
{
horizontal = 1;
place = "{514, -20}";
target = down;
type = TopGhost;
},
{
place = "{115, 222}";
type = Stem;
},
{
place = "{337, 88}";
type = Stem;
}
);
layerId = "95F3C079-8CB7-481A-B676-05495FEB06E6";
paths = (
{
closed = 1;
nodes = (
"25 397 OFFCURVE",
"24 367 OFFCURVE",
"24 325 CURVE",
"35 209 OFFCURVE",
"-12 23 OFFCURVE",
"161 -7 CURVE",
"238 -7 OFFCURVE",
"347 -28 OFFCURVE",
"393 37 CURVE",
"419 63 OFFCURVE",
"422 194 OFFCURVE",
"425 272 CURVE",
"422 360 OFFCURVE",
"422 445 OFFCURVE",
"384 470 CURVE",
"356 497 OFFCURVE",
"316 509 OFFCURVE",
"273 513 CURVE SMOOTH",
"245 515 OFFCURVE",
"222 511 OFFCURVE",
"195 514 CURVE",
"132 514 OFFCURVE",
"64 497 OFFCURVE",
"45 456 CURVE"
);
},
{
closed = 1;
nodes = (
"143 401 OFFCURVE",
"166 413 OFFCURVE",
"199 418 CURVE SMOOTH",
"371 440 OFFCURVE",
"342 274 OFFCURVE",
"337 179 CURVE",
"337 164 OFFCURVE",
"335 151 OFFCURVE",
"333 138 CURVE",
"317 76 OFFCURVE",
"240 73 OFFCURVE",
"187 81 CURVE",
"156 87 OFFCURVE",
"119 101 OFFCURVE",
"115 160 CURVE SMOOTH",
"113 210 OFFCURVE",
"110 250 OFFCURVE",
"111 281 CURVE",
"110 325 OFFCURVE",
"111 362 OFFCURVE",
"130 385 CURVE SMOOTH"
);
}
);
width = 448;
}
);
leftKerningGroup = o;
note = o;
rightKerningGroup = o;
unicode = 006F;
},
{
glyphname = p;
layers = (
{
hints = (
{
horizontal = 1;
place = "{417, 80}";
type = Stem;
},
{
place = "{41, 88}";
type = Stem;
},
{
place = "{367, 76}";
type = Stem;
}
);
layerId = "95F3C079-8CB7-481A-B676-05495FEB06E6";
paths = (
{
closed = 1;
nodes = (
"126 -191 LINE",
"130 -112 OFFCURVE",
"133 -162 OFFCURVE",
"129 26 CURVE",
"132 7 OFFCURVE",
"232 -7 OFFCURVE",
"302 -1 CURVE SMOOTH",
"323 1 OFFCURVE",
"344 5 OFFCURVE",
"362 12 CURVE SMOOTH",
"421 33 OFFCURVE",
"443 122 OFFCURVE",
"443 215 CURVE",
"440 359 OFFCURVE",
"422 486 OFFCURVE",
"275 497 CURVE",
"239 501 OFFCURVE",
"172 496 OFFCURVE",
"141 455 CURVE",
"136 445 OFFCURVE",
"132 446 OFFCURVE",
"131 452 CURVE",
"132 462 OFFCURVE",
"131 467 OFFCURVE",
"131 475 CURVE",
"130 491 OFFCURVE",
"131 497 OFFCURVE",
"129 499 CURVE",
"102 501 OFFCURVE",
"66 499 OFFCURVE",
"35 499 CURVE",
"30 307 OFFCURVE",
"41 84 OFFCURVE",
"41 -138 CURVE SMOOTH",
"41 -204 LINE",
"73 -210 OFFCURVE",
"126 -207 OFFCURVE",
"126 -202 CURVE SMOOTH"
);
},
{
closed = 1;
nodes = (
"336 78 OFFCURVE",
"297 75 OFFCURVE",
"217 75 CURVE SMOOTH",
"134 75 OFFCURVE",
"124 92 OFFCURVE",
"124 227 CURVE SMOOTH",
"124 340 OFFCURVE",
"129 408 OFFCURVE",
"229 417 CURVE SMOOTH",
"345 426 OFFCURVE",
"365 314 OFFCURVE",
"367 237 CURVE SMOOTH",
"368 216 OFFCURVE",
"366 188 OFFCURVE",
"359 154 CURVE"
);
}
);
width = 464;
}
);
leftKerningGroup = m;
note = p;
rightKerningGroup = p;
unicode = 0070;
},
{
glyphname = q;
layers = (
{
hints = (
{
horizontal = 1;
place = "{417, 80}";
type = Stem;
},
{
place = "{20, 76}";
type = Stem;
},
{
place = "{339, 83}";
type = Stem;
}
);
layerId = "95F3C079-8CB7-481A-B676-05495FEB06E6";
paths = (
{
closed = 1;
nodes = (
"337 -202 LINE SMOOTH",
"337 -207 OFFCURVE",
"390 -210 OFFCURVE",
"422 -204 CURVE",
"422 -138 LINE SMOOTH",
"422 84 OFFCURVE",
"433 307 OFFCURVE",
"428 499 CURVE",
"397 499 OFFCURVE",
"361 501 OFFCURVE",
"334 499 CURVE",
"332 497 OFFCURVE",
"333 491 OFFCURVE",
"332 475 CURVE",
"332 467 OFFCURVE",
"331 462 OFFCURVE",
"331 452 CURVE",
"328 459 OFFCURVE",
"306 474 OFFCURVE",
"287 483 CURVE SMOOTH",
"254 499 OFFCURVE",
"216 501 OFFCURVE",
"188 497 CURVE",
"44 487 OFFCURVE",
"20 360 OFFCURVE",
"20 215 CURVE SMOOTH",
"20 122 OFFCURVE",
"42 33 OFFCURVE",
"101 12 CURVE SMOOTH",
"119 5 OFFCURVE",
"140 1 OFFCURVE",
"161 -1 CURVE SMOOTH",
"233 -7 OFFCURVE",
"331 7 OFFCURVE",
"334 26 CURVE",
"330 -162 OFFCURVE",
"333 -112 OFFCURVE",
"337 -191 CURVE"
);
},
{
closed = 1;
nodes = (
"97 188 OFFCURVE",
"95 216 OFFCURVE",
"96 237 CURVE SMOOTH",
"99 318 OFFCURVE",
"119 426 OFFCURVE",
"234 417 CURVE SMOOTH",
"334 408 OFFCURVE",
"339 340 OFFCURVE",
"339 227 CURVE SMOOTH",
"339 92 OFFCURVE",
"328 75 OFFCURVE",
"246 75 CURVE SMOOTH",
"165 75 OFFCURVE",
"127 77 OFFCURVE",
"104 154 CURVE"
);
}
);
width = 463;
}
);
leftKerningGroup = q;
note = q;
rightKerningGroup = q;
unicode = 0071;
},
{
glyphname = r;
layers = (
{
hints = (
{
place = "{37, 90}";
type = Stem;
}
);
layerId = "95F3C079-8CB7-481A-B676-05495FEB06E6";
paths = (
{
closed = 1;
nodes = (
"128 481 OFFCURVE",
"127 475 OFFCURVE",
"127 497 CURVE SMOOTH",
"127 501 OFFCURVE",
"57 496 OFFCURVE",
"37 498 CURVE",
"32 322 OFFCURVE",
"38 161 OFFCURVE",
"38 -3 CURVE",
"79 -1 OFFCURVE",
"98 -7 OFFCURVE",
"127 1 CURVE",
"127 5 LINE SMOOTH",
"127 112 OFFCURVE",
"126 213 OFFCURVE",
"123 316 CURVE SMOOTH",
"122 370 OFFCURVE",
"135 381 OFFCURVE",
"170 390 CURVE SMOOTH",
"205 398 OFFCURVE",
"233 402 OFFCURVE",
"279 393 CURVE",
"291 390 OFFCURVE",
"301 387 OFFCURVE",
"313 382 CURVE",
"311 411 OFFCURVE",
"313 441 OFFCURVE",
"313 495 CURVE SMOOTH",
"313 499 OFFCURVE",
"226 499 OFFCURVE",
"175 482 CURVE SMOOTH",
"156 476 OFFCURVE",
"133 466 OFFCURVE",
"128 463 CURVE"
);
}
);
width = 339;
}
);
leftKerningGroup = m;
note = r;
rightKerningGroup = r;
unicode = 0072;
},
{
glyphname = s;
layers = (
{
hints = (
{
horizontal = 1;
place = "{-16, 84}";
type = Stem;
}
);
layerId = "95F3C079-8CB7-481A-B676-05495FEB06E6";
paths = (
{
closed = 1;
nodes = (
"343 368 OFFCURVE",
"434 361 OFFCURVE",
"434 370 CURVE SMOOTH",
"434 430 OFFCURVE",
"401 483 OFFCURVE",
"355 503 CURVE",
"330 511 OFFCURVE",
"303 516 OFFCURVE",
"275 518 CURVE SMOOTH",
"217 522 OFFCURVE",
"160 518 OFFCURVE",
"125 509 CURVE SMOOTH",
"55 491 OFFCURVE",
"19 428 OFFCURVE",
"22 366 CURVE SMOOTH",
"25 313 OFFCURVE",
"60 263 OFFCURVE",
"129 240 CURVE",
"198 210 OFFCURVE",
"342 241 OFFCURVE",
"338 147 CURVE",
"339 114 OFFCURVE",
"317 93 OFFCURVE",
"288 80 CURVE SMOOTH",
"259 66 OFFCURVE",
"251 64 OFFCURVE",
"196 68 CURVE SMOOTH",
"115 74 OFFCURVE",
"115 147 OFFCURVE",
"106 156 CURVE SMOOTH",
"102 160 OFFCURVE",
"29 159 OFFCURVE",
"11 157 CURVE",
"11 152 LINE SMOOTH",
"11 45 OFFCURVE",
"102 -21 OFFCURVE",
"236 -16 CURVE",
"313 -17 OFFCURVE",
"384 9 OFFCURVE",
"415 74 CURVE",
"440 147 OFFCURVE",
"433 192 OFFCURVE",
"395 239 CURVE",
"372 265 OFFCURVE",
"329 282 OFFCURVE",
"273 283 CURVE SMOOTH",
"234 284 OFFCURVE",
"169 302 OFFCURVE",
"157 311 CURVE",
"151 314 OFFCURVE",
"138 322 OFFCURVE",
"128 343 CURVE",
"119 357 OFFCURVE",
"125 407 OFFCURVE",
"151 428 CURVE",
"169 440 OFFCURVE",
"222 447 OFFCURVE",
"274 441 CURVE SMOOTH",
"339 433 OFFCURVE",
"331 370 OFFCURVE",
"332 366 CURVE"
);
}
);
width = 450;
}
);
leftKerningGroup = s;
note = s;
rightKerningGroup = s;
unicode = 0073;
},
{
glyphname = t;
layers = (
{
hints = (
{
horizontal = 1;
place = "{399, 84}";
type = Stem;
},
{
place = "{15, 195}";
type = Stem;
},
{
place = "{118, 92}";
type = Stem;
}
);
layerId = "95F3C079-8CB7-481A-B676-05495FEB06E6";
paths = (
{
closed = 1;
nodes = (
"207 685 LINE",
"178 682 OFFCURVE",
"150 689 OFFCURVE",
"121 686 CURVE",
"118 658 OFFCURVE",
"119 621 OFFCURVE",
"119 580 CURVE SMOOTH",
"119 545 OFFCURVE",
"120 501 OFFCURVE",
"120 475 CURVE",
"103 475 OFFCURVE",
"37 475 OFFCURVE",
"15 477 CURVE",
"12 395 LINE",
"36 395 OFFCURVE",
"100 393 OFFCURVE",
"118 395 CURVE",
"117 286 OFFCURVE",
"119 187 OFFCURVE",
"129 94 CURVE",
"144 21 OFFCURVE",
"201 3 OFFCURVE",
"277 -1 CURVE SMOOTH",
"312 -2 OFFCURVE",
"344 -1 OFFCURVE",
"373 0 CURVE",
"381 25 OFFCURVE",
"377 60 OFFCURVE",
"373 87 CURVE",
"351 86 OFFCURVE",
"245 83 OFFCURVE",
"220 115 CURVE",
"209 137 OFFCURVE",
"210 163 OFFCURVE",
"210 246 CURVE SMOOTH",
"210 399 LINE",
"264 398 OFFCURVE",
"318 398 OFFCURVE",
"373 398 CURVE",
"372 428 OFFCURVE",
"380 467 OFFCURVE",
"369 483 CURVE",
"298 479 OFFCURVE",
"249 477 OFFCURVE",
"208 476 CURVE",
"208 496 OFFCURVE",
"207 515 OFFCURVE",
"207 532 CURVE SMOOTH"
);
}
);
width = 387;
}
);
leftKerningGroup = t;
note = t;
rightKerningGroup = t;
unicode = 0074;
},
{
glyphname = u;
layers = (
{
hints = (
{
horizontal = 1;
place = "{-1, 21}";
target = up;
type = BottomGhost;
},
{
place = "{31, 92}";
type = Stem;
},
{
place = "{326, 87}";
type = Stem;
}
);
layerId = "95F3C079-8CB7-481A-B676-05495FEB06E6";
paths = (
{
closed = 1;
nodes = (
"325 39 OFFCURVE",
"324 25 OFFCURVE",
"326 0 CURVE",
"326 -6 OFFCURVE",
"355 -1 OFFCURVE",
"364 -1 CURVE",
"382 1 OFFCURVE",
"389 2 OFFCURVE",
"413 2 CURVE",
"418 178 OFFCURVE",
"412 339 OFFCURVE",
"412 503 CURVE",
"371 500 OFFCURVE",
"357 504 OFFCURVE",
"328 496 CURVE",
"328 492 LINE",
"327 467 OFFCURVE",
"326 441 OFFCURVE",
"326 415 CURVE SMOOTH",
"327 367 OFFCURVE",
"332 269 OFFCURVE",
"331 221 CURVE SMOOTH",
"330 140 OFFCURVE",
"275 88 OFFCURVE",
"171 105 CURVE",
"140 113 OFFCURVE",
"126 133 OFFCURVE",
"123 178 CURVE SMOOTH",
"120 225 OFFCURVE",
"120 265 OFFCURVE",
"119 290 CURVE SMOOTH",
"116 358 OFFCURVE",
"121 444 OFFCURVE",
"116 500 CURVE",
"86 500 OFFCURVE",
"64 501 OFFCURVE",
"34 498 CURVE",
"38 429 OFFCURVE",
"33 322 OFFCURVE",
"31 229 CURVE SMOOTH",
"32 133 OFFCURVE",
"29 59 OFFCURVE",
"57 34 CURVE",
"98 -6 OFFCURVE",
"181 -4 OFFCURVE",
"263 25 CURVE",
"301 34 OFFCURVE",
"317 49 OFFCURVE",
"324 53 CURVE"
);
}
);
width = 450;
}
);
leftKerningGroup = u;
note = u;
rightKerningGroup = q;
unicode = 0075;
},
{
glyphname = v;
layers = (
{
hints = (
{
horizontal = 1;
place = "{-1, 21}";
target = up;
type = BottomGhost;
}
);
layerId = "95F3C079-8CB7-481A-B676-05495FEB06E6";
paths = (
{
closed = 1;
nodes = (
"76 499 OFFCURVE",
"45 496 OFFCURVE",
"11 500 CURVE",
"59 319 OFFCURVE",
"57 292 OFFCURVE",
"150 -1 CURVE",
"192 -1 OFFCURVE",
"236 -5 OFFCURVE",
"273 1 CURVE",
"353 232 OFFCURVE",
"368 337 OFFCURVE",
"428 499 CURVE",
"393 501 OFFCURVE",
"369 497 OFFCURVE",
"339 496 CURVE",
"276 318 OFFCURVE",
"241 167 OFFCURVE",
"216 103 CURVE",
"181 188 OFFCURVE",
"166 278 OFFCURVE",
"102 498 CURVE"
);
}
);
width = 429;
}
);
leftKerningGroup = v;
note = v;
rightKerningGroup = v;
unicode = 0076;
},
{
glyphname = w;
layers = (
{
hints = (
{
horizontal = 1;
place = "{-4, 21}";
target = up;
type = BottomGhost;
},
{
horizontal = 1;
place = "{-3, 21}";
target = up;
type = BottomGhost;
}
);
layerId = "95F3C079-8CB7-481A-B676-05495FEB06E6";
paths = (
{
closed = 1;
nodes = (
"79 500 OFFCURVE",
"45 497 OFFCURVE",
"11 500 CURVE",
"52 327 OFFCURVE",
"87 154 OFFCURVE",
"115 -3 CURVE",
"151 -3 OFFCURVE",
"204 -6 OFFCURVE",
"240 -2 CURVE",
"277 106 OFFCURVE",
"308 226 OFFCURVE",
"346 345 CURVE",
"389 207 OFFCURVE",
"421 88 OFFCURVE",
"444 -3 CURVE",
"467 -3 OFFCURVE",
"493 -4 OFFCURVE",
"515 -4 CURVE",
"527 -5 OFFCURVE",
"542 -4 OFFCURVE",
"557 -1 CURVE",
"617 226 OFFCURVE",
"618 276 OFFCURVE",
"682 499 CURVE",
"642 502 OFFCURVE",
"615 499 OFFCURVE",
"588 498 CURVE",
"565 418 OFFCURVE",
"537 243 OFFCURVE",
"501 106 CURVE",
"433 319 OFFCURVE",
"418 419 OFFCURVE",
"402 499 CURVE",
"387 502 OFFCURVE",
"370 502 OFFCURVE",
"349 501 CURVE SMOOTH",
"328 500 OFFCURVE",
"314 499 OFFCURVE",
"302 500 CURVE",
"280 394 OFFCURVE",
"250 289 OFFCURVE",
"183 99 CURVE",
"145 263 OFFCURVE",
"132 372 OFFCURVE",
"111 497 CURVE"
);
}
);
width = 683;
}
);
leftKerningGroup = w;
note = w;
rightKerningGroup = w;
unicode = 0077;
},
{
glyphname = x;
layers = (
{
hints = (
{
horizontal = 1;
place = "{-1, 21}";
target = up;
type = BottomGhost;
},
{
horizontal = 1;
place = "{500, -20}";
target = down;
type = TopGhost;
},
{
horizontal = 1;
place = "{0, 21}";
target = up;
type = BottomGhost;
}
);
layerId = "95F3C079-8CB7-481A-B676-05495FEB06E6";
paths = (
{
closed = 1;
nodes = (
"413 500 OFFCURVE",
"413 500 OFFCURVE",
"413 501 CURVE",
"412 501 LINE SMOOTH",
"377 501 OFFCURVE",
"324 500 OFFCURVE",
"306 498 CURVE",
"267 435 OFFCURVE",
"233 354 OFFCURVE",
"208 311 CURVE",
"180 354 OFFCURVE",
"142 435 OFFCURVE",
"106 496 CURVE",
"104 498 OFFCURVE",
"74 498 OFFCURVE",
"58 498 CURVE SMOOTH",
"43 498 OFFCURVE",
"24 498 OFFCURVE",
"2 497 CURVE",
"66 396 OFFCURVE",
"64 378 OFFCURVE",
"135 253 CURVE",
"87 153 OFFCURVE",
"65 108 OFFCURVE",
"9 2 CURVE",
"21 -1 OFFCURVE",
"42 -1 OFFCURVE",
"57 -1 CURVE SMOOTH",
"105 0 LINE",
"142 61 OFFCURVE",
"171 128 OFFCURVE",
"208 192 CURVE",
"236 146 OFFCURVE",
"262 75 OFFCURVE",
"303 2 CURVE",
"304 2 LINE",
"308 1 OFFCURVE",
"337 1 OFFCURVE",
"343 1 CURVE SMOOTH",
"355 1 LINE",
"362 0 OFFCURVE",
"372 1 OFFCURVE",
"381 1 CURVE SMOOTH",
"389 1 OFFCURVE",
"395 0 OFFCURVE",
"401 0 CURVE",
"350 107 OFFCURVE",
"350 121 OFFCURVE",
"283 252 CURVE",
"335 360 OFFCURVE",
"373 430 OFFCURVE",
"412 500 CURVE"
);
}
);
width = 413;
}
);
leftKerningGroup = x;
note = x;
rightKerningGroup = x;
unicode = 0078;
},
{
glyphname = y;
layers = (
{
hints = (
{
horizontal = 1;
place = "{-177, 90}";
type = Stem;
}
);
layerId = "95F3C079-8CB7-481A-B676-05495FEB06E6";
paths = (
{
closed = 1;
nodes = (
"74 501 OFFCURVE",
"37 498 OFFCURVE",
"3 500 CURVE",
"47 337 OFFCURVE",
"75 245 OFFCURVE",
"148 -15 CURVE",
"162 -86 OFFCURVE",
"80 -94 OFFCURVE",
"-10 -87 CURVE",
"-16 -113 OFFCURVE",
"-16 -149 OFFCURVE",
"-6 -177 CURVE",
"332 -197 OFFCURVE",
"337 80 OFFCURVE",
"387 278 CURVE SMOOTH",
"404 347 OFFCURVE",
"420 419 OFFCURVE",
"441 499 CURVE",
"404 500 OFFCURVE",
"374 497 OFFCURVE",
"343 497 CURVE",
"326 454 OFFCURVE",
"265 95 OFFCURVE",
"229 52 CURVE",
"205 98 OFFCURVE",
"161 279 OFFCURVE",
"103 497 CURVE"
);
}
);
width = 449;
}
);
leftKerningGroup = y;
note = y;
rightKerningGroup = y;
unicode = 0079;
},
{
glyphname = z;
layers = (
{
hints = (
{
horizontal = 1;
place = "{1, 93}";
type = Stem;
}
);
layerId = "95F3C079-8CB7-481A-B676-05495FEB06E6";
paths = (
{
closed = 1;
nodes = (
"419 502 OFFCURVE",
"335 495 OFFCURVE",
"306 498 CURVE",
"234 498 OFFCURVE",
"136 497 OFFCURVE",
"28 497 CURVE",
"30 460 OFFCURVE",
"26 443 OFFCURVE",
"28 398 CURVE",
"118 410 OFFCURVE",
"273 407 OFFCURVE",
"316 409 CURVE",
"242 318 OFFCURVE",
"74 155 OFFCURVE",
"22 88 CURVE",
"21 60 OFFCURVE",
"26 47 OFFCURVE",
"24 1 CURVE",
"151 1 OFFCURVE",
"308 4 OFFCURVE",
"431 7 CURVE",
"431 38 OFFCURVE",
"429 70 OFFCURVE",
"429 100 CURVE",
"366 90 OFFCURVE",
"209 98 OFFCURVE",
"149 94 CURVE",
"290 262 OFFCURVE",
"381 337 OFFCURVE",
"434 408 CURVE",
"431 437 OFFCURVE",
"434 464 OFFCURVE",
"434 497 CURVE"
);
}
);
width = 456;
}
);
leftKerningGroup = z;
note = z;
rightKerningGroup = z;
unicode = 007A;
},
{
glyphname = A;
layers = (
{
hints = (
{
horizontal = 1;
place = "{168, 81}";
type = Stem;
},
{
horizontal = 1;
place = "{705, -20}";
target = down;
type = TopGhost;
}
);
layerId = "95F3C079-8CB7-481A-B676-05495FEB06E6";
paths = (
{
closed = 1;
nodes = (
"437 1 LINE",
"390 220 OFFCURVE",
"335 464 OFFCURVE",
"280 705 CURVE",
"189 697 OFFCURVE",
"183 703 OFFCURVE",
"161 700 CURVE",
"52 387 OFFCURVE",
"12 29 OFFCURVE",
"4 2 CURVE",
"4 1 LINE",
"15 1 LINE SMOOTH",
"64 2 OFFCURVE",
"87 -1 OFFCURVE",
"96 1 CURVE SMOOTH",
"116 5 OFFCURVE",
"131 143 OFFCURVE",
"138 170 CURVE",
"197 169 OFFCURVE",
"240 171 OFFCURVE",
"301 168 CURVE",
"325 93 OFFCURVE",
"331 47 OFFCURVE",
"347 2 CURVE",
"348 2 LINE",
"355 0 OFFCURVE",
"363 -1 OFFCURVE",
"371 -2 CURVE",
"385 -5 OFFCURVE",
"408 -5 OFFCURVE",
"437 0 CURVE"
);
},
{
closed = 1;
nodes = (
"253 248 OFFCURVE",
"215 248 OFFCURVE",
"189 248 CURVE",
"164 249 OFFCURVE",
"146 248 OFFCURVE",
"137 249 CURVE",
"199 582 OFFCURVE",
"198 587 OFFCURVE",
"236 575 CURVE",
"243 568 OFFCURVE",
"265 462 OFFCURVE",
"303 249 CURVE"
);
}
);
width = 434;
}
);
leftKerningGroup = A;
note = A;
rightKerningGroup = A;
unicode = 0041;
},
{
glyphname = B;
layers = (
{
hints = (
{
horizontal = 1;
place = "{2, 85}";
type = Stem;
},
{
horizontal = 1;
place = "{289, 92}";
type = Stem;
},
{
place = "{41, 89}";
type = Stem;
},
{
horizontal = 1;
place = "{381, 231}";
type = Stem;
}
);
layerId = "95F3C079-8CB7-481A-B676-05495FEB06E6";
paths = (
{
closed = 1;
nodes = (
"388 339 OFFCURVE",
"385 343 OFFCURVE",
"390 352 CURVE SMOOTH",
"417 397 OFFCURVE",
"439 452 OFFCURVE",
"439 508 CURVE SMOOTH",
"439 732 OFFCURVE",
"202 737 OFFCURVE",
"42 693 CURVE",
"41 692 LINE",
"45 460 OFFCURVE",
"36 235 OFFCURVE",
"44 4 CURVE",
"51 1 OFFCURVE",
"58 2 OFFCURVE",
"66 2 CURVE SMOOTH",
"211 -2 OFFCURVE",
"430 -44 OFFCURVE",
"463 145 CURVE SMOOTH",
"478 231 OFFCURVE",
"437 278 OFFCURVE",
"395 331 CURVE"
);
},
{
closed = 1;
nodes = (
"315 382 OFFCURVE",
"279 374 OFFCURVE",
"185 381 CURVE SMOOTH",
"161 383 OFFCURVE",
"145 385 OFFCURVE",
"136 386 CURVE",
"129 412 OFFCURVE",
"129 453 OFFCURVE",
"130 507 CURVE SMOOTH",
"132 557 OFFCURVE",
"132 590 OFFCURVE",
"131 604 CURVE",
"148 613 OFFCURVE",
"196 614 OFFCURVE",
"232 612 CURVE SMOOTH",
"295 610 OFFCURVE",
"339 589 OFFCURVE",
"350 527 CURVE SMOOTH",
"358 488 OFFCURVE",
"349 455 OFFCURVE",
"337 432 CURVE"
);
},
{
closed = 1;
nodes = (
"316 82 OFFCURVE",
"269 81 OFFCURVE",
"185 87 CURVE SMOOTH",
"163 88 OFFCURVE",
"147 90 OFFCURVE",
"139 91 CURVE",
"125 189 OFFCURVE",
"121 268 OFFCURVE",
"135 289 CURVE",
"183 291 OFFCURVE",
"215 292 OFFCURVE",
"232 290 CURVE SMOOTH",
"254 288 OFFCURVE",
"328 295 OFFCURVE",
"349 235 CURVE SMOOTH",
"362 201 OFFCURVE",
"364 167 OFFCURVE",
"352 145 CURVE SMOOTH"
);
}
);
width = 477;
}
);
note = B;
rightKerningGroup = B;
unicode = 0042;
},
{
glyphname = C;
layers = (
{
hints = (
{
place = "{128, 244}";
type = Stem;
},
{
place = "{33, 95}";
type = Stem;
}
);
layerId = "95F3C079-8CB7-481A-B676-05495FEB06E6";
paths = (
{
closed = 1;
nodes = (
"249 615 OFFCURVE",
"287 608 OFFCURVE",
"308 593 CURVE",
"375 558 OFFCURVE",
"369 491 OFFCURVE",
"369 421 CURVE",
"393 415 OFFCURVE",
"423 412 OFFCURVE",
"465 420 CURVE",
"505 611 OFFCURVE",
"338 775 OFFCURVE",
"150 714 CURVE",
"75 694 OFFCURVE",
"32 619 OFFCURVE",
"33 537 CURVE SMOOTH",
"30 321 OFFCURVE",
"31 218 OFFCURVE",
"36 122 CURVE",
"47 10 OFFCURVE",
"168 -24 OFFCURVE",
"263 -11 CURVE",
"410 -6 OFFCURVE",
"499 138 OFFCURVE",
"461 283 CURVE",
"435 288 OFFCURVE",
"399 282 OFFCURVE",
"372 284 CURVE",
"373 142 OFFCURVE",
"318 69 OFFCURVE",
"189 96 CURVE",
"110 126 OFFCURVE",
"125 227 OFFCURVE",
"128 371 CURVE",
"125 543 OFFCURVE",
"150 609 OFFCURVE",
"202 611 CURVE"
);
}
);
width = 488;
}
);
leftKerningGroup = C;
note = C;
rightKerningGroup = C;
unicode = 0043;
},
{
glyphname = D;
layers = (
{
hints = (
{
horizontal = 1;
place = "{1, 21}";
target = up;
type = BottomGhost;
},
{
place = "{40, 94}";
type = Stem;
},
{
horizontal = 1;
place = "{5, 124}";
type = Stem;
}
);
layerId = "95F3C079-8CB7-481A-B676-05495FEB06E6";
paths = (
{
closed = 1;
nodes = (
"369 656 OFFCURVE",
"327 690 OFFCURVE",
"284 701 CURVE",
"207 698 OFFCURVE",
"119 710 OFFCURVE",
"43 691 CURVE",
"40 687 LINE",
"45 455 OFFCURVE",
"27 212 OFFCURVE",
"56 1 CURVE",
"57 2 LINE",
"141 2 OFFCURVE",
"232 2 OFFCURVE",
"320 5 CURVE",
"363 59 OFFCURVE",
"411 129 OFFCURVE",
"432 179 CURVE SMOOTH",
"440 200 OFFCURVE",
"448 213 OFFCURVE",
"448 219 CURVE",
"460 280 OFFCURVE",
"459 344 OFFCURVE",
"462 407 CURVE",
"458 479 OFFCURVE",
"431 556 OFFCURVE",
"393 617 CURVE SMOOTH"
);
},
{
closed = 1;
nodes = (
"294 141 OFFCURVE",
"291 131 OFFCURVE",
"194 129 CURVE SMOOTH",
"165 129 OFFCURVE",
"146 130 OFFCURVE",
"139 135 CURVE",
"138 156 OFFCURVE",
"136 193 OFFCURVE",
"134 245 CURVE SMOOTH",
"132 297 OFFCURVE",
"132 335 OFFCURVE",
"133 357 CURVE SMOOTH",
"134 379 OFFCURVE",
"135 415 OFFCURVE",
"135 465 CURVE SMOOTH",
"135 515 OFFCURVE",
"134 550 OFFCURVE",
"131 571 CURVE",
"136 571 LINE",
"184 575 OFFCURVE",
"216 576 OFFCURVE",
"232 575 CURVE",
"242 575 OFFCURVE",
"253 574 OFFCURVE",
"266 573 CURVE",
"307 565 OFFCURVE",
"363 498 OFFCURVE",
"373 386 CURVE SMOOTH",
"375 361 OFFCURVE",
"375 338 OFFCURVE",
"373 314 CURVE",
"363 255 OFFCURVE",
"348 212 OFFCURVE",
"329 187 CURVE SMOOTH"
);
}
);
width = 482;
}
);
note = D;
rightKerningGroup = D;
unicode = 0044;
},
{
glyphname = E;
layers = (
{
hints = (
{
horizontal = 1;
place = "{3, 90}";
type = Stem;
},
{
horizontal = 1;
place = "{298, 96}";
type = Stem;
},
{
horizontal = 1;
place = "{596, 93}";
type = Stem;
},
{
place = "{45, 98}";
type = Stem;
}
);
layerId = "95F3C079-8CB7-481A-B676-05495FEB06E6";
paths = (
{
closed = 1;
nodes = (
"460 24 OFFCURVE",
"461 50 OFFCURVE",
"460 88 CURVE",
"360 85 OFFCURVE",
"305 94 OFFCURVE",
"143 94 CURVE",
"144 189 OFFCURVE",
"139 254 OFFCURVE",
"146 293 CURVE",
"150 296 OFFCURVE",
"167 297 OFFCURVE",
"196 298 CURVE SMOOTH",
"289 300 OFFCURVE",
"266 298 OFFCURVE",
"321 303 CURVE",
"320 326 OFFCURVE",
"323 355 OFFCURVE",
"319 390 CURVE",
"262 394 OFFCURVE",
"245 391 OFFCURVE",
"141 395 CURVE",
"135 416 OFFCURVE",
"136 452 OFFCURVE",
"139 504 CURVE SMOOTH",
"142 548 OFFCURVE",
"143 579 OFFCURVE",
"142 595 CURVE",
"198 599 OFFCURVE",
"202 599 OFFCURVE",
"277 599 CURVE SMOOTH",
"332 599 LINE SMOOTH",
"376 599 OFFCURVE",
"416 601 OFFCURVE",
"459 604 CURVE",
"459 614 LINE SMOOTH",
"459 641 OFFCURVE",
"463 668 OFFCURVE",
"460 695 CURVE",
"460 701 OFFCURVE",
"201 697 OFFCURVE",
"46 689 CURVE",
"33 460 OFFCURVE",
"45 237 OFFCURVE",
"45 5 CURVE",
"174 -6 OFFCURVE",
"319 4 OFFCURVE",
"455 3 CURVE"
);
}
);
width = 481;
}
);
note = E;
rightKerningGroup = E;
unicode = 0045;
},
{
glyphname = F;
layers = (
{
hints = (
{
horizontal = 1;
place = "{280, 112}";
type = Stem;
},
{
place = "{43, 111}";
type = Stem;
},
{
horizontal = 1;
place = "{392, 188}";
type = Stem;
}
);
layerId = "95F3C079-8CB7-481A-B676-05495FEB06E6";
paths = (
{
closed = 1;
nodes = (
"353 289 OFFCURVE",
"354 290 OFFCURVE",
"354 290 CURVE",
"352 314 OFFCURVE",
"360 377 OFFCURVE",
"353 392 CURVE",
"340 391 OFFCURVE",
"326 391 OFFCURVE",
"306 391 CURVE SMOOTH",
"278 391 OFFCURVE",
"229 391 OFFCURVE",
"158 392 CURVE SMOOTH",
"152 392 OFFCURVE",
"149 430 OFFCURVE",
"149 451 CURVE SMOOTH",
"149 475 OFFCURVE",
"150 518 OFFCURVE",
"154 580 CURVE",
"248 586 OFFCURVE",
"264 587 OFFCURVE",
"308 589 CURVE SMOOTH",
"367 592 OFFCURVE",
"410 592 OFFCURVE",
"489 591 CURVE",
"491 615 OFFCURVE",
"490 660 OFFCURVE",
"490 682 CURVE",
"378 710 OFFCURVE",
"112 692 OFFCURVE",
"43 680 CURVE",
"43 679 LINE SMOOTH",
"43 368 OFFCURVE",
"41 244 OFFCURVE",
"41 2 CURVE",
"42 1 LINE SMOOTH",
"44 -1 OFFCURVE",
"92 -4 OFFCURVE",
"95 -3 CURVE",
"107 -2 OFFCURVE",
"129 -1 OFFCURVE",
"151 1 CURVE",
"151 35 OFFCURVE",
"151 71 OFFCURVE",
"152 108 CURVE SMOOTH",
"155 280 LINE",
"156 280 LINE SMOOTH",
"217 282 OFFCURVE",
"257 284 OFFCURVE",
"273 285 CURVE SMOOTH",
"296 286 OFFCURVE",
"323 287 OFFCURVE",
"352 289 CURVE"
);
}
);
width = 494;
}
);
note = F;
rightKerningGroup = F;
unicode = 0046;
},
{
glyphname = G;
layers = (
{
hints = (
{
place = "{28, 90}";
type = Stem;
}
);
layerId = "95F3C079-8CB7-481A-B676-05495FEB06E6";
paths = (
{
closed = 1;
nodes = (
"240 345 OFFCURVE",
"240 348 OFFCURVE",
"240 346 CURVE SMOOTH",
"240 345 LINE",
"243 316 OFFCURVE",
"241 303 OFFCURVE",
"244 278 CURVE",
"250 276 OFFCURVE",
"260 276 OFFCURVE",
"272 276 CURVE SMOOTH",
"281 276 OFFCURVE",
"297 277 OFFCURVE",
"318 276 CURVE",
"340 276 OFFCURVE",
"354 276 OFFCURVE",
"358 275 CURVE",
"359 274 OFFCURVE",
"373 247 OFFCURVE",
"364 151 CURVE",
"347 99 OFFCURVE",
"331 98 OFFCURVE",
"307 87 CURVE SMOOTH",
"284 77 OFFCURVE",
"248 70 OFFCURVE",
"198 84 CURVE",
"144 105 OFFCURVE",
"130 140 OFFCURVE",
"118 259 CURVE",
"112 354 OFFCURVE",
"117 467 OFFCURVE",
"134 530 CURVE SMOOTH",
"147 583 OFFCURVE",
"176 616 OFFCURVE",
"257 610 CURVE",
"310 608 OFFCURVE",
"354 565 OFFCURVE",
"356 534 CURVE",
"357 489 OFFCURVE",
"352 475 OFFCURVE",
"357 474 CURVE SMOOTH",
"382 469 OFFCURVE",
"439 477 OFFCURVE",
"449 475 CURVE",
"449 477 OFFCURVE",
"450 479 OFFCURVE",
"450 481 CURVE",
"469 643 OFFCURVE",
"343 718 OFFCURVE",
"194 699 CURVE SMOOTH",
"26 676 OFFCURVE",
"31 535 OFFCURVE",
"28 416 CURVE SMOOTH",
"25 317 OFFCURVE",
"29 272 OFFCURVE",
"38 187 CURVE SMOOTH",
"48 87 OFFCURVE",
"73 29 OFFCURVE",
"144 -1 CURVE SMOOTH",
"208 -28 OFFCURVE",
"290 -13 OFFCURVE",
"356 6 CURVE",
"407 25 OFFCURVE",
"444 57 OFFCURVE",
"451 125 CURVE",
"464 197 OFFCURVE",
"459 280 OFFCURVE",
"451 351 CURVE",
"448 352 LINE",
"421 352 OFFCURVE",
"277 369 OFFCURVE",
"243 348 CURVE"
);
}
);
width = 481;
}
);
leftKerningGroup = G;
note = G;
rightKerningGroup = G;
unicode = 0047;
},
{
glyphname = H;
layers = (
{
hints = (
{
place = "{40, 81}";
type = Stem;
},
{
place = "{353, 116}";
type = Stem;
},
{
place = "{353, 89}";
type = Stem;
},
{
place = "{54, 89}";
type = Stem;
}
);
layerId = "95F3C079-8CB7-481A-B676-05495FEB06E6";
paths = (
{
closed = 1;
nodes = (
"442 706 LINE",
"417 708 OFFCURVE",
"379 706 OFFCURVE",
"353 700 CURVE",
"355 586 OFFCURVE",
"356 493 OFFCURVE",
"353 398 CURVE",
"352 398 LINE",
"319 395 OFFCURVE",
"242 390 OFFCURVE",
"140 395 CURVE",
"139 395 LINE",
"127 482 OFFCURVE",
"129 582 OFFCURVE",
"121 696 CURVE",
"97 702 OFFCURVE",
"68 694 OFFCURVE",
"43 699 CURVE",
"41 699 LINE",
"40 698 LINE",
"36 494 OFFCURVE",
"46 114 OFFCURVE",
"54 1 CURVE",
"70 7 OFFCURVE",
"116 -6 OFFCURVE",
"141 4 CURVE",
"144 97 OFFCURVE",
"138 114 OFFCURVE",
"143 296 CURVE",
"207 303 OFFCURVE",
"264 304 OFFCURVE",
"315 299 CURVE",
"361 299 LINE",
"369 152 OFFCURVE",
"362 128 OFFCURVE",
"375 3 CURVE",
"376 3 LINE SMOOTH",
"402 3 OFFCURVE",
"440 1 OFFCURVE",
"469 6 CURVE"
);
}
);
width = 499;
}
);
note = H;
unicode = 0048;
},
{
glyphname = I;
layers = (
{
hints = (
{
place = "{66, 121}";
type = Stem;
}
);
layerId = "95F3C079-8CB7-481A-B676-05495FEB06E6";
paths = (
{
closed = 1;
nodes = (
"188 703 LINE",
"116 704 OFFCURVE",
"113 711 OFFCURVE",
"75 708 CURVE",
"75 706 LINE",
"69 650 OFFCURVE",
"66 592 OFFCURVE",
"66 534 CURVE SMOOTH",
"67 461 OFFCURVE",
"69 374 OFFCURVE",
"70 274 CURVE SMOOTH",
"72 175 OFFCURVE",
"71 81 OFFCURVE",
"67 -4 CURVE",
"94 2 OFFCURVE",
"169 -10 OFFCURVE",
"187 3 CURVE",
"177 234 OFFCURVE",
"187 469 OFFCURVE",
"188 699 CURVE SMOOTH"
);
}
);
width = 260;
}
);
note = I;
rightKerningGroup = I;
unicode = 0049;
},
{
glyphname = J;
layers = (
{
hints = (
{
horizontal = 1;
place = "{712, -20}";
target = down;
type = TopGhost;
},
{
place = "{4, 98}";
type = Stem;
},
{
place = "{329, 100}";
type = Stem;
}
);
layerId = "95F3C079-8CB7-481A-B676-05495FEB06E6";
paths = (
{
closed = 1;
nodes = (
"393 711 OFFCURVE",
"361 711 OFFCURVE",
"329 710 CURVE",
"329 703 LINE SMOOTH",
"324 544 OFFCURVE",
"327 383 OFFCURVE",
"329 243 CURVE",
"327 219 OFFCURVE",
"340 112 OFFCURVE",
"224 102 CURVE SMOOTH",
"103 88 OFFCURVE",
"104 233 OFFCURVE",
"102 265 CURVE",
"102 271 OFFCURVE",
"101 277 OFFCURVE",
"101 282 CURVE SMOOTH",
"101 286 LINE",
"71 291 OFFCURVE",
"29 292 OFFCURVE",
"4 288 CURVE",
"-1 186 OFFCURVE",
"17 32 OFFCURVE",
"126 0 CURVE",
"186 -13 OFFCURVE",
"257 -12 OFFCURVE",
"313 16 CURVE",
"437 62 OFFCURVE",
"424 220 OFFCURVE",
"429 329 CURVE SMOOTH",
"432 458 OFFCURVE",
"422 587 OFFCURVE",
"425 712 CURVE"
);
}
);
width = 463;
}
);
leftKerningGroup = J;
note = J;
rightKerningGroup = J;
unicode = 004A;
},
{
glyphname = K;
layers = (
{
hints = (
{
horizontal = 1;
place = "{699, -20}";
target = down;
type = TopGhost;
},
{
place = "{45, 94}";
type = Stem;
}
);
layerId = "95F3C079-8CB7-481A-B676-05495FEB06E6";
paths = (
{
closed = 1;
nodes = (
"379 122 OFFCURVE",
"296 242 OFFCURVE",
"212 360 CURVE",
"323 494 OFFCURVE",
"373 558 OFFCURVE",
"462 693 CURVE",
"430 697 OFFCURVE",
"394 693 OFFCURVE",
"362 695 CURVE",
"322 641 OFFCURVE",
"292 595 OFFCURVE",
"232 527 CURVE",
"139 429 LINE",
"136 549 OFFCURVE",
"139 620 OFFCURVE",
"137 697 CURVE",
"107 697 OFFCURVE",
"75 699 OFFCURVE",
"45 699 CURVE",
"46 466 OFFCURVE",
"32 234 OFFCURVE",
"43 5 CURVE",
"69 -1 OFFCURVE",
"116 -3 OFFCURVE",
"144 5 CURVE",
"144 48 OFFCURVE",
"138 152 OFFCURVE",
"140 218 CURVE",
"142 248 OFFCURVE",
"142 273 OFFCURVE",
"142 292 CURVE",
"193 227 OFFCURVE",
"225 150 OFFCURVE",
"363 2 CURVE",
"395 2 OFFCURVE",
"431 -1 OFFCURVE",
"463 4 CURVE"
);
}
);
width = 459;
}
);
note = K;
rightKerningGroup = K;
unicode = 004B;
},
{
glyphname = L;
layers = (
{
hints = (
{
horizontal = 1;
place = "{-1, 105}";
type = Stem;
},
{
place = "{36, 113}";
type = Stem;
}
);
layerId = "95F3C079-8CB7-481A-B676-05495FEB06E6";
paths = (
{
closed = 1;
nodes = (
"455 40 OFFCURVE",
"457 83 OFFCURVE",
"457 97 CURVE",
"435 94 OFFCURVE",
"324 101 OFFCURVE",
"258 104 CURVE",
"147 102 LINE",
"150 180 OFFCURVE",
"149 244 OFFCURVE",
"149 289 CURVE SMOOTH",
"149 424 OFFCURVE",
"143 567 OFFCURVE",
"148 698 CURVE",
"119 710 OFFCURVE",
"59 711 OFFCURVE",
"39 703 CURVE",
"43 422 OFFCURVE",
"48 317 OFFCURVE",
"36 17 CURVE",
"36 -1 LINE",
"358 -6 OFFCURVE",
"397 -1 OFFCURVE",
"431 0 CURVE SMOOTH",
"448 0 OFFCURVE",
"456 7 OFFCURVE",
"456 22 CURVE"
);
}
);
width = 461;
}
);
note = L;
rightKerningGroup = L;
unicode = 004C;
},
{
glyphname = M;
layers = (
{
hints = (
{
horizontal = 1;
place = "{-1, 21}";
target = up;
type = BottomGhost;
},
{
horizontal = 1;
place = "{697, -20}";
target = down;
type = TopGhost;
},
{
place = "{44, 93}";
type = Stem;
},
{
place = "{358, 98}";
type = Stem;
},
{
horizontal = 1;
place = "{0, 21}";
target = up;
type = BottomGhost;
}
);
layerId = "95F3C079-8CB7-481A-B676-05495FEB06E6";
paths = (
{
closed = 1;
nodes = (
"459 318 LINE",
"466 446 OFFCURVE",
"455 569 OFFCURVE",
"460 697 CURVE",
"428 697 OFFCURVE",
"368 692 OFFCURVE",
"354 694 CURVE",
"319 648 OFFCURVE",
"255 466 OFFCURVE",
"248 464 CURVE",
"186 578 OFFCURVE",
"148 680 OFFCURVE",
"138 691 CURVE",
"137 691 LINE",
"103 689 OFFCURVE",
"67 693 OFFCURVE",
"44 686 CURVE",
"39 76 OFFCURVE",
"39 0 OFFCURVE",
"48 0 CURVE SMOOTH",
"78 0 OFFCURVE",
"115 -1 OFFCURVE",
"145 3 CURVE",
"141 65 OFFCURVE",
"138 128 OFFCURVE",
"137 192 CURVE SMOOTH",
"136 256 OFFCURVE",
"135 357 OFFCURVE",
"137 497 CURVE",
"176 416 OFFCURVE",
"227 286 OFFCURVE",
"247 273 CURVE",
"255 273 OFFCURVE",
"257 293 OFFCURVE",
"307 399 CURVE SMOOTH",
"353 496 OFFCURVE",
"346 489 OFFCURVE",
"358 506 CURVE",
"363 206 OFFCURVE",
"357 162 OFFCURVE",
"366 1 CURVE",
"390 1 OFFCURVE",
"426 3 OFFCURVE",
"456 -1 CURVE"
);
}
);
width = 501;
}
);
note = M;
rightKerningGroup = I;
unicode = 004D;
},
{
glyphname = N;
layers = (
{
hints = (
{
horizontal = 1;
place = "{-3, 21}";
target = up;
type = BottomGhost;
},
{
horizontal = 1;
place = "{709, -20}";
target = down;
type = TopGhost;
},
{
place = "{39, 102}";
type = Stem;
},
{
place = "{358, 99}";
type = Stem;
},
{
horizontal = 1;
place = "{0, 21}";
target = up;
type = BottomGhost;
}
);
layerId = "95F3C079-8CB7-481A-B676-05495FEB06E6";
paths = (
{
closed = 1;
nodes = (
"456 137 OFFCURVE",
"457 172 OFFCURVE",
"457 211 CURVE SMOOTH",
"457 268 OFFCURVE",
"457 326 OFFCURVE",
"456 382 CURVE",
"456 704 LINE",
"441 707 OFFCURVE",
"426 708 OFFCURVE",
"408 709 CURVE",
"391 709 OFFCURVE",
"374 708 OFFCURVE",
"358 706 CURVE",
"358 674 OFFCURVE",
"357 661 OFFCURVE",
"358 621 CURVE SMOOTH",
"359 573 OFFCURVE",
"362 504 OFFCURVE",
"363 408 CURVE SMOOTH",
"363 368 OFFCURVE",
"370 266 OFFCURVE",
"368 210 CURVE",
"356 244 OFFCURVE",
"272 432 OFFCURVE",
"199 565 CURVE SMOOTH",
"167 626 OFFCURVE",
"153 652 OFFCURVE",
"136 694 CURVE",
"136 697 OFFCURVE",
"100 700 OFFCURVE",
"85 701 CURVE SMOOTH",
"70 702 OFFCURVE",
"58 702 OFFCURVE",
"48 700 CURVE",
"41 615 OFFCURVE",
"39 524 OFFCURVE",
"39 432 CURVE SMOOTH",
"39 307 OFFCURVE",
"42 198 OFFCURVE",
"42 71 CURVE SMOOTH",
"42 1 LINE",
"65 1 OFFCURVE",
"87 -3 OFFCURVE",
"108 -3 CURVE",
"120 -4 OFFCURVE",
"130 -3 OFFCURVE",
"142 0 CURVE",
"141 19 OFFCURVE",
"141 43 OFFCURVE",
"141 68 CURVE SMOOTH",
"141 94 LINE SMOOTH",
"141 335 OFFCURVE",
"140 430 OFFCURVE",
"140 453 CURVE",
"143 465 OFFCURVE",
"146 451 OFFCURVE",
"160 420 CURVE SMOOTH",
"239 253 OFFCURVE",
"337 71 OFFCURVE",
"372 0 CURVE",
"457 0 LINE",
"457 20 LINE",
"455 49 OFFCURVE",
"454 75 OFFCURVE",
"456 100 CURVE"
);
}
);
width = 498;
}
);
note = N;
rightKerningGroup = I;
unicode = 004E;
},
{
glyphname = O;
layers = (
{
hints = (
{
place = "{31, 74}";
type = Stem;
},
{
place = "{368, 87}";
type = Stem;
}
);
layerId = "95F3C079-8CB7-481A-B676-05495FEB06E6";
paths = (
{
closed = 1;
nodes = (
"395 713 OFFCURVE",
"212 722 OFFCURVE",
"107 671 CURVE",
"46 637 OFFCURVE",
"32 545 OFFCURVE",
"31 482 CURVE",
"23 377 OFFCURVE",
"32 272 OFFCURVE",
"36 168 CURVE SMOOTH",
"39 36 OFFCURVE",
"97 -5 OFFCURVE",
"192 -13 CURVE SMOOTH",
"268 -20 OFFCURVE",
"366 -1 OFFCURVE",
"409 58 CURVE",
"433 97 OFFCURVE",
"443 146 OFFCURVE",
"447 193 CURVE SMOOTH",
"450 226 LINE SMOOTH",
"454 295 OFFCURVE",
"451 360 OFFCURVE",
"455 431 CURVE SMOOTH",
"457 484 OFFCURVE",
"459 543 OFFCURVE",
"437 592 CURVE"
);
},
{
closed = 1;
nodes = (
"368 400 OFFCURVE",
"369 374 OFFCURVE",
"369 347 CURVE SMOOTH",
"369 312 LINE",
"369 313 OFFCURVE",
"364 235 OFFCURVE",
"364 188 CURVE",
"360 119 OFFCURVE",
"327 76 OFFCURVE",
"234 74 CURVE SMOOTH",
"201 73 OFFCURVE",
"175 78 OFFCURVE",
"157 91 CURVE SMOOTH",
"113 122 OFFCURVE",
"107 182 OFFCURVE",
"105 325 CURVE SMOOTH",
"103 513 OFFCURVE",
"134 619 OFFCURVE",
"253 612 CURVE SMOOTH",
"378 605 OFFCURVE",
"366 465 OFFCURVE",
"368 427 CURVE"
);
}
);
width = 483;
}
);
leftKerningGroup = G;
note = O;
rightKerningGroup = O;
unicode = 004F;
},
{
glyphname = P;
layers = (
{
hints = (
{
horizontal = 1;
place = "{262, 91}";
type = Stem;
},
{
place = "{37, 116}";
type = Stem;
},
{
place = "{37, 96}";
type = Stem;
}
);
layerId = "95F3C079-8CB7-481A-B676-05495FEB06E6";
paths = (
{
closed = 1;
nodes = (
"484 491 LINE",
"472 718 OFFCURVE",
"202 739 OFFCURVE",
"37 695 CURVE",
"45 473 OFFCURVE",
"36 200 OFFCURVE",
"44 6 CURVE",
"78 2 OFFCURVE",
"122 2 OFFCURVE",
"150 9 CURVE",
"151 9 OFFCURVE",
"152 10 OFFCURVE",
"153 10 CURVE",
"153 11 LINE",
"148 205 OFFCURVE",
"152 225 OFFCURVE",
"149 262 CURVE",
"355 250 OFFCURVE",
"473 325 OFFCURVE",
"484 478 CURVE"
);
},
{
closed = 1;
nodes = (
"363 571 OFFCURVE",
"377 547 OFFCURVE",
"386 515 CURVE SMOOTH",
"431 350 OFFCURVE",
"216 353 OFFCURVE",
"139 353 CURVE",
"135 380 OFFCURVE",
"134 423 OFFCURVE",
"133 479 CURVE SMOOTH",
"132 579 OFFCURVE",
"134 582 OFFCURVE",
"132 611 CURVE",
"148 615 OFFCURVE",
"169 617 OFFCURVE",
"199 618 CURVE SMOOTH",
"270 620 OFFCURVE",
"305 610 OFFCURVE",
"344 583 CURVE"
);
}
);
width = 497;
}
);
note = P;
rightKerningGroup = P;
unicode = 0050;
},
{
glyphname = Q;
layers = (
{
hints = (
{
horizontal = 1;
place = "{-6, 79}";
type = Stem;
},
{
horizontal = 1;
place = "{617, 97}";
type = Stem;
},
{
place = "{30, 81}";
type = Stem;
},
{
place = "{386, 82}";
type = Stem;
}
);
layerId = "95F3C079-8CB7-481A-B676-05495FEB06E6";
paths = (
{
closed = 1;
nodes = (
"464 197 OFFCURVE",
"462 231 OFFCURVE",
"465 264 CURVE SMOOTH",
"468 304 OFFCURVE",
"468 327 OFFCURVE",
"468 368 CURVE SMOOTH",
"468 448 OFFCURVE",
"462 530 OFFCURVE",
"439 602 CURVE",
"394 709 OFFCURVE",
"346 714 OFFCURVE",
"253 714 CURVE SMOOTH",
"151 714 OFFCURVE",
"71 674 OFFCURVE",
"52 618 CURVE",
"25 522 OFFCURVE",
"30 400 OFFCURVE",
"30 307 CURVE SMOOTH",
"30 209 OFFCURVE",
"23 118 OFFCURVE",
"90 54 CURVE SMOOTH",
"129 17 OFFCURVE",
"165 -1 OFFCURVE",
"231 -6 CURVE SMOOTH",
"272 -9 OFFCURVE",
"324 5 OFFCURVE",
"340 24 CURVE",
"346 15 OFFCURVE",
"362 4 OFFCURVE",
"367 -2 CURVE",
"381 -17 OFFCURVE",
"384 -8 OFFCURVE",
"398 1 CURVE SMOOTH",
"418 14 OFFCURVE",
"429 23 OFFCURVE",
"427 34 CURVE",
"421 44 OFFCURVE",
"413 53 OFFCURVE",
"404 64 CURVE",
"447 118 OFFCURVE",
"453 139 OFFCURVE",
"456 165 CURVE"
);
},
{
closed = 1;
nodes = (
"296 174 OFFCURVE",
"289 165 OFFCURVE",
"281 160 CURVE",
"271 152 OFFCURVE",
"260 149 OFFCURVE",
"258 138 CURVE",
"259 126 OFFCURVE",
"284 98 OFFCURVE",
"294 86 CURVE",
"293 79 OFFCURVE",
"273 73 OFFCURVE",
"254 73 CURVE SMOOTH",
"121 73 OFFCURVE",
"114 177 OFFCURVE",
"111 262 CURVE SMOOTH",
"110 288 OFFCURVE",
"112 309 OFFCURVE",
"112 326 CURVE SMOOTH",
"112 355 LINE SMOOTH",
"112 393 OFFCURVE",
"113 426 OFFCURVE",
"116 460 CURVE SMOOTH",
"124 585 OFFCURVE",
"129 616 OFFCURVE",
"255 617 CURVE SMOOTH",
"341 617 OFFCURVE",
"357 589 OFFCURVE",
"371 522 CURVE SMOOTH",
"385 441 OFFCURVE",
"390 366 OFFCURVE",
"386 263 CURVE SMOOTH",
"382 194 OFFCURVE",
"363 160 OFFCURVE",
"347 130 CURVE",
"330 147 OFFCURVE",
"329 162 OFFCURVE",
"306 176 CURVE"
);
}
);
width = 495;
}
);
leftKerningGroup = Q;
note = Q;
rightKerningGroup = Q;
unicode = 0051;
},
{
glyphname = R;
layers = (
{
hints = (
{
horizontal = 1;
place = "{0, 21}";
target = up;
type = BottomGhost;
}
);
layerId = "95F3C079-8CB7-481A-B676-05495FEB06E6";
paths = (
{
closed = 1;
nodes = (
"516 3 LINE",
"386 164 OFFCURVE",
"363 185 OFFCURVE",
"253 309 CURVE",
"412 306 OFFCURVE",
"443 337 OFFCURVE",
"473 393 CURVE",
"556 532 OFFCURVE",
"454 705 OFFCURVE",
"296 713 CURVE",
"199 724 OFFCURVE",
"108 710 OFFCURVE",
"33 699 CURVE",
"43 632 OFFCURVE",
"48 3 OFFCURVE",
"40 0 CURVE",
"50 2 OFFCURVE",
"117 -7 OFFCURVE",
"158 7 CURVE",
"155 49 OFFCURVE",
"149 128 OFFCURVE",
"151 212 CURVE SMOOTH",
"151 239 OFFCURVE",
"152 261 OFFCURVE",
"153 278 CURVE",
"201 239 LINE",
"275 168 OFFCURVE",
"346 70 OFFCURVE",
"402 1 CURVE",
"436 -1 OFFCURVE",
"476 3 OFFCURVE",
"517 3 CURVE"
);
},
{
closed = 1;
nodes = (
"137 401 LINE",
"136 408 OFFCURVE",
"135 421 OFFCURVE",
"135 441 CURVE SMOOTH",
"135 463 OFFCURVE",
"140 556 OFFCURVE",
"129 614 CURVE",
"187 624 OFFCURVE",
"234 629 OFFCURVE",
"268 625 CURVE SMOOTH",
"350 617 OFFCURVE",
"406 570 OFFCURVE",
"393 480 CURVE SMOOTH",
"387 434 OFFCURVE",
"365 407 OFFCURVE",
"325 400 CURVE SMOOTH",
"283 393 OFFCURVE",
"218 395 OFFCURVE",
"138 401 CURVE"
);
},
{
closed = 1;
nodes = (
"40 0 OFFCURVE",
"40 0 OFFCURVE",
"40 0 CURVE SMOOTH"
);
}
);
width = 518;
}
);
note = R;
rightKerningGroup = R;
unicode = 0052;
},
{
glyphname = S;
layers = (
{
hints = (
{
horizontal = 1;
place = "{-5, 98.3}";
type = Stem;
},
{
horizontal = 1;
place = "{595.19, 103.85}";
type = Stem;
},
{
place = "{21.62, 105.38}";
type = Stem;
},
{
place = "{363.17, 104.21}";
type = Stem;
},
{
place = "{12, 102}";
type = Stem;
},
{
place = "{359, 104}";
type = Stem;
}
);
layerId = "95F3C079-8CB7-481A-B676-05495FEB06E6";
paths = (
{
closed = 1;
nodes = (
"463 474 LINE",
"482 574 OFFCURVE",
"441 639 OFFCURVE",
"377 672 CURVE",
"313 701 OFFCURVE",
"220 710 OFFCURVE",
"155 683 CURVE SMOOTH",
"94 657 OFFCURVE",
"49 604 OFFCURVE",
"31 542 CURVE SMOOTH",
"19 504 OFFCURVE",
"18 463 OFFCURVE",
"31 423 CURVE SMOOTH",
"47 371 OFFCURVE",
"95 321 OFFCURVE",
"167 310 CURVE",
"253 301 OFFCURVE",
"348 310 OFFCURVE",
"359 215 CURVE SMOOTH",
"367 134 OFFCURVE",
"297 78 OFFCURVE",
"216 97 CURVE SMOOTH",
"144 115 OFFCURVE",
"113 155 OFFCURVE",
"114 206 CURVE",
"84 206 OFFCURVE",
"45 210 OFFCURVE",
"12 206 CURVE",
"11 194 OFFCURVE",
"13 182 OFFCURVE",
"15 172 CURVE",
"15 171 LINE",
"25 59 OFFCURVE",
"140 -1 OFFCURVE",
"248 -5 CURVE SMOOTH",
"361 -9 OFFCURVE",
"461 63 OFFCURVE",
"463 212 CURVE SMOOTH",
"467 311 OFFCURVE",
"396 393 OFFCURVE",
"232 398 CURVE SMOOTH",
"173 400 OFFCURVE",
"136 426 OFFCURVE",
"127 477 CURVE",
"118 559 OFFCURVE",
"223 616 OFFCURVE",
"303 588 CURVE SMOOTH",
"347 573 OFFCURVE",
"371 533 OFFCURVE",
"361 474 CURVE",
"391 466 OFFCURVE",
"428 468 OFFCURVE",
"462 474 CURVE"
);
}
);
width = 485;
}
);
leftKerningGroup = S;
note = S;
rightKerningGroup = S;
unicode = 0053;
},
{
glyphname = T;
layers = (
{
hints = (
{
horizontal = 1;
place = "{-1, 21}";
target = up;
type = BottomGhost;
},
{
place = "{161, 121}";
type = Stem;
}
);
layerId = "95F3C079-8CB7-481A-B676-05495FEB06E6";
paths = (
{
closed = 1;
nodes = (
"295 710 OFFCURVE",
"146 705 OFFCURVE",
"10 704 CURVE",
"10 654 OFFCURVE",
"10 606 OFFCURVE",
"15 597 CURVE",
"24 595 OFFCURVE",
"132 596 OFFCURVE",
"161 588 CURVE",
"161 584 LINE SMOOTH",
"165 441 OFFCURVE",
"167 334 OFFCURVE",
"168 262 CURVE SMOOTH",
"169 190 OFFCURVE",
"169 135 OFFCURVE",
"168 95 CURVE SMOOTH",
"168 34 OFFCURVE",
"167 3 OFFCURVE",
"168 -1 CURVE",
"206 6 OFFCURVE",
"244 0 OFFCURVE",
"282 6 CURVE",
"282 8 LINE",
"277 244 OFFCURVE",
"276 374 OFFCURVE",
"275 446 CURVE",
"275 510 OFFCURVE",
"275 575 OFFCURVE",
"276 581 CURVE",
"277 585 OFFCURVE",
"277 589 OFFCURVE",
"276 593 CURVE",
"302 593 LINE SMOOTH",
"329 593 OFFCURVE",
"350 594 OFFCURVE",
"366 595 CURVE SMOOTH",
"394 596 OFFCURVE",
"413 595 OFFCURVE",
"428 592 CURVE",
"433 625 OFFCURVE",
"434 665 OFFCURVE",
"432 695 CURVE"
);
}
);
width = 443;
}
);
leftKerningGroup = T;
note = T;
rightKerningGroup = T;
unicode = 0054;
},
{
glyphname = U;
layers = (
{
hints = (
{
place = "{41, 96}";
type = Stem;
},
{
place = "{371, 98}";
type = Stem;
}
);
layerId = "95F3C079-8CB7-481A-B676-05495FEB06E6";
paths = (
{
closed = 1;
nodes = (
"449 681 OFFCURVE",
"402 674 OFFCURVE",
"371 671 CURVE",
"366 483 OFFCURVE",
"387 252 OFFCURVE",
"332 127 CURVE",
"309 90 OFFCURVE",
"262 77 OFFCURVE",
"215 90 CURVE",
"196 96 OFFCURVE",
"181 107 OFFCURVE",
"170 124 CURVE",
"129 234 OFFCURVE",
"130 354 OFFCURVE",
"137 623 CURVE SMOOTH",
"137 640 OFFCURVE",
"137 658 OFFCURVE",
"138 677 CURVE",
"109 683 OFFCURVE",
"70 680 OFFCURVE",
"41 680 CURVE SMOOTH",
"40 680 LINE",
"41 679 LINE",
"42 584 OFFCURVE",
"42 489 OFFCURVE",
"40 394 CURVE SMOOTH",
"38 311 OFFCURVE",
"38 232 OFFCURVE",
"40 157 CURVE SMOOTH",
"46 24 OFFCURVE",
"174 -25 OFFCURVE",
"293 -14 CURVE SMOOTH",
"388 -5 OFFCURVE",
"446 63 OFFCURVE",
"457 151 CURVE SMOOTH",
"476 323 OFFCURVE",
"477 498 OFFCURVE",
"469 669 CURVE"
);
}
);
width = 505;
}
);
leftKerningGroup = U;
note = U;
rightKerningGroup = U;
unicode = 0055;
},
{
glyphname = V;
layers = (
{
hints = (
{
horizontal = 1;
place = "{-2, 21}";
target = up;
type = BottomGhost;
}
);
layerId = "95F3C079-8CB7-481A-B676-05495FEB06E6";
paths = (
{
closed = 1;
nodes = (
"410 690 OFFCURVE",
"370 686 OFFCURVE",
"347 689 CURVE",
"347 689 OFFCURVE",
"346 689 OFFCURVE",
"346 688 CURVE",
"297 498 OFFCURVE",
"265 324 OFFCURVE",
"217 143 CURVE",
"149 376 OFFCURVE",
"127 626 OFFCURVE",
"113 691 CURVE",
"97 695 OFFCURVE",
"27 695 OFFCURVE",
"16 682 CURVE",
"16 681 LINE",
"56 417 OFFCURVE",
"83 256 OFFCURVE",
"161 4 CURVE",
"176 -2 OFFCURVE",
"199 -2 OFFCURVE",
"220 -2 CURVE SMOOTH",
"240 -2 OFFCURVE",
"257 1 OFFCURVE",
"265 1 CURVE",
"334 227 OFFCURVE",
"387 419 OFFCURVE",
"445 684 CURVE"
);
}
);
width = 440;
}
);
leftKerningGroup = V;
note = V;
rightKerningGroup = V;
unicode = 0056;
},
{
glyphname = W;
layers = (
{
hints = (
{
horizontal = 1;
place = "{2, 21}";
target = up;
type = BottomGhost;
},
{
horizontal = 1;
place = "{700, -20}";
target = down;
type = TopGhost;
}
);
layerId = "95F3C079-8CB7-481A-B676-05495FEB06E6";
paths = (
{
closed = 1;
nodes = (
"412 699 OFFCURVE",
"409 700 OFFCURVE",
"392 700 CURVE SMOOTH",
"379 700 OFFCURVE",
"363 699 OFFCURVE",
"346 695 CURVE",
"327 341 OFFCURVE",
"329 365 OFFCURVE",
"310 161 CURVE",
"307 170 OFFCURVE",
"302 183 OFFCURVE",
"298 200 CURVE",
"277 270 OFFCURVE",
"249 391 OFFCURVE",
"229 439 CURVE",
"222 422 OFFCURVE",
"172 194 OFFCURVE",
"165 167 CURVE",
"132 288 OFFCURVE",
"130 622 OFFCURVE",
"122 698 CURVE",
"107 699 OFFCURVE",
"89 700 OFFCURVE",
"71 700 CURVE",
"54 699 OFFCURVE",
"38 698 OFFCURVE",
"23 696 CURVE",
"23 688 LINE SMOOTH",
"23 457 OFFCURVE",
"64 233 OFFCURVE",
"96 5 CURVE",
"112 3 OFFCURVE",
"124 2 OFFCURVE",
"135 2 CURVE SMOOTH",
"154 2 OFFCURVE",
"167 4 OFFCURVE",
"184 7 CURVE",
"199 32 OFFCURVE",
"214 128 OFFCURVE",
"238 219 CURVE",
"263 121 OFFCURVE",
"269 59 OFFCURVE",
"298 3 CURVE",
"346 3 LINE SMOOTH",
"359 3 OFFCURVE",
"371 2 OFFCURVE",
"380 5 CURVE",
"399 237 OFFCURVE",
"426 465 OFFCURVE",
"446 696 CURVE"
);
}
);
width = 465;
}
);
leftKerningGroup = W;
note = W;
rightKerningGroup = W;
unicode = 0057;
},
{
glyphname = X;
layers = (
{
hints = (
{
horizontal = 1;
place = "{0, 21}";
target = up;
type = BottomGhost;
},
{
horizontal = 1;
place = "{700, -20}";
target = down;
type = TopGhost;
}
);
layerId = "95F3C079-8CB7-481A-B676-05495FEB06E6";
paths = (
{
closed = 1;
nodes = (
"439 699 OFFCURVE",
"440 699 OFFCURVE",
"440 700 CURVE",
"439 700 LINE SMOOTH",
"391 700 OFFCURVE",
"362 699 OFFCURVE",
"339 697 CURVE",
"339 696 LINE",
"309 623 OFFCURVE",
"269 516 OFFCURVE",
"225 434 CURVE",
"175 517 OFFCURVE",
"119 647 OFFCURVE",
"108 686 CURVE",
"105 691 OFFCURVE",
"98 691 OFFCURVE",
"75 691 CURVE SMOOTH",
"59 691 OFFCURVE",
"34 690 OFFCURVE",
"-1 689 CURVE",
"60 560 OFFCURVE",
"114 450 OFFCURVE",
"148 357 CURVE",
"62 137 OFFCURVE",
"31 89 OFFCURVE",
"7 5 CURVE",
"26 -1 OFFCURVE",
"50 0 OFFCURVE",
"70 1 CURVE",
"83 1 OFFCURVE",
"94 2 OFFCURVE",
"101 2 CURVE",
"140 79 OFFCURVE",
"151 124 OFFCURVE",
"225 285 CURVE",
"225 284 LINE",
"259 232 OFFCURVE",
"284 123 OFFCURVE",
"334 2 CURVE",
"344 0 OFFCURVE",
"355 0 OFFCURVE",
"367 0 CURVE SMOOTH",
"379 0 OFFCURVE",
"389 1 OFFCURVE",
"399 1 CURVE SMOOTH",
"407 1 OFFCURVE",
"415 2 OFFCURVE",
"424 2 CURVE",
"401 88 OFFCURVE",
"362 206 OFFCURVE",
"305 353 CURVE",
"392 562 OFFCURVE",
"409 599 OFFCURVE",
"439 698 CURVE"
);
}
);
width = 436;
}
);
leftKerningGroup = X;
note = X;
rightKerningGroup = X;
unicode = 0058;
},
{
glyphname = Y;
layers = (
{
hints = (
{
horizontal = 1;
place = "{-1, 21}";
target = up;
type = BottomGhost;
},
{
horizontal = 1;
place = "{696, -20}";
target = down;
type = TopGhost;
}
);
layerId = "95F3C079-8CB7-481A-B676-05495FEB06E6";
paths = (
{
closed = 1;
nodes = (
"450 693 LINE",
"442 694 OFFCURVE",
"426 695 OFFCURVE",
"416 694 CURVE",
"397 694 OFFCURVE",
"372 693 OFFCURVE",
"355 690 CURVE",
"337 648 OFFCURVE",
"299 532 OFFCURVE",
"240 409 CURVE",
"200 474 OFFCURVE",
"145 584 OFFCURVE",
"105 691 CURVE",
"95 695 OFFCURVE",
"85 696 OFFCURVE",
"74 696 CURVE",
"56 695 OFFCURVE",
"36 692 OFFCURVE",
"16 692 CURVE",
"40 596 OFFCURVE",
"107 486 OFFCURVE",
"142 401 CURVE",
"153 381 OFFCURVE",
"168 354 OFFCURVE",
"182 321 CURVE",
"145 228 OFFCURVE",
"101 118 OFFCURVE",
"56 -1 CURVE",
"58 -1 LINE",
"70 -1 LINE",
"87 -2 OFFCURVE",
"109 0 OFFCURVE",
"130 0 CURVE",
"141 1 OFFCURVE",
"150 1 OFFCURVE",
"156 0 CURVE",
"244 232 OFFCURVE",
"376 452 OFFCURVE",
"450 692 CURVE"
);
}
);
width = 435;
}
);
leftKerningGroup = Y;
note = Y;
rightKerningGroup = Y;
unicode = 0059;
},
{
glyphname = Z;
layers = (
{
hints = (
{
horizontal = 1;
place = "{-2, 21}";
target = up;
type = BottomGhost;
},
{
horizontal = 1;
place = "{-1, 107}";
type = Stem;
}
);
layerId = "95F3C079-8CB7-481A-B676-05495FEB06E6";
paths = (
{
closed = 1;
nodes = (
"452 599 LINE",
"451 628 OFFCURVE",
"455 661 OFFCURVE",
"451 694 CURVE",
"298 695 OFFCURVE",
"150 703 OFFCURVE",
"13 690 CURVE",
"13 685 OFFCURVE",
"14 680 OFFCURVE",
"14 677 CURVE SMOOTH",
"14 676 LINE",
"21 652 OFFCURVE",
"13 616 OFFCURVE",
"21 601 CURVE",
"43 601 OFFCURVE",
"82 602 OFFCURVE",
"123 600 CURVE SMOOTH",
"163 599 OFFCURVE",
"316 596 OFFCURVE",
"336 593 CURVE",
"265 484 OFFCURVE",
"122 264 OFFCURVE",
"30 103 CURVE",
"33 65 OFFCURVE",
"27 28 OFFCURVE",
"34 -1 CURVE",
"177 7 OFFCURVE",
"316 5 OFFCURVE",
"443 -2 CURVE",
"443 0 LINE",
"445 30 OFFCURVE",
"448 66 OFFCURVE",
"445 95 CURVE",
"445 106 LINE",
"253 105 OFFCURVE",
"275 104 OFFCURVE",
"143 98 CURVE",
"241 249 OFFCURVE",
"349 411 OFFCURVE",
"452 592 CURVE"
);
}
);
width = 474;
}
);
leftKerningGroup = Z;
note = Z;
rightKerningGroup = Z;
unicode = 005A;
},
{
glyphname = bracketleft;
layers = (
{
hints = (
{
horizontal = 1;
place = "{0, 21}";
target = up;
type = BottomGhost;
},
{
place = "{53, 241}";
type = Stem;
},
{
place = "{53, 89}";
type = Stem;
},
{
horizontal = 1;
place = "{-2, 21}";
target = up;
type = BottomGhost;
}
);
layerId = "95F3C079-8CB7-481A-B676-05495FEB06E6";
paths = (
{
closed = 1;
nodes = (
"229 0 OFFCURVE",
"262 1 OFFCURVE",
"294 1 CURVE",
"296 33 OFFCURVE",
"294 64 OFFCURVE",
"291 91 CURVE",
"253 94 OFFCURVE",
"234 92 OFFCURVE",
"142 101 CURVE",
"142 102 LINE SMOOTH",
"142 210 OFFCURVE",
"136 307 OFFCURVE",
"135 394 CURVE SMOOTH",
"134 445 OFFCURVE",
"136 522 OFFCURVE",
"142 622 CURVE",
"173 620 OFFCURVE",
"259 625 OFFCURVE",
"289 623 CURVE",
"292 623 LINE",
"296 644 OFFCURVE",
"296 676 OFFCURVE",
"297 706 CURVE",
"219 698 OFFCURVE",
"138 716 OFFCURVE",
"53 705 CURVE",
"53 704 LINE",
"37 476 OFFCURVE",
"46 227 OFFCURVE",
"43 2 CURVE SMOOTH",
"43 -2 LINE",
"72 1 OFFCURVE",
"163 0 OFFCURVE",
"197 0 CURVE SMOOTH"
);
}
);
width = 321;
}
);
note = bracketleft;
rightKerningGroup = bracketleft;
unicode = 005B;
},
{
glyphname = bracketright;
layers = (
{
hints = (
{
horizontal = 1;
place = "{0, 21}";
target = up;
type = BottomGhost;
},
{
place = "{179, 99}";
type = Stem;
},
{
horizontal = 1;
place = "{-2, 21}";
target = up;
type = BottomGhost;
}
);
layerId = "95F3C079-8CB7-481A-B676-05495FEB06E6";
paths = (
{
closed = 1;
nodes = (
"59 1 OFFCURVE",
"92 0 OFFCURVE",
"124 0 CURVE SMOOTH",
"158 0 OFFCURVE",
"249 1 OFFCURVE",
"278 -2 CURVE",
"278 2 LINE",
"274 227 OFFCURVE",
"284 476 OFFCURVE",
"268 704 CURVE",
"268 705 LINE",
"183 716 OFFCURVE",
"102 698 OFFCURVE",
"24 706 CURVE",
"24 676 OFFCURVE",
"24 644 OFFCURVE",
"29 623 CURVE",
"32 623 LINE",
"59 625 OFFCURVE",
"104 620 OFFCURVE",
"151 621 CURVE SMOOTH",
"163 621 OFFCURVE",
"172 621 OFFCURVE",
"178 622 CURVE",
"179 622 LINE",
"185 519 OFFCURVE",
"186 439 OFFCURVE",
"185 386 CURVE SMOOTH",
"184 301 OFFCURVE",
"179 208 OFFCURVE",
"179 102 CURVE SMOOTH",
"179 101 LINE",
"87 92 OFFCURVE",
"67 94 OFFCURVE",
"29 91 CURVE",
"26 64 OFFCURVE",
"25 33 OFFCURVE",
"27 1 CURVE"
);
}
);
width = 321;
}
);
leftKerningGroup = bracketright;
note = bracketright;
unicode = 005D;
},
{
glyphname = exclam;
layers = (
{
hints = (
{
horizontal = 1;
place = "{1, 21}";
target = up;
type = BottomGhost;
},
{
place = "{70, 88}";
type = Stem;
}
);
layerId = "95F3C079-8CB7-481A-B676-05495FEB06E6";
paths = (
{
closed = 1;
nodes = (
"70 702 LINE",
"59 520 OFFCURVE",
"70 346 OFFCURVE",
"67 170 CURVE",
"68 170 LINE SMOOTH",
"99 171 OFFCURVE",
"129 171 OFFCURVE",
"158 175 CURVE",
"150 346 OFFCURVE",
"154 533 OFFCURVE",
"157 704 CURVE",
"127 711 OFFCURVE",
"100 705 OFFCURVE",
"73 702 CURVE"
);
},
{
closed = 1;
nodes = (
"121 1 LINE",
"122 1 LINE",
"147 1 LINE",
"154 1 LINE",
"154 40 OFFCURVE",
"156 84 OFFCURVE",
"157 121 CURVE",
"127 121 OFFCURVE",
"95 129 OFFCURVE",
"71 119 CURVE",
"71 118 LINE SMOOTH",
"71 81 OFFCURVE",
"59 1 OFFCURVE",
"68 1 CURVE SMOOTH"
);
}
);
width = 217;
}
);
note = exclam;
unicode = 0021;
},
{
glyphname = dollar;
layers = (
{
hints = (
{
horizontal = 1;
place = "{-95, 183}";
type = Stem;
},
{
place = "{28, 88}";
type = Stem;
},
{
place = "{318, 108}";
type = Stem;
}
);
layerId = "95F3C079-8CB7-481A-B676-05495FEB06E6";
paths = (
{
closed = 1;
nodes = (
"233 364 OFFCURVE",
"150 384 OFFCURVE",
"133 480 CURVE SMOOTH",
"127 513 OFFCURVE",
"143 555 OFFCURVE",
"217 570 CURVE",
"272 575 OFFCURVE",
"315 550 OFFCURVE",
"321 520 CURVE SMOOTH",
"332 466 OFFCURVE",
"325 450 OFFCURVE",
"352 449 CURVE",
"373 449 OFFCURVE",
"426 441 OFFCURVE",
"426 468 CURVE SMOOTH",
"426 530 OFFCURVE",
"417 596 OFFCURVE",
"340 634 CURVE",
"333 637 OFFCURVE",
"275 649 OFFCURVE",
"275 665 CURVE",
"274 738 LINE",
"257 749 OFFCURVE",
"173 747 OFFCURVE",
"175 735 CURVE",
"180 667 LINE",
"180 660 OFFCURVE",
"184 656 OFFCURVE",
"177 653 CURVE",
"65 626 OFFCURVE",
"28 568 OFFCURVE",
"28 507 CURVE SMOOTH",
"28 428 OFFCURVE",
"76 365 OFFCURVE",
"146 324 CURVE SMOOTH",
"199 293 OFFCURVE",
"323 272 OFFCURVE",
"318 167 CURVE SMOOTH",
"316 118 OFFCURVE",
"282 88 OFFCURVE",
"233 88 CURVE SMOOTH",
"83 87 OFFCURVE",
"116 170 OFFCURVE",
"116 234 CURVE SMOOTH",
"116 243 OFFCURVE",
"37 238 OFFCURVE",
"36 238 CURVE",
"20 233 OFFCURVE",
"20 219 OFFCURVE",
"20 191 CURVE SMOOTH",
"20 109 OFFCURVE",
"12 42 OFFCURVE",
"147 9 CURVE",
"212 -4 OFFCURVE",
"161 -95 OFFCURVE",
"183 -95 CURVE SMOOTH",
"275 -96 OFFCURVE",
"278 -100 OFFCURVE",
"276 -69 CURVE",
"276 -65 LINE",
"277 6 LINE",
"279 6 OFFCURVE",
"286 8 OFFCURVE",
"299 12 CURVE",
"394 45 OFFCURVE",
"422 102 OFFCURVE",
"422 160 CURVE SMOOTH",
"422 241 OFFCURVE",
"381 307 OFFCURVE",
"308 335 CURVE SMOOTH"
);
}
);
width = 445;
}
);
note = dollar;
unicode = 0024;
},
{
glyphname = parenleft;
layers = (
{
hints = (
{
horizontal = 1;
place = "{0, 90}";
type = Stem;
},
{
horizontal = 1;
place = "{711, -20}";
target = down;
type = TopGhost;
},
{
place = "{38, 92}";
type = Stem;
}
);
layerId = "95F3C079-8CB7-481A-B676-05495FEB06E6";
paths = (
{
closed = 1;
nodes = (
"145 13 OFFCURVE",
"187 1 OFFCURVE",
"228 0 CURVE SMOOTH",
"245 0 LINE SMOOTH",
"260 0 OFFCURVE",
"279 -2 OFFCURVE",
"287 9 CURVE",
"288 34 OFFCURVE",
"288 67 OFFCURVE",
"289 93 CURVE",
"269 90 LINE",
"201 87 OFFCURVE",
"158 122 OFFCURVE",
"137 184 CURVE SMOOTH",
"125 222 OFFCURVE",
"128 290 OFFCURVE",
"130 381 CURVE",
"133 422 OFFCURVE",
"136 467 OFFCURVE",
"141 517 CURVE SMOOTH",
"151 606 OFFCURVE",
"238 608 OFFCURVE",
"285 622 CURVE",
"287 645 OFFCURVE",
"290 673 OFFCURVE",
"286 704 CURVE",
"285 705 LINE",
"262 707 OFFCURVE",
"235 710 OFFCURVE",
"212 711 CURVE",
"152 710 OFFCURVE",
"94 684 OFFCURVE",
"62 621 CURVE",
"30 568 OFFCURVE",
"41 502 OFFCURVE",
"38 444 CURVE",
"38 420 LINE SMOOTH",
"38 352 OFFCURVE",
"35 274 OFFCURVE",
"32 203 CURVE",
"35 160 OFFCURVE",
"47 86 OFFCURVE",
"108 41 CURVE SMOOTH"
);
}
);
width = 314;
}
);
note = parenleft;
rightKerningGroup = parenleft;
unicode = 0028;
},
{
glyphname = parenright;
layers = (
{
hints = (
{
horizontal = 1;
place = "{0, 90}";
type = Stem;
},
{
horizontal = 1;
place = "{711, -20}";
target = down;
type = TopGhost;
},
{
place = "{184, 98}";
type = Stem;
}
);
layerId = "95F3C079-8CB7-481A-B676-05495FEB06E6";
paths = (
{
closed = 1;
nodes = (
"267 86 OFFCURVE",
"278 160 OFFCURVE",
"282 203 CURVE",
"279 274 OFFCURVE",
"276 352 OFFCURVE",
"276 420 CURVE SMOOTH",
"276 444 LINE",
"273 502 OFFCURVE",
"284 568 OFFCURVE",
"252 621 CURVE",
"219 684 OFFCURVE",
"162 710 OFFCURVE",
"102 711 CURVE",
"79 710 OFFCURVE",
"52 707 OFFCURVE",
"29 705 CURVE",
"28 704 LINE",
"24 673 OFFCURVE",
"27 645 OFFCURVE",
"29 622 CURVE",
"78 607 OFFCURVE",
"163 606 OFFCURVE",
"173 517 CURVE SMOOTH",
"178 467 OFFCURVE",
"181 422 OFFCURVE",
"184 381 CURVE",
"186 290 OFFCURVE",
"189 222 OFFCURVE",
"177 184 CURVE SMOOTH",
"156 122 OFFCURVE",
"113 87 OFFCURVE",
"45 90 CURVE",
"25 93 LINE",
"25 67 OFFCURVE",
"25 34 OFFCURVE",
"27 9 CURVE",
"35 -2 OFFCURVE",
"54 0 OFFCURVE",
"69 0 CURVE SMOOTH",
"86 0 LINE SMOOTH",
"127 1 OFFCURVE",
"169 13 OFFCURVE",
"206 41 CURVE SMOOTH"
);
}
);
width = 313;
}
);
leftKerningGroup = parenright;
note = parenright;
unicode = 0029;
},
{
glyphname = plus;
layers = (
{
hints = (
{
horizontal = 1;
place = "{113, 21}";
target = up;
type = BottomGhost;
},
{
horizontal = 1;
place = "{267, 98}";
type = Stem;
},
{
horizontal = 1;
place = "{524, -20}";
target = down;
type = TopGhost;
},
{
place = "{173, 102}";
type = Stem;
}
);
layerId = "95F3C079-8CB7-481A-B676-05495FEB06E6";
paths = (
{
closed = 1;
nodes = (
"171 115 OFFCURVE",
"194 113 OFFCURVE",
"224 113 CURVE",
"249 112 OFFCURVE",
"270 112 OFFCURVE",
"270 116 CURVE SMOOTH",
"270 118 LINE SMOOTH",
"270 128 OFFCURVE",
"274 155 OFFCURVE",
"275 192 CURVE SMOOTH",
"279 261 OFFCURVE",
"250 267 OFFCURVE",
"343 267 CURVE SMOOTH",
"386 267 OFFCURVE",
"414 267 OFFCURVE",
"419 270 CURVE",
"423 303 OFFCURVE",
"421 332 OFFCURVE",
"423 368 CURVE",
"390 374 OFFCURVE",
"308 369 OFFCURVE",
"279 372 CURVE",
"277 377 OFFCURVE",
"277 443 OFFCURVE",
"277 493 CURVE SMOOTH",
"277 520 LINE",
"257 522 OFFCURVE",
"189 515 OFFCURVE",
"180 524 CURVE",
"174 482 OFFCURVE",
"173 470 OFFCURVE",
"173 371 CURVE",
"170 370 OFFCURVE",
"149 368 OFFCURVE",
"105 365 CURVE SMOOTH",
"55 363 OFFCURVE",
"24 360 OFFCURVE",
"20 361 CURVE",
"20 355 OFFCURVE",
"25 292 OFFCURVE",
"23 275 CURVE",
"23 270 OFFCURVE",
"151 262 OFFCURVE",
"161 262 CURVE SMOOTH",
"163 262 LINE",
"166 260 OFFCURVE",
"166 225 OFFCURVE",
"166 217 CURVE SMOOTH",
"166 183 LINE SMOOTH",
"166 155 OFFCURVE",
"164 142 OFFCURVE",
"167 117 CURVE",
"167 114 OFFCURVE",
"168 115 OFFCURVE",
"168 114 CURVE"
);
}
);
width = 445;
}
);
note = plus;
unicode = 002B;
},
{
glyphname = hyphen;
layers = (
{
hints = (
{
horizontal = 1;
place = "{237, 105}";
type = Stem;
},
{
horizontal = 1;
place = "{230, 21}";
target = up;
type = BottomGhost;
}
);
layerId = "95F3C079-8CB7-481A-B676-05495FEB06E6";
paths = (
{
closed = 1;
nodes = (
"121 236 OFFCURVE",
"399 231 OFFCURVE",
"484 230 CURVE SMOOTH",
"485 230 LINE",
"480 267 OFFCURVE",
"483 305 OFFCURVE",
"482 342 CURVE",
"39 342 LINE",
"39 331 OFFCURVE",
"36 259 OFFCURVE",
"36 237 CURVE"
);
}
);
width = 521;
}
);
leftKerningGroup = hyphen;
note = hyphen;
rightKerningGroup = hyphen;
unicode = 002D;
},
{
glyphname = slash;
layers = (
{
hints = (
{
horizontal = 1;
place = "{-1, 21}";
target = up;
type = BottomGhost;
},
{
place = "{40, 331}";
type = Stem;
}
);
layerId = "95F3C079-8CB7-481A-B676-05495FEB06E6";
paths = (
{
closed = 1;
nodes = (
"185 151 LINE SMOOTH",
"257 330 OFFCURVE",
"357 651 OFFCURVE",
"365 683 CURVE",
"368 691 OFFCURVE",
"368 694 OFFCURVE",
"371 701 CURVE",
"351 711 OFFCURVE",
"313 704 OFFCURVE",
"283 709 CURVE",
"267 648 OFFCURVE",
"253 607 OFFCURVE",
"233 550 CURVE SMOOTH",
"141 269 OFFCURVE",
"124 249 OFFCURVE",
"98 168 CURVE",
"82 133 OFFCURVE",
"73 98 OFFCURVE",
"55 51 CURVE",
"47 27 OFFCURVE",
"38 3 OFFCURVE",
"40 -1 CURVE",
"112 1 OFFCURVE",
"126 -3 OFFCURVE",
"129 7 CURVE"
);
}
);
width = 412;
}
);
leftKerningGroup = slash;
note = slash;
rightKerningGroup = slash;
unicode = 002F;
},
{
glyphname = question;
layers = (
{
hints = (
{
horizontal = 1;
place = "{0, 21}";
target = up;
type = BottomGhost;
},
{
horizontal = 1;
place = "{498, 209}";
type = Stem;
},
{
horizontal = 1;
place = "{606, 101}";
type = Stem;
}
);
layerId = "95F3C079-8CB7-481A-B676-05495FEB06E6";
paths = (
{
closed = 1;
nodes = (
"185 223 OFFCURVE",
"185 213 OFFCURVE",
"184 202 CURVE",
"184 194 OFFCURVE",
"183 184 OFFCURVE",
"186 177 CURVE",
"187 177 LINE",
"213 178 OFFCURVE",
"242 175 OFFCURVE",
"270 179 CURVE",
"270 180 LINE",
"268 188 OFFCURVE",
"270 201 OFFCURVE",
"272 218 CURVE SMOOTH",
"279 265 OFFCURVE",
"294 297 OFFCURVE",
"323 336 CURVE SMOOTH",
"360 387 OFFCURVE",
"420 427 OFFCURVE",
"430 511 CURVE SMOOTH",
"444 630 OFFCURVE",
"336 718 OFFCURVE",
"213 707 CURVE",
"99 702 OFFCURVE",
"21 600 OFFCURVE",
"16 499 CURVE",
"16 498 LINE",
"46 497 OFFCURVE",
"75 494 OFFCURVE",
"102 496 CURVE",
"119 529 OFFCURVE",
"132 608 OFFCURVE",
"210 606 CURVE",
"291 612 OFFCURVE",
"337 564 OFFCURVE",
"326 502 CURVE SMOOTH",
"317 459 OFFCURVE",
"291 423 OFFCURVE",
"255 381 CURVE",
"213 328 OFFCURVE",
"195 291 OFFCURVE",
"186 234 CURVE"
);
},
{
closed = 1;
nodes = (
"187 0 LINE",
"259 0 LINE",
"261 0 LINE",
"261 2 LINE SMOOTH",
"261 21 OFFCURVE",
"267 117 OFFCURVE",
"267 119 CURVE",
"249 124 OFFCURVE",
"205 125 OFFCURVE",
"183 116 CURVE",
"183 97 OFFCURVE",
"179 30 OFFCURVE",
"184 0 CURVE"
);
}
);
width = 451;
}
);
leftKerningGroup = question;
note = question;
unicode = 003F;
},
{
glyphname = zero;
layers = (
{
hints = (
{
horizontal = 1;
place = "{2, 102}";
type = Stem;
},
{
horizontal = 1;
place = "{609, 101}";
type = Stem;
},
{
place = "{32, 96}";
type = Stem;
},
{
place = "{381, 107}";
type = Stem;
}
);
layerId = "95F3C079-8CB7-481A-B676-05495FEB06E6";
paths = (
{
closed = 1;
nodes = (
"23 527 OFFCURVE",
"27 417 OFFCURVE",
"32 315 CURVE SMOOTH",
"35 196 OFFCURVE",
"39 65 OFFCURVE",
"174 15 CURVE SMOOTH",
"194 7 OFFCURVE",
"217 3 OFFCURVE",
"244 2 CURVE SMOOTH",
"432 -10 OFFCURVE",
"496 216 OFFCURVE",
"488 373 CURVE",
"498 508 OFFCURVE",
"438 717 OFFCURVE",
"247 710 CURVE SMOOTH",
"179 707 OFFCURVE",
"113 671 OFFCURVE",
"82 618 CURVE"
);
},
{
closed = 1;
nodes = (
"134 108 OFFCURVE",
"129 255 OFFCURVE",
"128 334 CURVE SMOOTH",
"127 364 OFFCURVE",
"128 396 OFFCURVE",
"129 432 CURVE",
"130 447 OFFCURVE",
"131 459 OFFCURVE",
"133 471 CURVE",
"133 492 OFFCURVE",
"138 609 OFFCURVE",
"265 609 CURVE",
"351 597 OFFCURVE",
"379 500 OFFCURVE",
"381 427 CURVE SMOOTH",
"384 375 OFFCURVE",
"382 342 OFFCURVE",
"381 311 CURVE SMOOTH",
"380 290 OFFCURVE",
"395 145 OFFCURVE",
"287 108 CURVE SMOOTH",
"274 104 OFFCURVE",
"259 103 OFFCURVE",
"244 104 CURVE SMOOTH"
);
}
);
width = 513;
}
);
leftKerningGroup = zero;
note = zero;
rightKerningGroup = zero;
unicode = 0030;
},
{
glyphname = one;
layers = (
{
hints = (
{
horizontal = 1;
place = "{2, 21}";
target = up;
type = BottomGhost;
},
{
horizontal = 1;
place = "{711, -20}";
target = down;
type = TopGhost;
},
{
place = "{185, 98}";
type = Stem;
}
);
layerId = "95F3C079-8CB7-481A-B676-05495FEB06E6";
paths = (
{
closed = 1;
nodes = (
"283 88 LINE SMOOTH",
"283 241 OFFCURVE",
"295 389 OFFCURVE",
"292 542 CURVE",
"292 598 OFFCURVE",
"293 653 OFFCURVE",
"289 710 CURVE",
"260 711 OFFCURVE",
"234 712 OFFCURVE",
"209 712 CURVE SMOOTH",
"186 712 OFFCURVE",
"166 711 OFFCURVE",
"147 711 CURVE",
"143 707 OFFCURVE",
"54 572 OFFCURVE",
"12 480 CURVE",
"12 470 OFFCURVE",
"90 452 OFFCURVE",
"97 452 CURVE SMOOTH",
"125 452 OFFCURVE",
"172 577 OFFCURVE",
"184 574 CURVE",
"185 567 OFFCURVE",
"185 563 OFFCURVE",
"185 556 CURVE SMOOTH",
"185 526 LINE SMOOTH",
"184 334 OFFCURVE",
"175 237 OFFCURVE",
"174 104 CURVE SMOOTH",
"174 6 LINE",
"194 3 OFFCURVE",
"219 2 OFFCURVE",
"241 2 CURVE SMOOTH",
"258 2 OFFCURVE",
"280 3 OFFCURVE",
"283 11 CURVE"
);
}
);
width = 336;
}
);
leftKerningGroup = one;
note = one;
unicode = 0031;
},
{
glyphname = two;
layers = (
{
hints = (
{
horizontal = 1;
place = "{-1, 21}";
target = up;
type = BottomGhost;
},
{
place = "{369, 104}";
type = Stem;
}
);
layerId = "95F3C079-8CB7-481A-B676-05495FEB06E6";
paths = (
{
closed = 1;
nodes = (
"76 -1 LINE SMOOTH",
"123 0 OFFCURVE",
"460 3 OFFCURVE",
"460 5 CURVE",
"452 34 OFFCURVE",
"465 66 OFFCURVE",
"452 104 CURVE",
"401 102 OFFCURVE",
"347 99 OFFCURVE",
"285 99 CURVE SMOOTH",
"236 99 OFFCURVE",
"194 100 OFFCURVE",
"157 101 CURVE",
"133 114 OFFCURVE",
"193 176 OFFCURVE",
"213 197 CURVE SMOOTH",
"301 284 OFFCURVE",
"461 295 OFFCURVE",
"473 436 CURVE",
"477 544 OFFCURVE",
"460 648 OFFCURVE",
"373 693 CURVE",
"301 722 OFFCURVE",
"140 720 OFFCURVE",
"87 651 CURVE",
"38 596 OFFCURVE",
"21 512 OFFCURVE",
"37 420 CURVE",
"38 418 LINE",
"72 414 OFFCURVE",
"102 416 OFFCURVE",
"139 422 CURVE",
"140 424 LINE",
"141 430 OFFCURVE",
"140 442 OFFCURVE",
"139 460 CURVE SMOOTH",
"137 517 OFFCURVE",
"158 594 OFFCURVE",
"223 602 CURVE",
"289 607 OFFCURVE",
"378 622 OFFCURVE",
"369 449 CURVE SMOOTH",
"367 418 OFFCURVE",
"346 390 OFFCURVE",
"306 369 CURVE",
"232 321 OFFCURVE",
"142 274 OFFCURVE",
"80 206 CURVE",
"26 138 OFFCURVE",
"33 75 OFFCURVE",
"30 2 CURVE",
"30 1 OFFCURVE",
"30 0 OFFCURVE",
"31 -1 CURVE"
);
}
);
width = 498;
}
);
note = two;
unicode = 0032;
},
{
glyphname = three;
layers = (
{
hints = (
{
horizontal = 1;
place = "{105, 214}";
type = Stem;
},
{
place = "{28, 93}";
type = Stem;
},
{
place = "{353, 99}";
type = Stem;
},
{
horizontal = 1;
place = "{319, 96}";
type = Stem;
}
);
layerId = "95F3C079-8CB7-481A-B676-05495FEB06E6";
paths = (
{
closed = 1;
nodes = (
"76 37 OFFCURVE",
"118 12 OFFCURVE",
"172 4 CURVE SMOOTH",
"280 -12 OFFCURVE",
"391 4 OFFCURVE",
"435 104 CURVE SMOOTH",
"451 140 OFFCURVE",
"449 180 OFFCURVE",
"452 220 CURVE",
"456 328 OFFCURVE",
"457 438 OFFCURVE",
"454 551 CURVE",
"455 576 OFFCURVE",
"452 601 OFFCURVE",
"440 623 CURVE SMOOTH",
"371 743 OFFCURVE",
"80 743 OFFCURVE",
"32 582 CURVE",
"21 553 OFFCURVE",
"28 516 OFFCURVE",
"28 489 CURVE SMOOTH",
"28 487 LINE",
"31 487 OFFCURVE",
"90 487 OFFCURVE",
"121 489 CURVE",
"119 563 OFFCURVE",
"152 584 OFFCURVE",
"196 597 CURVE SMOOTH",
"218 604 OFFCURVE",
"246 607 OFFCURVE",
"278 603 CURVE",
"321 601 OFFCURVE",
"350 577 OFFCURVE",
"353 525 CURVE SMOOTH",
"358 450 OFFCURVE",
"347 419 OFFCURVE",
"315 416 CURVE SMOOTH",
"299 415 OFFCURVE",
"276 415 OFFCURVE",
"245 415 CURVE SMOOTH",
"208 416 OFFCURVE",
"179 416 OFFCURVE",
"165 411 CURVE",
"165 410 LINE",
"166 403 OFFCURVE",
"165 388 OFFCURVE",
"164 368 CURVE SMOOTH",
"163 348 OFFCURVE",
"164 329 OFFCURVE",
"170 316 CURVE",
"186 317 OFFCURVE",
"212 319 OFFCURVE",
"244 319 CURVE SMOOTH",
"336 320 OFFCURVE",
"368 286 OFFCURVE",
"347 177 CURVE",
"341 126 OFFCURVE",
"296 105 OFFCURVE",
"237 105 CURVE SMOOTH",
"124 103 OFFCURVE",
"126 209 OFFCURVE",
"120 223 CURVE",
"118 224 LINE",
"88 224 OFFCURVE",
"60 216 OFFCURVE",
"30 219 CURVE",
"29 219 LINE SMOOTH",
"28 219 OFFCURVE",
"28 219 OFFCURVE",
"28 218 CURVE",
"33 144 OFFCURVE",
"29 85 OFFCURVE",
"70 44 CURVE"
);
}
);
width = 492;
}
);
note = three;
unicode = 0033;
},
{
glyphname = four;
layers = (
{
hints = (
{
horizontal = 1;
place = "{-3, 21}";
target = up;
type = BottomGhost;
},
{
horizontal = 1;
place = "{226, 99}";
type = Stem;
},
{
horizontal = 1;
place = "{704, -20}";
target = down;
type = TopGhost;
},
{
place = "{276, 108}";
type = Stem;
},
{
place = "{302, 82}";
type = Stem;
}
);
layerId = "95F3C079-8CB7-481A-B676-05495FEB06E6";
paths = (
{
closed = 1;
nodes = (
"389 325 OFFCURVE",
"387 324 OFFCURVE",
"385 324 CURVE",
"384 328 OFFCURVE",
"384 336 OFFCURVE",
"384 349 CURVE SMOOTH",
"384 410 LINE SMOOTH",
"385 527 OFFCURVE",
"392 699 OFFCURVE",
"392 704 CURVE",
"390 704 LINE",
"384 704 LINE",
"375 705 OFFCURVE",
"271 703 OFFCURVE",
"271 702 CURVE",
"170 556 OFFCURVE",
"100 441 OFFCURVE",
"16 327 CURVE",
"12 280 OFFCURVE",
"17 244 OFFCURVE",
"20 229 CURVE",
"22 226 OFFCURVE",
"62 226 OFFCURVE",
"107 226 CURVE SMOOTH",
"136 227 OFFCURVE",
"174 227 OFFCURVE",
"209 227 CURVE SMOOTH",
"271 228 OFFCURVE",
"271 227 OFFCURVE",
"278 225 CURVE",
"276 176 LINE SMOOTH",
"272 90 OFFCURVE",
"264 9 OFFCURVE",
"267 -3 CURVE",
"334 -3 OFFCURVE",
"367 -3 OFFCURVE",
"373 4 CURVE",
"374 5 OFFCURVE",
"380 145 OFFCURVE",
"383 200 CURVE SMOOTH",
"384 212 OFFCURVE",
"385 219 OFFCURVE",
"385 218 CURVE",
"409 219 OFFCURVE",
"430 216 OFFCURVE",
"446 221 CURVE",
"452 323 LINE",
"440 323 OFFCURVE",
"416 326 OFFCURVE",
"391 325 CURVE"
);
},
{
closed = 1;
nodes = (
"299 502 OFFCURVE",
"297 413 OFFCURVE",
"295 324 CURVE",
"289 323 OFFCURVE",
"271 323 OFFCURVE",
"243 322 CURVE",
"175 322 LINE",
"155 323 OFFCURVE",
"107 323 OFFCURVE",
"110 324 CURVE",
"111 326 OFFCURVE",
"129 353 OFFCURVE",
"159 396 CURVE SMOOTH",
"273 553 OFFCURVE",
"298 602 OFFCURVE",
"302 591 CURVE"
);
}
);
width = 469;
}
);
leftKerningGroup = four;
note = four;
rightKerningGroup = four;
unicode = 0034;
},
{
glyphname = five;
layers = (
{
hints = (
{
horizontal = 1;
place = "{218, 155}";
type = Stem;
},
{
place = "{37, 105}";
type = Stem;
}
);
layerId = "95F3C079-8CB7-481A-B676-05495FEB06E6";
paths = (
{
closed = 1;
nodes = (
"142 218 LINE",
"109 217 OFFCURVE",
"76 217 OFFCURVE",
"43 216 CURVE",
"43 214 LINE",
"39 193 OFFCURVE",
"37 173 OFFCURVE",
"37 156 CURVE SMOOTH",
"33 -69 OFFCURVE",
"430 -52 OFFCURVE",
"470 134 CURVE",
"488 270 OFFCURVE",
"484 456 OFFCURVE",
"298 475 CURVE SMOOTH",
"255 479 OFFCURVE",
"207 478 OFFCURVE",
"150 471 CURVE",
"149 471 LINE",
"147 473 LINE",
"143 479 OFFCURVE",
"144 503 OFFCURVE",
"142 540 CURVE SMOOTH",
"141 576 OFFCURVE",
"139 592 OFFCURVE",
"139 594 CURVE SMOOTH",
"139 595 LINE",
"140 597 LINE",
"186 597 OFFCURVE",
"425 599 OFFCURVE",
"462 605 CURVE",
"462 605 OFFCURVE",
"466 699 OFFCURVE",
"463 702 CURVE",
"437 706 OFFCURVE",
"50 696 OFFCURVE",
"37 696 CURVE SMOOTH",
"36 696 LINE",
"36 578 OFFCURVE",
"32 453 OFFCURVE",
"40 371 CURVE",
"40 369 OFFCURVE",
"73 369 OFFCURVE",
"85 369 CURVE",
"114 371 OFFCURVE",
"156 372 OFFCURVE",
"205 373 CURVE SMOOTH",
"314 378 OFFCURVE",
"366 355 OFFCURVE",
"372 250 CURVE SMOOTH",
"376 183 OFFCURVE",
"349 106 OFFCURVE",
"256 99 CURVE SMOOTH",
"148 93 OFFCURVE",
"142 146 OFFCURVE",
"142 217 CURVE SMOOTH"
);
}
);
width = 503;
}
);
note = five;
unicode = 0035;
},
{
glyphname = six;
layers = (
{
hints = (
{
horizontal = 1;
place = "{93, 191}";
type = Stem;
},
{
horizontal = 1;
place = "{604, 104}";
type = Stem;
},
{
place = "{38, 105}";
type = Stem;
}
);
layerId = "95F3C079-8CB7-481A-B676-05495FEB06E6";
paths = (
{
closed = 1;
nodes = (
"470 288 OFFCURVE",
"444 333 OFFCURVE",
"376 354 CURVE",
"287 377 OFFCURVE",
"176 339 OFFCURVE",
"145 286 CURVE",
"145 287 LINE SMOOTH",
"146 318 OFFCURVE",
"142 353 OFFCURVE",
"143 408 CURVE",
"142 468 OFFCURVE",
"130 594 OFFCURVE",
"256 604 CURVE",
"285 604 OFFCURVE",
"323 604 OFFCURVE",
"336 592 CURVE SMOOTH",
"372 559 OFFCURVE",
"366 504 OFFCURVE",
"368 482 CURVE",
"370 481 LINE",
"399 481 OFFCURVE",
"431 479 OFFCURVE",
"460 485 CURVE",
"489 592 OFFCURVE",
"415 711 OFFCURVE",
"289 708 CURVE SMOOTH",
"194 708 OFFCURVE",
"86 665 OFFCURVE",
"51 585 CURVE",
"39 565 OFFCURVE",
"42 527 OFFCURVE",
"38 489 CURVE",
"26 291 OFFCURVE",
"17 31 OFFCURVE",
"197 -1 CURVE",
"344 -17 OFFCURVE",
"497 44 OFFCURVE",
"481 203 CURVE",
"480 207 OFFCURVE",
"480 211 OFFCURVE",
"480 215 CURVE"
);
},
{
closed = 1;
nodes = (
"397 204 LINE SMOOTH",
"397 152 OFFCURVE",
"370 97 OFFCURVE",
"276 93 CURVE SMOOTH",
"219 90 OFFCURVE",
"176 138 OFFCURVE",
"182 185 CURVE",
"187 247 OFFCURVE",
"245 284 OFFCURVE",
"309 284 CURVE SMOOTH",
"350 284 OFFCURVE",
"397 254 OFFCURVE",
"397 209 CURVE SMOOTH"
);
}
);
width = 503;
}
);
leftKerningGroup = six;
note = six;
unicode = 0036;
},
{
glyphname = seven;
layers = (
{
hints = (
{
horizontal = 1;
place = "{612, 95}";
type = Stem;
}
);
layerId = "95F3C079-8CB7-481A-B676-05495FEB06E6";
paths = (
{
closed = 1;
nodes = (
"26 610 LINE",
"43 611 OFFCURVE",
"63 611 OFFCURVE",
"84 612 CURVE",
"116 612 OFFCURVE",
"160 611 OFFCURVE",
"211 610 CURVE SMOOTH",
"272 610 LINE",
"336 607 LINE",
"298 529 OFFCURVE",
"146 183 OFFCURVE",
"59 6 CURVE",
"89 -2 OFFCURVE",
"133 7 OFFCURVE",
"168 7 CURVE",
"264 196 OFFCURVE",
"334 311 OFFCURVE",
"462 606 CURVE",
"462 641 OFFCURVE",
"460 668 OFFCURVE",
"462 704 CURVE",
"462 705 LINE",
"331 718 OFFCURVE",
"166 710 OFFCURVE",
"27 707 CURVE",
"27 706 LINE SMOOTH",
"26 676 OFFCURVE",
"26 641 OFFCURVE",
"24 610 CURVE"
);
}
);
width = 476;
}
);
leftKerningGroup = seven;
note = seven;
rightKerningGroup = seven;
unicode = 0037;
},
{
glyphname = eight;
layers = (
{
hints = (
{
horizontal = 1;
place = "{302, 98}";
type = Stem;
},
{
horizontal = 1;
place = "{514, -20}";
target = down;
type = TopGhost;
},
{
place = "{356, 107}";
type = Stem;
}
);
layerId = "95F3C079-8CB7-481A-B676-05495FEB06E6";
paths = (
{
closed = 1;
nodes = (
"463 523 LINE",
"462 543 OFFCURVE",
"453 600 OFFCURVE",
"436 630 CURVE",
"383 714 OFFCURVE",
"328 712 OFFCURVE",
"200 708 CURVE SMOOTH",
"35 700 OFFCURVE",
"-17 460 OFFCURVE",
"87 352 CURVE",
"5 273 OFFCURVE",
"7 136 OFFCURVE",
"70 57 CURVE",
"134 -31 OFFCURVE",
"338 -35 OFFCURVE",
"406 45 CURVE SMOOTH",
"478 125 OFFCURVE",
"485 273 OFFCURVE",
"386 345 CURVE",
"386 346 LINE",
"434 385 OFFCURVE",
"463 436 OFFCURVE",
"463 495 CURVE SMOOTH"
);
},
{
closed = 1;
nodes = (
"139 514 LINE",
"153 587 OFFCURVE",
"220 607 OFFCURVE",
"275 601 CURVE SMOOTH",
"324 595 OFFCURVE",
"358 559 OFFCURVE",
"356 510 CURVE SMOOTH",
"355 475 OFFCURVE",
"351 395 OFFCURVE",
"241 400 CURVE SMOOTH",
"155 405 OFFCURVE",
"131 459 OFFCURVE",
"138 513 CURVE",
"138 514 LINE"
);
},
{
closed = 1;
nodes = (
"347 138 OFFCURVE",
"333 119 OFFCURVE",
"290 108 CURVE",
"214 95 OFFCURVE",
"147 108 OFFCURVE",
"129 181 CURVE SMOOTH",
"119 227 OFFCURVE",
"138 301 OFFCURVE",
"246 302 CURVE",
"330 296 OFFCURVE",
"364 247 OFFCURVE",
"360 196 CURVE",
"359 189 OFFCURVE",
"357 182 OFFCURVE",
"356 175 CURVE"
);
}
);
width = 490;
}
);
note = eight;
unicode = 0038;
},
{
glyphname = nine;
layers = (
{
hints = (
{
horizontal = 1;
place = "{286, 92}";
type = Stem;
},
{
place = "{361, 115}";
type = Stem;
},
{
place = "{138, 223}";
type = Stem;
}
);
layerId = "95F3C079-8CB7-481A-B676-05495FEB06E6";
paths = (
{
closed = 1;
nodes = (
"475 372 OFFCURVE",
"475 422 OFFCURVE",
"474 471 CURVE SMOOTH",
"473 539 OFFCURVE",
"471 606 OFFCURVE",
"440 653 CURVE SMOOTH",
"400 715 OFFCURVE",
"324 706 OFFCURVE",
"256 709 CURVE",
"165 705 OFFCURVE",
"89 675 OFFCURVE",
"44 598 CURVE",
"20 540 OFFCURVE",
"21 434 OFFCURVE",
"59 378 CURVE SMOOTH",
"101 313 OFFCURVE",
"165 282 OFFCURVE",
"264 286 CURVE SMOOTH",
"297 287 OFFCURVE",
"329 300 OFFCURVE",
"361 324 CURVE",
"362 323 LINE",
"362 307 OFFCURVE",
"361 291 OFFCURVE",
"361 277 CURVE SMOOTH",
"361 217 LINE SMOOTH",
"360 165 OFFCURVE",
"343 125 OFFCURVE",
"294 108 CURVE SMOOTH",
"217 81 OFFCURVE",
"115 113 OFFCURVE",
"102 224 CURVE",
"78 224 OFFCURVE",
"53 222 OFFCURVE",
"30 222 CURVE",
"30 217 LINE",
"23 166 OFFCURVE",
"31 123 OFFCURVE",
"54 89 CURVE SMOOTH",
"123 -12 OFFCURVE",
"343 -43 OFFCURVE",
"427 57 CURVE",
"454 96 OFFCURVE",
"470 143 OFFCURVE",
"477 192 CURVE SMOOTH",
"482 236 OFFCURVE",
"477 279 OFFCURVE",
"476 323 CURVE SMOOTH"
);
},
{
closed = 1;
nodes = (
"361 417 OFFCURVE",
"318 375 OFFCURVE",
"253 378 CURVE SMOOTH",
"212 380 OFFCURVE",
"170 400 OFFCURVE",
"151 441 CURVE",
"151 442 LINE",
"143 465 OFFCURVE",
"140 493 OFFCURVE",
"138 519 CURVE",
"138 600 OFFCURVE",
"249 622 OFFCURVE",
"317 598 CURVE SMOOTH",
"359 584 OFFCURVE",
"374 540 OFFCURVE",
"372 500 CURVE",
"372 490 OFFCURVE",
"372 481 OFFCURVE",
"370 474 CURVE"
);
}
);
width = 513;
}
);
note = nine;
unicode = 0039;
},
{
glyphname = braceleft;
layers = (
{
hints = (
{
place = "{125, 75}";
type = Stem;
}
);
layerId = "95F3C079-8CB7-481A-B676-05495FEB06E6";
paths = (
{
closed = 1;
nodes = (
"294 24 OFFCURVE",
"293 50 OFFCURVE",
"292 69 CURVE",
"196 80 OFFCURVE",
"202 116 OFFCURVE",
"200 150 CURVE",
"189 214 OFFCURVE",
"211 287 OFFCURVE",
"136 344 CURVE",
"211 385 OFFCURVE",
"201 455 OFFCURVE",
"200 508 CURVE",
"193 633 OFFCURVE",
"243 601 OFFCURVE",
"290 617 CURVE",
"292 632 OFFCURVE",
"293 653 OFFCURVE",
"289 678 CURVE",
"257 681 OFFCURVE",
"231 680 OFFCURVE",
"192 676 CURVE",
"142 668 OFFCURVE",
"115 616 OFFCURVE",
"126 562 CURVE",
"128 527 OFFCURVE",
"128 496 OFFCURVE",
"125 473 CURVE",
"120 417 OFFCURVE",
"88 369 OFFCURVE",
"15 377 CURVE",
"11 358 OFFCURVE",
"9 334 OFFCURVE",
"13 309 CURVE",
"14 308 OFFCURVE",
"17 308 OFFCURVE",
"21 308 CURVE",
"95 312 OFFCURVE",
"121 254 OFFCURVE",
"125 186 CURVE SMOOTH",
"127 157 OFFCURVE",
"126 130 OFFCURVE",
"123 108 CURVE",
"120 48 OFFCURVE",
"182 -12 OFFCURVE",
"292 1 CURVE"
);
}
);
width = 318;
}
);
note = braceleft;
rightKerningGroup = braceleft;
unicode = 007B;
},
{
glyphname = braceright;
layers = (
{
hints = (
{
horizontal = 1;
place = "{308, 69}";
type = Stem;
},
{
place = "{25, 166}";
type = Stem;
},
{
place = "{28, 165.36}";
type = Stem;
}
);
layerId = "95F3C079-8CB7-481A-B676-05495FEB06E6";
paths = (
{
closed = 1;
nodes = (
"135 -12 OFFCURVE",
"197 48 OFFCURVE",
"194 108 CURVE",
"191 130 OFFCURVE",
"189 157 OFFCURVE",
"191 186 CURVE SMOOTH",
"196 256 OFFCURVE",
"221 312 OFFCURVE",
"296 308 CURVE",
"300 308 OFFCURVE",
"303 308 OFFCURVE",
"304 309 CURVE",
"308 334 OFFCURVE",
"306 358 OFFCURVE",
"302 377 CURVE",
"229 369 OFFCURVE",
"197 417 OFFCURVE",
"192 473 CURVE",
"189 496 OFFCURVE",
"188 527 OFFCURVE",
"191 562 CURVE",
"202 616 OFFCURVE",
"175 668 OFFCURVE",
"125 676 CURVE",
"86 680 OFFCURVE",
"60 681 OFFCURVE",
"28 678 CURVE",
"24 653 OFFCURVE",
"25 632 OFFCURVE",
"27 617 CURVE",
"72 603 OFFCURVE",
"124 633 OFFCURVE",
"117 508 CURVE",
"116 455 OFFCURVE",
"106 385 OFFCURVE",
"181 344 CURVE",
"105 287 OFFCURVE",
"129 214 OFFCURVE",
"117 150 CURVE",
"115 116 OFFCURVE",
"121 80 OFFCURVE",
"25 69 CURVE",
"24 50 OFFCURVE",
"23 24 OFFCURVE",
"25 1 CURVE"
);
}
);
width = 318;
}
);
leftKerningGroup = braceright;
note = braceright;
unicode = 007D;
},
{
glyphname = Euro;
layers = (
{
hints = (
{
horizontal = 1;
place = "{1, 106}";
type = Stem;
},
{
horizontal = 1;
place = "{270, 212}";
type = Stem;
},
{
horizontal = 1;
place = "{614, 95}";
type = Stem;
},
{
place = "{31, 111}";
type = Stem;
},
{
horizontal = 1;
place = "{270, 79}";
type = Stem;
}
);
layerId = "95F3C079-8CB7-481A-B676-05495FEB06E6";
paths = (
{
closed = 1;
nodes = (
"232 2 OFFCURVE",
"238 2 OFFCURVE",
"244 1 CURVE",
"321 -2 OFFCURVE",
"383 -5 OFFCURVE",
"459 7 CURVE",
"464 37 OFFCURVE",
"458 72 OFFCURVE",
"459 106 CURVE SMOOTH",
"459 107 LINE",
"428 109 OFFCURVE",
"402 109 OFFCURVE",
"380 110 CURVE SMOOTH",
"353 111 OFFCURVE",
"319 111 OFFCURVE",
"282 114 CURVE SMOOTH",
"222 118 OFFCURVE",
"150 135 OFFCURVE",
"142 270 CURVE",
"192 273 OFFCURVE",
"244 268 OFFCURVE",
"317 274 CURVE",
"318 294 OFFCURVE",
"319 323 OFFCURVE",
"315 347 CURVE",
"286 349 OFFCURVE",
"254 349 OFFCURVE",
"211 349 CURVE SMOOTH",
"137 349 LINE",
"134 361 OFFCURVE",
"135 378 OFFCURVE",
"135 400 CURVE",
"136 400 LINE",
"159 401 OFFCURVE",
"260 388 OFFCURVE",
"317 407 CURVE",
"317 408 LINE",
"318 429 OFFCURVE",
"319 455 OFFCURVE",
"317 478 CURVE",
"317 479 LINE",
"300 484 OFFCURVE",
"265 483 OFFCURVE",
"218 482 CURVE SMOOTH",
"158 480 LINE",
"154 480 LINE",
"171 624 OFFCURVE",
"306 613 OFFCURVE",
"384 614 CURVE SMOOTH",
"408 614 OFFCURVE",
"431 613 OFFCURVE",
"452 612 CURVE",
"453 613 OFFCURVE",
"453 614 OFFCURVE",
"453 615 CURVE",
"455 643 OFFCURVE",
"454 679 OFFCURVE",
"453 708 CURVE",
"452 709 LINE",
"269 702 OFFCURVE",
"47 744 OFFCURVE",
"31 471 CURVE",
"27 267 OFFCURVE",
"6 44 OFFCURVE",
"226 3 CURVE SMOOTH"
);
}
);
width = 490;
}
);
note = Euro;
unicode = 20AC;
},
{
glyphname = plusminus;
layers = (
{
hints = (
{
horizontal = 1;
place = "{30, 21}";
target = up;
type = BottomGhost;
},
{
horizontal = 1;
place = "{409, 98}";
type = Stem;
},
{
horizontal = 1;
place = "{665, -20}";
target = down;
type = TopGhost;
},
{
place = "{199, 102}";
type = Stem;
},
{
horizontal = 1;
place = "{37, 105}";
type = Stem;
}
);
layerId = "95F3C079-8CB7-481A-B676-05495FEB06E6";
paths = (
{
closed = 1;
nodes = (
"197 256 OFFCURVE",
"220 255 OFFCURVE",
"250 254 CURVE SMOOTH",
"275 254 OFFCURVE",
"296 254 OFFCURVE",
"296 257 CURVE SMOOTH",
"296 259 LINE SMOOTH",
"296 270 OFFCURVE",
"300 297 OFFCURVE",
"301 334 CURVE SMOOTH",
"305 402 OFFCURVE",
"276 409 OFFCURVE",
"369 409 CURVE SMOOTH",
"412 409 OFFCURVE",
"440 409 OFFCURVE",
"445 412 CURVE",
"449 445 OFFCURVE",
"447 473 OFFCURVE",
"449 510 CURVE",
"416 516 OFFCURVE",
"334 510 OFFCURVE",
"305 514 CURVE",
"303 518 OFFCURVE",
"303 584 OFFCURVE",
"303 635 CURVE SMOOTH",
"303 661 LINE",
"283 664 OFFCURVE",
"215 656 OFFCURVE",
"206 665 CURVE",
"200 623 OFFCURVE",
"199 612 OFFCURVE",
"199 513 CURVE",
"196 512 OFFCURVE",
"175 509 OFFCURVE",
"131 507 CURVE SMOOTH",
"81 505 OFFCURVE",
"50 502 OFFCURVE",
"46 503 CURVE",
"46 497 OFFCURVE",
"51 434 OFFCURVE",
"49 417 CURVE",
"49 411 OFFCURVE",
"177 404 OFFCURVE",
"187 404 CURVE SMOOTH",
"189 404 LINE",
"192 401 OFFCURVE",
"192 367 OFFCURVE",
"192 358 CURVE SMOOTH",
"192 325 LINE SMOOTH",
"192 296 OFFCURVE",
"190 284 OFFCURVE",
"193 258 CURVE",
"193 255 OFFCURVE",
"194 256 OFFCURVE",
"194 255 CURVE"
);
},
{
closed = 1;
nodes = (
"111 36 OFFCURVE",
"389 31 OFFCURVE",
"474 30 CURVE SMOOTH",
"475 30 LINE",
"470 67 OFFCURVE",
"473 105 OFFCURVE",
"472 142 CURVE",
"29 142 LINE",
"29 131 OFFCURVE",
"26 59 OFFCURVE",
"26 37 CURVE"
);
}
);
width = 501;
}
);
note = plusminus;
unicode = 00B1;
},
{
glyphname = Agrave;
layers = (
{
hints = (
{
horizontal = 1;
place = "{168, 81}";
type = Stem;
},
{
horizontal = 1;
place = "{910, -20}";
target = down;
type = TopGhost;
}
);
layerId = "95F3C079-8CB7-481A-B676-05495FEB06E6";
paths = (
{
closed = 1;
nodes = (
"98 893 OFFCURVE",
"80 875 OFFCURVE",
"63 857 CURVE",
"72 853 OFFCURVE",
"168 760 OFFCURVE",
"175 749 CURVE",
"214 744 OFFCURVE",
"260 748 OFFCURVE",
"274 752 CURVE",
"228 795 OFFCURVE",
"154 874 OFFCURVE",
"115 910 CURVE"
);
},
{
closed = 1;
nodes = (
"437 1 LINE",
"411 118 OFFCURVE",
"387 234 OFFCURVE",
"362 351 CURVE SMOOTH",
"346 418 OFFCURVE",
"293 654 OFFCURVE",
"280 705 CURVE",
"189 697 OFFCURVE",
"183 703 OFFCURVE",
"161 700 CURVE",
"52 387 OFFCURVE",
"10 29 OFFCURVE",
"4 2 CURVE",
"4 1 LINE",
"15 1 LINE SMOOTH",
"64 2 OFFCURVE",
"87 -1 OFFCURVE",
"96 1 CURVE SMOOTH",
"116 5 OFFCURVE",
"131 143 OFFCURVE",
"138 170 CURVE",
"197 169 OFFCURVE",
"240 171 OFFCURVE",
"301 168 CURVE",
"325 93 OFFCURVE",
"331 47 OFFCURVE",
"347 2 CURVE",
"348 2 LINE",
"355 0 OFFCURVE",
"363 -1 OFFCURVE",
"371 -2 CURVE",
"385 -5 OFFCURVE",
"408 -5 OFFCURVE",
"437 0 CURVE"
);
},
{
closed = 1;
nodes = (
"253 248 OFFCURVE",
"215 248 OFFCURVE",
"189 248 CURVE",
"164 249 OFFCURVE",
"146 248 OFFCURVE",
"137 249 CURVE",
"199 582 OFFCURVE",
"198 587 OFFCURVE",
"236 575 CURVE",
"243 568 OFFCURVE",
"265 462 OFFCURVE",
"303 249 CURVE"
);
}
);
width = 434;
}
);
leftKerningGroup = A;
note = Agrave;
rightKerningGroup = A;
unicode = 00C0;
},
{
glyphname = Aacute;
layers = (
{
hints = (
{
horizontal = 1;
place = "{168, 80}";
type = Stem;
},
{
horizontal = 1;
place = "{911, -20}";
target = down;
type = TopGhost;
}
);
layerId = "95F3C079-8CB7-481A-B676-05495FEB06E6";
paths = (
{
closed = 1;
nodes = (
"349 876 OFFCURVE",
"332 894 OFFCURVE",
"315 911 CURVE",
"275 876 OFFCURVE",
"202 796 OFFCURVE",
"155 753 CURVE",
"169 749 OFFCURVE",
"215 745 OFFCURVE",
"255 750 CURVE",
"263 764 OFFCURVE",
"357 853 OFFCURVE",
"366 858 CURVE"
);
},
{
closed = 1;
nodes = (
"437 0 LINE",
"408 -5 OFFCURVE",
"385 -5 OFFCURVE",
"371 -2 CURVE",
"363 -1 OFFCURVE",
"355 0 OFFCURVE",
"348 2 CURVE",
"347 2 LINE",
"331 47 OFFCURVE",
"325 93 OFFCURVE",
"301 168 CURVE",
"240 171 OFFCURVE",
"197 169 OFFCURVE",
"138 170 CURVE",
"131 143 OFFCURVE",
"116 5 OFFCURVE",
"96 1 CURVE SMOOTH",
"87 -1 OFFCURVE",
"64 2 OFFCURVE",
"15 1 CURVE SMOOTH",
"4 1 LINE",
"4 2 LINE",
"12 29 OFFCURVE",
"52 387 OFFCURVE",
"161 700 CURVE",
"183 703 OFFCURVE",
"189 697 OFFCURVE",
"280 705 CURVE",
"335 464 OFFCURVE",
"390 220 OFFCURVE",
"437 1 CURVE"
);
},
{
closed = 1;
nodes = (
"265 462 OFFCURVE",
"240 575 OFFCURVE",
"236 575 CURVE",
"195 578 OFFCURVE",
"199 582 OFFCURVE",
"137 249 CURVE",
"146 248 OFFCURVE",
"164 249 OFFCURVE",
"189 248 CURVE",
"215 248 OFFCURVE",
"253 248 OFFCURVE",
"303 249 CURVE"
);
}
);
width = 434;
}
);
leftKerningGroup = A;
note = Aacute;
rightKerningGroup = A;
unicode = 00C1;
},
{
glyphname = Acircumflex;
layers = (
{
hints = (
{
horizontal = 1;
place = "{916, -20}";
target = down;
type = TopGhost;
}
);
layerId = "95F3C079-8CB7-481A-B676-05495FEB06E6";
paths = (
{
closed = 1;
nodes = (
"220 916 LINE",
"159 859 OFFCURVE",
"113 822 OFFCURVE",
"59 754 CURVE",
"124 751 OFFCURVE",
"124 750 OFFCURVE",
"142 752 CURVE",
"162 758 OFFCURVE",
"213 825 OFFCURVE",
"220 828 CURVE",
"225 825 OFFCURVE",
"237 813 OFFCURVE",
"246 801 CURVE",
"269 779 LINE SMOOTH",
"287 761 OFFCURVE",
"298 750 OFFCURVE",
"302 750 CURVE",
"347 748 OFFCURVE",
"379 757 OFFCURVE",
"382 755 CURVE"
);
},
{
closed = 1;
nodes = (
"437 1 LINE",
"390 220 OFFCURVE",
"335 464 OFFCURVE",
"280 705 CURVE",
"189 697 OFFCURVE",
"183 703 OFFCURVE",
"161 700 CURVE",
"52 387 OFFCURVE",
"12 29 OFFCURVE",
"4 2 CURVE",
"4 1 LINE",
"15 1 LINE SMOOTH",
"64 2 OFFCURVE",
"87 -1 OFFCURVE",
"96 1 CURVE SMOOTH",
"116 5 OFFCURVE",
"131 143 OFFCURVE",
"138 170 CURVE",
"197 169 OFFCURVE",
"240 171 OFFCURVE",
"301 168 CURVE",
"325 93 OFFCURVE",
"331 47 OFFCURVE",
"347 2 CURVE",
"348 2 LINE",
"355 0 OFFCURVE",
"363 -1 OFFCURVE",
"371 -2 CURVE",
"385 -5 OFFCURVE",
"408 -5 OFFCURVE",
"437 0 CURVE"
);
},
{
closed = 1;
nodes = (
"253 248 OFFCURVE",
"215 248 OFFCURVE",
"189 248 CURVE",
"164 249 OFFCURVE",
"146 248 OFFCURVE",
"137 249 CURVE",
"199 582 OFFCURVE",
"198 587 OFFCURVE",
"236 575 CURVE",
"243 568 OFFCURVE",
"265 462 OFFCURVE",
"303 249 CURVE"
);
}
);
width = 434;
}
);
leftKerningGroup = A;
note = Acircumflex;
rightKerningGroup = A;
unicode = 00C2;
},
{
glyphname = Atilde;
layers = (
{
hints = (
{
horizontal = 1;
place = "{-2, 21}";
target = up;
type = BottomGhost;
},
{
horizontal = 1;
place = "{168, 81}";
type = Stem;
},
{
horizontal = 1;
place = "{578.1, 126.9}";
type = Stem;
},
{
horizontal = 1;
place = "{854, 66.8}";
type = Stem;
},
{
place = "{359, 60.5}";
type = Stem;
},
{
horizontal = 1;
place = "{751, 162}";
type = Stem;
}
);
layerId = "95F3C079-8CB7-481A-B676-05495FEB06E6";
paths = (
{
closed = 1;
nodes = (
"97 756 LINE",
"96 813 OFFCURVE",
"126 848 OFFCURVE",
"166 854 CURVE SMOOTH",
"191 857 OFFCURVE",
"205 848 OFFCURVE",
"219 814 CURVE",
"239 751 OFFCURVE",
"282 744 OFFCURVE",
"325 751 CURVE SMOOTH",
"391 762 OFFCURVE",
"425 837 OFFCURVE",
"420 899 CURVE",
"420 904 OFFCURVE",
"419 907 OFFCURVE",
"419 912 CURVE",
"418 913 LINE",
"398 912 OFFCURVE",
"378 912 OFFCURVE",
"359 911 CURVE",
"360 876 OFFCURVE",
"349 830 OFFCURVE",
"307 817 CURVE SMOOTH",
"258 803 OFFCURVE",
"240 885 OFFCURVE",
"212 905 CURVE",
"169 933 OFFCURVE",
"112 922 OFFCURVE",
"77 886 CURVE SMOOTH",
"51 858 OFFCURVE",
"25 785 OFFCURVE",
"17 757 CURVE",
"30 757 OFFCURVE",
"42 758 OFFCURVE",
"53 758 CURVE SMOOTH",
"69 758 OFFCURVE",
"87 757 OFFCURVE",
"97 755 CURVE"
);
},
{
closed = 1;
nodes = (
"437 1 LINE",
"411 118 OFFCURVE",
"387 234 OFFCURVE",
"362 351 CURVE SMOOTH",
"346 418 OFFCURVE",
"293 654 OFFCURVE",
"280 705 CURVE",
"189 697 OFFCURVE",
"183 703 OFFCURVE",
"161 700 CURVE",
"52 387 OFFCURVE",
"12 29 OFFCURVE",
"4 2 CURVE",
"4 1 LINE",
"15 1 LINE SMOOTH",
"64 2 OFFCURVE",
"87 -1 OFFCURVE",
"96 1 CURVE SMOOTH",
"116 5 OFFCURVE",
"131 143 OFFCURVE",
"138 170 CURVE",
"197 169 OFFCURVE",
"240 171 OFFCURVE",
"301 168 CURVE",
"325 93 OFFCURVE",
"331 47 OFFCURVE",
"347 2 CURVE",
"348 2 LINE",
"355 0 OFFCURVE",
"363 -1 OFFCURVE",
"371 -2 CURVE",
"385 -5 OFFCURVE",
"408 -5 OFFCURVE",
"437 0 CURVE"
);
},
{
closed = 1;
nodes = (
"253 248 OFFCURVE",
"215 248 OFFCURVE",
"189 248 CURVE",
"164 249 OFFCURVE",
"146 248 OFFCURVE",
"137 249 CURVE",
"199 582 OFFCURVE",
"198 587 OFFCURVE",
"236 575 CURVE",
"243 568 OFFCURVE",
"265 462 OFFCURVE",
"303 249 CURVE"
);
}
);
width = 434;
}
);
leftKerningGroup = A;
note = Atilde;
rightKerningGroup = A;
unicode = 00C3;
},
{
glyphname = Egrave;
layers = (
{
hints = (
{
horizontal = 1;
place = "{3, 90}";
type = Stem;
},
{
horizontal = 1;
place = "{298, 96}";
type = Stem;
},
{
horizontal = 1;
place = "{596, 93}";
type = Stem;
},
{
horizontal = 1;
place = "{910, -20}";
target = down;
type = TopGhost;
},
{
place = "{45, 98}";
type = Stem;
}
);
layerId = "95F3C079-8CB7-481A-B676-05495FEB06E6";
paths = (
{
closed = 1;
nodes = (
"155 893 OFFCURVE",
"137 875 OFFCURVE",
"120 857 CURVE",
"129 853 OFFCURVE",
"225 760 OFFCURVE",
"232 749 CURVE",
"271 744 OFFCURVE",
"317 748 OFFCURVE",
"331 752 CURVE",
"285 795 OFFCURVE",
"211 874 OFFCURVE",
"172 910 CURVE"
);
},
{
closed = 1;
nodes = (
"460 88 LINE",
"361 85 OFFCURVE",
"308 94 OFFCURVE",
"144 93 CURVE",
"143 94 LINE",
"144 189 OFFCURVE",
"139 254 OFFCURVE",
"146 293 CURVE",
"150 296 OFFCURVE",
"167 297 OFFCURVE",
"196 298 CURVE SMOOTH",
"289 300 OFFCURVE",
"266 298 OFFCURVE",
"321 303 CURVE",
"320 326 OFFCURVE",
"323 355 OFFCURVE",
"319 390 CURVE",
"319 391 LINE",
"261 394 OFFCURVE",
"237 391 OFFCURVE",
"142 394 CURVE",
"141 395 LINE",
"135 416 OFFCURVE",
"136 452 OFFCURVE",
"139 504 CURVE SMOOTH",
"142 548 OFFCURVE",
"143 579 OFFCURVE",
"142 595 CURVE",
"146 596 LINE",
"207 600 OFFCURVE",
"252 599 OFFCURVE",
"277 599 CURVE SMOOTH",
"332 599 LINE SMOOTH",
"376 599 OFFCURVE",
"416 601 OFFCURVE",
"459 604 CURVE",
"459 614 LINE SMOOTH",
"459 641 OFFCURVE",
"463 668 OFFCURVE",
"460 695 CURVE",
"460 701 OFFCURVE",
"201 697 OFFCURVE",
"46 689 CURVE",
"33 460 OFFCURVE",
"45 237 OFFCURVE",
"45 5 CURVE",
"174 -6 OFFCURVE",
"319 4 OFFCURVE",
"455 3 CURVE",
"461 29 OFFCURVE",
"461 59 OFFCURVE",
"460 86 CURVE"
);
}
);
width = 481;
}
);
note = Egrave;
rightKerningGroup = E;
unicode = 00C8;
},
{
glyphname = Eacute;
layers = (
{
hints = (
{
horizontal = 1;
place = "{3, 90}";
type = Stem;
},
{
horizontal = 1;
place = "{298, 96}";
type = Stem;
},
{
horizontal = 1;
place = "{599, 90}";
type = Stem;
},
{
horizontal = 1;
place = "{911, -20}";
target = down;
type = TopGhost;
},
{
place = "{45, 94}";
type = Stem;
}
);
layerId = "95F3C079-8CB7-481A-B676-05495FEB06E6";
paths = (
{
closed = 1;
nodes = (
"349 876 OFFCURVE",
"332 894 OFFCURVE",
"315 911 CURVE",
"275 876 OFFCURVE",
"202 796 OFFCURVE",
"155 753 CURVE",
"169 749 OFFCURVE",
"215 745 OFFCURVE",
"255 750 CURVE",
"263 764 OFFCURVE",
"357 853 OFFCURVE",
"366 858 CURVE"
);
},
{
closed = 1;
nodes = (
"460 86 LINE",
"461 59 OFFCURVE",
"461 29 OFFCURVE",
"455 3 CURVE",
"319 4 OFFCURVE",
"174 -6 OFFCURVE",
"45 5 CURVE",
"45 237 OFFCURVE",
"33 460 OFFCURVE",
"46 689 CURVE",
"201 697 OFFCURVE",
"460 701 OFFCURVE",
"460 695 CURVE",
"463 668 OFFCURVE",
"459 641 OFFCURVE",
"459 614 CURVE SMOOTH",
"459 604 LINE",
"416 601 OFFCURVE",
"376 599 OFFCURVE",
"332 599 CURVE SMOOTH",
"277 599 LINE SMOOTH",
"252 599 OFFCURVE",
"207 600 OFFCURVE",
"146 596 CURVE",
"142 595 LINE",
"143 579 OFFCURVE",
"142 548 OFFCURVE",
"139 504 CURVE SMOOTH",
"136 452 OFFCURVE",
"135 416 OFFCURVE",
"141 395 CURVE",
"142 394 LINE",
"237 391 OFFCURVE",
"261 394 OFFCURVE",
"319 391 CURVE",
"319 390 LINE",
"323 355 OFFCURVE",
"320 326 OFFCURVE",
"321 303 CURVE",
"266 298 OFFCURVE",
"289 300 OFFCURVE",
"196 298 CURVE SMOOTH",
"167 297 OFFCURVE",
"150 296 OFFCURVE",
"146 293 CURVE",
"139 254 OFFCURVE",
"144 189 OFFCURVE",
"143 94 CURVE",
"144 93 LINE",
"308 94 OFFCURVE",
"361 85 OFFCURVE",
"460 88 CURVE"
);
}
);
width = 481;
}
);
note = Eacute;
rightKerningGroup = E;
unicode = 00C9;
},
{
glyphname = Ecircumflex;
layers = (
{
hints = (
{
horizontal = 1;
place = "{3, 90}";
type = Stem;
},
{
horizontal = 1;
place = "{394, 202}";
type = Stem;
},
{
horizontal = 1;
place = "{689, 65}";
type = Stem;
},
{
horizontal = 1;
place = "{916, -20}";
target = down;
type = TopGhost;
},
{
place = "{45, 98}";
type = Stem;
},
{
horizontal = 1;
place = "{298, 96}";
type = Stem;
}
);
layerId = "95F3C079-8CB7-481A-B676-05495FEB06E6";
paths = (
{
closed = 1;
nodes = (
"251 916 LINE",
"190 859 OFFCURVE",
"144 822 OFFCURVE",
"90 754 CURVE",
"155 751 OFFCURVE",
"155 750 OFFCURVE",
"173 752 CURVE",
"193 758 OFFCURVE",
"244 825 OFFCURVE",
"251 828 CURVE",
"256 825 OFFCURVE",
"268 813 OFFCURVE",
"277 801 CURVE",
"300 779 LINE SMOOTH",
"318 761 OFFCURVE",
"329 750 OFFCURVE",
"333 750 CURVE",
"378 748 OFFCURVE",
"410 757 OFFCURVE",
"413 755 CURVE"
);
},
{
closed = 1;
nodes = (
"460 88 LINE",
"361 85 OFFCURVE",
"308 94 OFFCURVE",
"144 93 CURVE",
"143 94 LINE",
"144 189 OFFCURVE",
"139 254 OFFCURVE",
"146 293 CURVE",
"150 296 OFFCURVE",
"167 297 OFFCURVE",
"196 298 CURVE SMOOTH",
"289 300 OFFCURVE",
"266 298 OFFCURVE",
"321 303 CURVE",
"320 326 OFFCURVE",
"323 355 OFFCURVE",
"319 390 CURVE",
"319 391 LINE",
"261 394 OFFCURVE",
"237 391 OFFCURVE",
"142 394 CURVE",
"141 395 LINE",
"135 416 OFFCURVE",
"136 452 OFFCURVE",
"139 504 CURVE SMOOTH",
"142 548 OFFCURVE",
"143 579 OFFCURVE",
"142 595 CURVE",
"146 596 LINE",
"207 600 OFFCURVE",
"252 599 OFFCURVE",
"277 599 CURVE SMOOTH",
"332 599 LINE SMOOTH",
"376 599 OFFCURVE",
"416 601 OFFCURVE",
"459 604 CURVE",
"459 614 LINE SMOOTH",
"459 641 OFFCURVE",
"463 668 OFFCURVE",
"460 695 CURVE",
"460 701 OFFCURVE",
"201 697 OFFCURVE",
"46 689 CURVE",
"33 460 OFFCURVE",
"45 237 OFFCURVE",
"45 5 CURVE",
"174 -6 OFFCURVE",
"319 4 OFFCURVE",
"455 3 CURVE",
"461 29 OFFCURVE",
"461 59 OFFCURVE",
"460 86 CURVE"
);
}
);
width = 481;
}
);
note = Ecircumflex;
rightKerningGroup = E;
unicode = 00CA;
},
{
glyphname = Ugrave;
layers = (
{
hints = (
{
horizontal = 1;
place = "{910, -20}";
target = down;
type = TopGhost;
},
{
place = "{41, 96}";
type = Stem;
},
{
place = "{371, 98}";
type = Stem;
}
);
layerId = "95F3C079-8CB7-481A-B676-05495FEB06E6";
paths = (
{
closed = 1;
nodes = (
"140 893 OFFCURVE",
"123 875 OFFCURVE",
"106 857 CURVE",
"115 853 OFFCURVE",
"210 760 OFFCURVE",
"217 749 CURVE",
"257 744 OFFCURVE",
"303 748 OFFCURVE",
"317 752 CURVE",
"270 795 OFFCURVE",
"197 874 OFFCURVE",
"157 910 CURVE"
);
},
{
closed = 1;
nodes = (
"449 681 OFFCURVE",
"402 674 OFFCURVE",
"371 671 CURVE",
"366 483 OFFCURVE",
"387 252 OFFCURVE",
"332 127 CURVE",
"309 90 OFFCURVE",
"262 77 OFFCURVE",
"215 90 CURVE",
"196 96 OFFCURVE",
"181 107 OFFCURVE",
"170 124 CURVE",
"129 234 OFFCURVE",
"130 354 OFFCURVE",
"137 623 CURVE SMOOTH",
"137 640 OFFCURVE",
"137 658 OFFCURVE",
"138 677 CURVE",
"109 683 OFFCURVE",
"70 680 OFFCURVE",
"41 680 CURVE SMOOTH",
"40 680 LINE",
"41 679 LINE",
"42 584 OFFCURVE",
"42 489 OFFCURVE",
"40 394 CURVE SMOOTH",
"38 311 OFFCURVE",
"38 232 OFFCURVE",
"40 157 CURVE SMOOTH",
"46 24 OFFCURVE",
"174 -25 OFFCURVE",
"293 -14 CURVE SMOOTH",
"388 -5 OFFCURVE",
"446 63 OFFCURVE",
"457 151 CURVE SMOOTH",
"476 323 OFFCURVE",
"477 498 OFFCURVE",
"469 669 CURVE"
);
}
);
width = 505;
}
);
leftKerningGroup = U;
note = Ugrave;
rightKerningGroup = U;
unicode = 00D9;
},
{
glyphname = Uacute;
layers = (
{
hints = (
{
horizontal = 1;
place = "{-16, 101}";
type = Stem;
},
{
horizontal = 1;
place = "{911, -20}";
target = down;
type = TopGhost;
},
{
place = "{40, 93}";
type = Stem;
},
{
place = "{371, 103}";
type = Stem;
}
);
layerId = "95F3C079-8CB7-481A-B676-05495FEB06E6";
paths = (
{
closed = 1;
nodes = (
"393 876 OFFCURVE",
"376 894 OFFCURVE",
"359 911 CURVE",
"319 876 OFFCURVE",
"246 796 OFFCURVE",
"199 753 CURVE",
"213 749 OFFCURVE",
"259 745 OFFCURVE",
"299 750 CURVE",
"307 764 OFFCURVE",
"401 853 OFFCURVE",
"410 858 CURVE"
);
},
{
closed = 1;
nodes = (
"472 605 OFFCURVE",
"474 540 OFFCURVE",
"474 476 CURVE SMOOTH",
"474 368 OFFCURVE",
"470 258 OFFCURVE",
"457 151 CURVE SMOOTH",
"445 50 OFFCURVE",
"375 -16 OFFCURVE",
"261 -16 CURVE SMOOTH",
"152 -16 OFFCURVE",
"45 36 OFFCURVE",
"40 157 CURVE SMOOTH",
"38 194 OFFCURVE",
"38 233 OFFCURVE",
"38 272 CURVE SMOOTH",
"38 365 OFFCURVE",
"42 465 OFFCURVE",
"42 561 CURVE SMOOTH",
"42 600 OFFCURVE",
"41 640 OFFCURVE",
"41 679 CURVE",
"40 680 LINE",
"41 680 LINE SMOOTH",
"55 680 OFFCURVE",
"72 681 OFFCURVE",
"89 681 CURVE SMOOTH",
"106 681 OFFCURVE",
"123 680 OFFCURVE",
"138 677 CURVE",
"132 571 OFFCURVE",
"133 485 OFFCURVE",
"133 415 CURVE SMOOTH",
"133 236 OFFCURVE",
"139 85 OFFCURVE",
"250 85 CURVE SMOOTH",
"284 85 OFFCURVE",
"315 99 OFFCURVE",
"332 127 CURVE",
"366 204 OFFCURVE",
"371 322 OFFCURVE",
"371 445 CURVE SMOOTH",
"371 496 OFFCURVE",
"370 547 OFFCURVE",
"370 597 CURVE SMOOTH",
"370 622 OFFCURVE",
"370 647 OFFCURVE",
"371 671 CURVE",
"389 673 OFFCURVE",
"412 676 OFFCURVE",
"432 676 CURVE SMOOTH",
"447 676 OFFCURVE",
"460 674 OFFCURVE",
"469 669 CURVE"
);
}
);
width = 505;
}
);
leftKerningGroup = U;
note = Uacute;
rightKerningGroup = U;
unicode = 00DA;
},
{
glyphname = Ucircumflex;
layers = (
{
hints = (
{
horizontal = 1;
place = "{916, -20}";
target = down;
type = TopGhost;
},
{
place = "{40, 97}";
type = Stem;
},
{
place = "{371, 98}";
type = Stem;
}
);
layerId = "95F3C079-8CB7-481A-B676-05495FEB06E6";
paths = (
{
closed = 1;
nodes = (
"249 916 LINE",
"187 859 OFFCURVE",
"142 822 OFFCURVE",
"88 754 CURVE",
"152 751 OFFCURVE",
"152 750 OFFCURVE",
"170 752 CURVE",
"191 758 OFFCURVE",
"241 825 OFFCURVE",
"248 828 CURVE",
"254 825 OFFCURVE",
"265 813 OFFCURVE",
"275 801 CURVE",
"297 779 LINE SMOOTH",
"315 761 OFFCURVE",
"327 750 OFFCURVE",
"331 750 CURVE",
"375 748 OFFCURVE",
"408 757 OFFCURVE",
"411 755 CURVE"
);
},
{
closed = 1;
nodes = (
"467 670 OFFCURVE",
"464 671 OFFCURVE",
"460 671 CURVE",
"440 680 OFFCURVE",
"394 673 OFFCURVE",
"371 671 CURVE",
"366 472 OFFCURVE",
"393 226 OFFCURVE",
"311 114 CURVE SMOOTH",
"292 88 OFFCURVE",
"252 79 OFFCURVE",
"215 90 CURVE SMOOTH",
"196 96 OFFCURVE",
"181 107 OFFCURVE",
"170 124 CURVE",
"129 234 OFFCURVE",
"130 354 OFFCURVE",
"137 623 CURVE SMOOTH",
"137 640 OFFCURVE",
"137 658 OFFCURVE",
"138 677 CURVE",
"109 683 OFFCURVE",
"70 680 OFFCURVE",
"41 680 CURVE SMOOTH",
"40 680 LINE",
"41 679 LINE",
"42 591 OFFCURVE",
"41 502 OFFCURVE",
"40 413 CURVE SMOOTH",
"38 324 OFFCURVE",
"38 238 OFFCURVE",
"40 157 CURVE SMOOTH",
"46 24 OFFCURVE",
"174 -25 OFFCURVE",
"293 -14 CURVE SMOOTH",
"388 -5 OFFCURVE",
"446 63 OFFCURVE",
"457 151 CURVE SMOOTH",
"476 323 OFFCURVE",
"477 498 OFFCURVE",
"469 669 CURVE"
);
}
);
width = 505;
}
);
leftKerningGroup = U;
note = Ucircumflex;
rightKerningGroup = U;
unicode = 00DB;
},
{
glyphname = ugrave;
layers = (
{
hints = (
{
horizontal = 1;
place = "{-1, 21}";
target = up;
type = BottomGhost;
},
{
horizontal = 1;
place = "{747, -20}";
target = down;
type = TopGhost;
},
{
place = "{31, 92}";
type = Stem;
},
{
place = "{326, 87}";
type = Stem;
}
);
layerId = "95F3C079-8CB7-481A-B676-05495FEB06E6";
paths = (
{
closed = 1;
nodes = (
"121 729 OFFCURVE",
"104 711 OFFCURVE",
"87 694 CURVE",
"96 689 OFFCURVE",
"191 596 OFFCURVE",
"198 585 CURVE",
"238 581 OFFCURVE",
"284 584 OFFCURVE",
"298 588 CURVE",
"251 632 OFFCURVE",
"178 711 OFFCURVE",
"138 747 CURVE"
);
},
{
closed = 1;
nodes = (
"325 39 OFFCURVE",
"324 25 OFFCURVE",
"326 0 CURVE",
"326 -6 OFFCURVE",
"355 -1 OFFCURVE",
"364 -1 CURVE",
"382 1 OFFCURVE",
"389 2 OFFCURVE",
"413 2 CURVE",
"418 178 OFFCURVE",
"412 339 OFFCURVE",
"412 503 CURVE",
"371 500 OFFCURVE",
"357 504 OFFCURVE",
"328 496 CURVE",
"328 492 LINE",
"327 467 OFFCURVE",
"326 441 OFFCURVE",
"326 415 CURVE SMOOTH",
"327 367 OFFCURVE",
"332 269 OFFCURVE",
"331 221 CURVE SMOOTH",
"330 140 OFFCURVE",
"275 88 OFFCURVE",
"171 105 CURVE",
"140 113 OFFCURVE",
"126 133 OFFCURVE",
"123 178 CURVE SMOOTH",
"120 225 OFFCURVE",
"120 265 OFFCURVE",
"119 290 CURVE SMOOTH",
"116 358 OFFCURVE",
"121 444 OFFCURVE",
"116 500 CURVE",
"86 500 OFFCURVE",
"64 501 OFFCURVE",
"34 498 CURVE",
"38 430 OFFCURVE",
"32 323 OFFCURVE",
"31 229 CURVE SMOOTH",
"32 133 OFFCURVE",
"29 59 OFFCURVE",
"57 34 CURVE",
"98 -6 OFFCURVE",
"181 -4 OFFCURVE",
"263 25 CURVE",
"301 34 OFFCURVE",
"317 49 OFFCURVE",
"324 53 CURVE"
);
}
);
width = 450;
}
);
leftKerningGroup = u;
note = ugrave;
rightKerningGroup = q;
unicode = 00F9;
},
{
glyphname = uacute;
layers = (
{
hints = (
{
horizontal = 1;
place = "{-1, 21}";
target = up;
type = BottomGhost;
},
{
horizontal = 1;
place = "{746, -20}";
target = down;
type = TopGhost;
},
{
place = "{31, 88}";
type = Stem;
},
{
place = "{331, 82}";
type = Stem;
}
);
layerId = "95F3C079-8CB7-481A-B676-05495FEB06E6";
paths = (
{
closed = 1;
nodes = (
"354 710 OFFCURVE",
"336 728 OFFCURVE",
"319 746 CURVE",
"279 709 OFFCURVE",
"207 630 OFFCURVE",
"160 587 CURVE",
"173 583 OFFCURVE",
"219 580 OFFCURVE",
"259 584 CURVE",
"265 595 OFFCURVE",
"362 687 OFFCURVE",
"371 693 CURVE"
);
},
{
closed = 1;
nodes = (
"317 49 OFFCURVE",
"301 34 OFFCURVE",
"263 25 CURVE",
"181 -4 OFFCURVE",
"98 -6 OFFCURVE",
"57 34 CURVE",
"29 59 OFFCURVE",
"32 133 OFFCURVE",
"31 229 CURVE",
"32 323 OFFCURVE",
"38 430 OFFCURVE",
"34 498 CURVE",
"64 501 OFFCURVE",
"86 500 OFFCURVE",
"116 500 CURVE",
"121 444 OFFCURVE",
"116 358 OFFCURVE",
"119 290 CURVE SMOOTH",
"120 265 OFFCURVE",
"120 225 OFFCURVE",
"123 178 CURVE SMOOTH",
"126 133 OFFCURVE",
"140 113 OFFCURVE",
"171 105 CURVE",
"275 88 OFFCURVE",
"330 140 OFFCURVE",
"331 221 CURVE SMOOTH",
"332 269 OFFCURVE",
"327 367 OFFCURVE",
"326 415 CURVE",
"326 441 OFFCURVE",
"327 467 OFFCURVE",
"328 492 CURVE",
"328 496 LINE",
"357 504 OFFCURVE",
"371 500 OFFCURVE",
"412 503 CURVE",
"412 339 OFFCURVE",
"418 178 OFFCURVE",
"413 2 CURVE",
"389 2 OFFCURVE",
"382 1 OFFCURVE",
"364 -1 CURVE",
"355 -1 OFFCURVE",
"326 -6 OFFCURVE",
"326 0 CURVE",
"324 25 OFFCURVE",
"325 39 OFFCURVE",
"324 53 CURVE"
);
}
);
width = 449;
}
);
leftKerningGroup = u;
note = uacute;
rightKerningGroup = q;
unicode = 00FA;
},
{
glyphname = ucircumflex;
layers = (
{
hints = (
{
horizontal = 1;
place = "{-1, 21}";
target = up;
type = BottomGhost;
},
{
horizontal = 1;
place = "{503, 92}";
type = Stem;
},
{
horizontal = 1;
place = "{757, -20}";
target = down;
type = TopGhost;
},
{
place = "{31, 92}";
type = Stem;
},
{
place = "{326, 87}";
type = Stem;
}
);
layerId = "95F3C079-8CB7-481A-B676-05495FEB06E6";
paths = (
{
closed = 1;
nodes = (
"230 757 LINE",
"169 700 OFFCURVE",
"123 663 OFFCURVE",
"69 595 CURVE",
"134 592 OFFCURVE",
"134 591 OFFCURVE",
"152 593 CURVE",
"172 599 OFFCURVE",
"223 666 OFFCURVE",
"230 669 CURVE",
"235 666 OFFCURVE",
"247 654 OFFCURVE",
"256 642 CURVE",
"279 620 LINE SMOOTH",
"297 602 OFFCURVE",
"308 591 OFFCURVE",
"312 591 CURVE",
"357 589 OFFCURVE",
"389 598 OFFCURVE",
"392 596 CURVE"
);
},
{
closed = 1;
nodes = (
"325 39 OFFCURVE",
"324 25 OFFCURVE",
"326 0 CURVE",
"326 -6 OFFCURVE",
"355 -1 OFFCURVE",
"364 -1 CURVE",
"382 1 OFFCURVE",
"389 2 OFFCURVE",
"413 2 CURVE",
"418 178 OFFCURVE",
"412 339 OFFCURVE",
"412 503 CURVE",
"371 500 OFFCURVE",
"357 504 OFFCURVE",
"328 496 CURVE",
"328 492 LINE",
"327 467 OFFCURVE",
"326 441 OFFCURVE",
"326 415 CURVE SMOOTH",
"327 367 OFFCURVE",
"332 269 OFFCURVE",
"331 221 CURVE SMOOTH",
"330 140 OFFCURVE",
"275 88 OFFCURVE",
"171 105 CURVE",
"140 113 OFFCURVE",
"126 133 OFFCURVE",
"123 178 CURVE SMOOTH",
"120 225 OFFCURVE",
"120 265 OFFCURVE",
"119 290 CURVE SMOOTH",
"116 358 OFFCURVE",
"121 444 OFFCURVE",
"116 500 CURVE",
"86 500 OFFCURVE",
"64 501 OFFCURVE",
"34 498 CURVE",
"38 430 OFFCURVE",
"32 323 OFFCURVE",
"31 229 CURVE SMOOTH",
"32 133 OFFCURVE",
"29 59 OFFCURVE",
"57 34 CURVE",
"98 -6 OFFCURVE",
"181 -4 OFFCURVE",
"263 25 CURVE",
"301 34 OFFCURVE",
"317 49 OFFCURVE",
"324 53 CURVE"
);
}
);
width = 450;
}
);
leftKerningGroup = u;
note = ucircumflex;
rightKerningGroup = q;
unicode = 00FB;
},
{
glyphname = egrave;
layers = (
{
hints = (
{
horizontal = 1;
place = "{250, 58}";
type = Stem;
},
{
horizontal = 1;
place = "{747, -20}";
target = down;
type = TopGhost;
},
{
place = "{353, 71}";
type = Stem;
},
{
horizontal = 1;
place = "{308, 139}";
type = Stem;
}
);
layerId = "95F3C079-8CB7-481A-B676-05495FEB06E6";
paths = (
{
closed = 1;
nodes = (
"136 729 OFFCURVE",
"118 711 OFFCURVE",
"101 694 CURVE",
"110 689 OFFCURVE",
"206 596 OFFCURVE",
"213 585 CURVE",
"252 581 OFFCURVE",
"298 584 OFFCURVE",
"312 588 CURVE",
"266 632 OFFCURVE",
"192 711 OFFCURVE",
"153 747 CURVE"
);
},
{
closed = 1;
nodes = (
"110 253 LINE",
"118 251 OFFCURVE",
"130 250 OFFCURVE",
"147 250 CURVE",
"175 249 OFFCURVE",
"276 247 OFFCURVE",
"312 249 CURVE SMOOTH",
"364 251 OFFCURVE",
"412 255 OFFCURVE",
"424 259 CURVE",
"432 371 OFFCURVE",
"414 486 OFFCURVE",
"290 507 CURVE",
"195 531 OFFCURVE",
"78 502 OFFCURVE",
"43 423 CURVE",
"27 379 OFFCURVE",
"25 333 OFFCURVE",
"21 284 CURVE",
"15 154 OFFCURVE",
"51 8 OFFCURVE",
"164 -10 CURVE",
"176 -15 OFFCURVE",
"351 -32 OFFCURVE",
"394 34 CURVE",
"421 79 OFFCURVE",
"423 124 OFFCURVE",
"422 190 CURVE",
"390 189 OFFCURVE",
"360 194 OFFCURVE",
"325 188 CURVE",
"334 123 OFFCURVE",
"306 75 OFFCURVE",
"212 83 CURVE SMOOTH",
"92 93 OFFCURVE",
"110 212 OFFCURVE",
"110 235 CURVE SMOOTH"
);
},
{
closed = 1;
nodes = (
"334 412 OFFCURVE",
"352 367 OFFCURVE",
"353 328 CURVE SMOOTH",
"353 315 OFFCURVE",
"356 310 OFFCURVE",
"345 309 CURVE SMOOTH",
"333 308 OFFCURVE",
"308 308 OFFCURVE",
"237 308 CURVE SMOOTH",
"110 305 OFFCURVE",
"110 306 OFFCURVE",
"115 343 CURVE SMOOTH",
"123 402 OFFCURVE",
"148 447 OFFCURVE",
"242 447 CURVE SMOOTH",
"265 447 OFFCURVE",
"276 445 OFFCURVE",
"296 436 CURVE"
);
}
);
width = 444;
}
);
leftKerningGroup = egrave;
note = egrave;
rightKerningGroup = egrave;
unicode = 00E8;
},
{
glyphname = eacute;
layers = (
{
hints = (
{
horizontal = 1;
place = "{249, 59}";
type = Stem;
},
{
horizontal = 1;
place = "{748, -20}";
target = down;
type = TopGhost;
},
{
place = "{353, 71}";
type = Stem;
},
{
horizontal = 1;
place = "{308, 139}";
type = Stem;
}
);
layerId = "95F3C079-8CB7-481A-B676-05495FEB06E6";
paths = (
{
closed = 1;
nodes = (
"353 712 OFFCURVE",
"335 730 OFFCURVE",
"318 748 CURVE",
"278 711 OFFCURVE",
"206 632 OFFCURVE",
"159 589 CURVE",
"172 585 OFFCURVE",
"218 582 OFFCURVE",
"258 586 CURVE",
"264 597 OFFCURVE",
"361 689 OFFCURVE",
"370 695 CURVE"
);
},
{
closed = 1;
nodes = (
"110 235 LINE SMOOTH",
"110 212 OFFCURVE",
"92 93 OFFCURVE",
"212 83 CURVE SMOOTH",
"306 75 OFFCURVE",
"334 123 OFFCURVE",
"325 188 CURVE",
"360 194 OFFCURVE",
"390 189 OFFCURVE",
"422 190 CURVE",
"423 124 OFFCURVE",
"421 79 OFFCURVE",
"394 34 CURVE",
"351 -32 OFFCURVE",
"176 -15 OFFCURVE",
"164 -10 CURVE",
"51 8 OFFCURVE",
"15 154 OFFCURVE",
"21 284 CURVE",
"25 333 OFFCURVE",
"27 379 OFFCURVE",
"43 423 CURVE",
"78 502 OFFCURVE",
"195 531 OFFCURVE",
"290 507 CURVE",
"414 486 OFFCURVE",
"432 371 OFFCURVE",
"424 259 CURVE",
"412 255 OFFCURVE",
"364 251 OFFCURVE",
"312 249 CURVE SMOOTH",
"276 247 OFFCURVE",
"175 249 OFFCURVE",
"147 250 CURVE",
"130 250 OFFCURVE",
"118 251 OFFCURVE",
"110 253 CURVE"
);
},
{
closed = 1;
nodes = (
"276 445 OFFCURVE",
"265 447 OFFCURVE",
"242 447 CURVE SMOOTH",
"148 447 OFFCURVE",
"123 402 OFFCURVE",
"115 343 CURVE SMOOTH",
"110 306 OFFCURVE",
"110 305 OFFCURVE",
"237 308 CURVE SMOOTH",
"308 308 OFFCURVE",
"333 308 OFFCURVE",
"345 309 CURVE SMOOTH",
"356 310 OFFCURVE",
"353 315 OFFCURVE",
"353 328 CURVE",
"352 367 OFFCURVE",
"334 412 OFFCURVE",
"296 436 CURVE"
);
}
);
width = 444;
}
);
leftKerningGroup = egrave;
note = eacute;
rightKerningGroup = egrave;
unicode = 00E9;
},
{
glyphname = ecircumflex;
layers = (
{
hints = (
{
horizontal = 1;
place = "{250, 58}";
type = Stem;
},
{
horizontal = 1;
place = "{757, -20}";
target = down;
type = TopGhost;
},
{
place = "{353, 71}";
type = Stem;
},
{
horizontal = 1;
place = "{308, 139}";
type = Stem;
}
);
layerId = "95F3C079-8CB7-481A-B676-05495FEB06E6";
paths = (
{
closed = 1;
nodes = (
"235 757 LINE",
"173 700 OFFCURVE",
"128 663 OFFCURVE",
"74 595 CURVE",
"138 592 OFFCURVE",
"138 591 OFFCURVE",
"156 593 CURVE",
"177 599 OFFCURVE",
"227 666 OFFCURVE",
"234 669 CURVE",
"240 666 OFFCURVE",
"251 654 OFFCURVE",
"261 642 CURVE",
"283 620 LINE SMOOTH",
"301 602 OFFCURVE",
"313 591 OFFCURVE",
"317 591 CURVE",
"361 589 OFFCURVE",
"394 598 OFFCURVE",
"397 596 CURVE"
);
},
{
closed = 1;
nodes = (
"110 253 LINE",
"118 251 OFFCURVE",
"130 250 OFFCURVE",
"147 250 CURVE",
"175 249 OFFCURVE",
"276 247 OFFCURVE",
"312 249 CURVE SMOOTH",
"364 251 OFFCURVE",
"412 255 OFFCURVE",
"424 259 CURVE",
"432 371 OFFCURVE",
"414 486 OFFCURVE",
"290 507 CURVE",
"195 531 OFFCURVE",
"78 502 OFFCURVE",
"43 423 CURVE",
"27 379 OFFCURVE",
"25 333 OFFCURVE",
"21 284 CURVE",
"15 154 OFFCURVE",
"51 8 OFFCURVE",
"164 -10 CURVE",
"176 -15 OFFCURVE",
"351 -32 OFFCURVE",
"394 34 CURVE",
"421 79 OFFCURVE",
"423 124 OFFCURVE",
"422 190 CURVE",
"390 189 OFFCURVE",
"360 194 OFFCURVE",
"325 188 CURVE",
"334 123 OFFCURVE",
"306 75 OFFCURVE",
"212 83 CURVE SMOOTH",
"92 93 OFFCURVE",
"110 212 OFFCURVE",
"110 235 CURVE SMOOTH"
);
},
{
closed = 1;
nodes = (
"334 412 OFFCURVE",
"352 367 OFFCURVE",
"353 328 CURVE SMOOTH",
"353 315 OFFCURVE",
"356 310 OFFCURVE",
"345 309 CURVE SMOOTH",
"333 308 OFFCURVE",
"308 308 OFFCURVE",
"237 308 CURVE SMOOTH",
"110 305 OFFCURVE",
"110 306 OFFCURVE",
"115 343 CURVE SMOOTH",
"123 402 OFFCURVE",
"148 447 OFFCURVE",
"242 447 CURVE SMOOTH",
"265 447 OFFCURVE",
"276 445 OFFCURVE",
"296 436 CURVE"
);
}
);
width = 444;
}
);
leftKerningGroup = egrave;
note = ecircumflex;
rightKerningGroup = egrave;
unicode = 00EA;
},
{
glyphname = igrave;
layers = (
{
hints = (
{
horizontal = 1;
place = "{503, -20}";
target = down;
type = TopGhost;
},
{
horizontal = 1;
place = "{749, -20}";
target = down;
type = TopGhost;
},
{
place = "{59, 97}";
type = Stem;
}
);
layerId = "95F3C079-8CB7-481A-B676-05495FEB06E6";
paths = (
{
closed = 1;
nodes = (
"-14 731 OFFCURVE",
"-31 713 OFFCURVE",
"-48 696 CURVE",
"-39 691 OFFCURVE",
"57 598 OFFCURVE",
"63 587 CURVE",
"103 583 OFFCURVE",
"149 586 OFFCURVE",
"163 590 CURVE",
"116 634 OFFCURVE",
"43 713 OFFCURVE",
"3 749 CURVE"
);
},
{
closed = 1;
nodes = (
"157 503 LINE",
"99 503 OFFCURVE",
"74 507 OFFCURVE",
"63 505 CURVE",
"63 504 LINE",
"55 425 OFFCURVE",
"57 339 OFFCURVE",
"59 261 CURVE SMOOTH",
"59 177 LINE SMOOTH",
"59 117 OFFCURVE",
"60 57 OFFCURVE",
"58 -1 CURVE",
"71 3 OFFCURVE",
"132 -3 OFFCURVE",
"156 3 CURVE",
"146 168 OFFCURVE",
"156 339 OFFCURVE",
"157 500 CURVE SMOOTH"
);
}
);
width = 207;
}
);
note = igrave;
unicode = 00EC;
},
{
glyphname = iacute;
layers = (
{
hints = (
{
horizontal = 1;
place = "{503, -20}";
target = down;
type = TopGhost;
},
{
horizontal = 1;
place = "{746, -20}";
target = down;
type = TopGhost;
},
{
place = "{59, 97}";
type = Stem;
}
);
layerId = "95F3C079-8CB7-481A-B676-05495FEB06E6";
paths = (
{
closed = 1;
nodes = (
"248 710 OFFCURVE",
"231 728 OFFCURVE",
"214 746 CURVE",
"173 709 OFFCURVE",
"101 630 OFFCURVE",
"54 587 CURVE",
"68 583 OFFCURVE",
"114 580 OFFCURVE",
"154 584 CURVE",
"159 595 OFFCURVE",
"256 687 OFFCURVE",
"265 693 CURVE"
);
},
{
closed = 1;
nodes = (
"157 500 LINE SMOOTH",
"156 339 OFFCURVE",
"146 168 OFFCURVE",
"156 3 CURVE",
"132 -3 OFFCURVE",
"71 3 OFFCURVE",
"58 -1 CURVE",
"60 57 OFFCURVE",
"59 117 OFFCURVE",
"59 177 CURVE SMOOTH",
"59 261 LINE",
"57 339 OFFCURVE",
"55 425 OFFCURVE",
"63 504 CURVE",
"63 505 LINE",
"74 507 OFFCURVE",
"99 503 OFFCURVE",
"157 503 CURVE"
);
}
);
width = 207;
}
);
note = iacute;
unicode = 00ED;
},
{
glyphname = icircumflex;
layers = (
{
hints = (
{
horizontal = 1;
place = "{503, -20}";
target = down;
type = TopGhost;
},
{
horizontal = 1;
place = "{755, -20}";
target = down;
type = TopGhost;
},
{
place = "{59, 97}";
type = Stem;
}
);
layerId = "95F3C079-8CB7-481A-B676-05495FEB06E6";
paths = (
{
closed = 1;
nodes = (
"108 755 LINE",
"47 697 OFFCURVE",
"1 660 OFFCURVE",
"-53 592 CURVE",
"12 589 OFFCURVE",
"12 588 OFFCURVE",
"30 590 CURVE",
"50 597 OFFCURVE",
"101 663 OFFCURVE",
"108 667 CURVE",
"113 663 OFFCURVE",
"125 651 OFFCURVE",
"134 640 CURVE",
"157 617 LINE SMOOTH",
"175 599 OFFCURVE",
"186 588 OFFCURVE",
"190 588 CURVE",
"235 586 OFFCURVE",
"267 595 OFFCURVE",
"270 593 CURVE"
);
},
{
closed = 1;
nodes = (
"157 503 LINE",
"99 503 OFFCURVE",
"74 507 OFFCURVE",
"63 505 CURVE",
"63 504 LINE",
"55 425 OFFCURVE",
"57 339 OFFCURVE",
"59 261 CURVE SMOOTH",
"59 177 LINE SMOOTH",
"59 117 OFFCURVE",
"60 57 OFFCURVE",
"58 -1 CURVE",
"71 3 OFFCURVE",
"132 -3 OFFCURVE",
"156 3 CURVE",
"146 168 OFFCURVE",
"156 339 OFFCURVE",
"157 500 CURVE SMOOTH"
);
}
);
width = 207;
}
);
note = icircumflex;
unicode = 00EE;
},
{
glyphname = Ograve;
layers = (
{
hints = (
{
horizontal = 1;
place = "{-11, 87}";
type = Stem;
},
{
horizontal = 1;
place = "{910, -20}";
target = down;
type = TopGhost;
},
{
place = "{31, 74}";
type = Stem;
},
{
place = "{368, 82}";
type = Stem;
}
);
layerId = "95F3C079-8CB7-481A-B676-05495FEB06E6";
paths = (
{
closed = 1;
nodes = (
"110 893 OFFCURVE",
"93 875 OFFCURVE",
"76 857 CURVE",
"85 853 OFFCURVE",
"180 760 OFFCURVE",
"187 749 CURVE",
"227 744 OFFCURVE",
"273 748 OFFCURVE",
"287 752 CURVE",
"240 795 OFFCURVE",
"167 874 OFFCURVE",
"127 910 CURVE"
);
},
{
closed = 1;
nodes = (
"395 715 OFFCURVE",
"212 724 OFFCURVE",
"107 673 CURVE",
"46 639 OFFCURVE",
"32 547 OFFCURVE",
"31 484 CURVE",
"24 379 OFFCURVE",
"33 274 OFFCURVE",
"36 170 CURVE SMOOTH",
"40 38 OFFCURVE",
"98 -2 OFFCURVE",
"192 -11 CURVE SMOOTH",
"269 -17 OFFCURVE",
"367 2 OFFCURVE",
"409 60 CURVE",
"434 99 OFFCURVE",
"444 148 OFFCURVE",
"447 195 CURVE SMOOTH",
"450 228 LINE SMOOTH",
"455 297 OFFCURVE",
"452 362 OFFCURVE",
"455 433 CURVE SMOOTH",
"457 486 OFFCURVE",
"459 546 OFFCURVE",
"437 594 CURVE"
);
},
{
closed = 1;
nodes = (
"368 403 OFFCURVE",
"369 376 OFFCURVE",
"369 349 CURVE SMOOTH",
"369 314 LINE",
"369 316 OFFCURVE",
"364 238 OFFCURVE",
"364 191 CURVE",
"360 122 OFFCURVE",
"327 79 OFFCURVE",
"234 76 CURVE SMOOTH",
"201 75 OFFCURVE",
"175 81 OFFCURVE",
"158 93 CURVE SMOOTH",
"114 124 OFFCURVE",
"108 184 OFFCURVE",
"105 327 CURVE SMOOTH",
"104 516 OFFCURVE",
"134 621 OFFCURVE",
"253 615 CURVE SMOOTH",
"379 607 OFFCURVE",
"367 467 OFFCURVE",
"368 430 CURVE SMOOTH"
);
}
);
width = 485;
}
);
leftKerningGroup = G;
note = Ograve;
rightKerningGroup = O;
unicode = 00D2;
},
{
glyphname = Oacute;
layers = (
{
hints = (
{
horizontal = 1;
place = "{-11, 87}";
type = Stem;
},
{
horizontal = 1;
place = "{910, -20}";
target = down;
type = TopGhost;
},
{
place = "{36, 69}";
type = Stem;
},
{
place = "{364, 91}";
type = Stem;
}
);
layerId = "95F3C079-8CB7-481A-B676-05495FEB06E6";
paths = (
{
closed = 1;
nodes = (
"373 875 OFFCURVE",
"355 893 OFFCURVE",
"338 910 CURVE",
"298 875 OFFCURVE",
"226 795 OFFCURVE",
"179 752 CURVE",
"192 748 OFFCURVE",
"238 744 OFFCURVE",
"278 749 CURVE",
"286 763 OFFCURVE",
"381 852 OFFCURVE",
"390 857 CURVE"
);
},
{
closed = 1;
nodes = (
"459 546 OFFCURVE",
"457 486 OFFCURVE",
"455 433 CURVE SMOOTH",
"452 362 OFFCURVE",
"455 297 OFFCURVE",
"450 228 CURVE SMOOTH",
"447 195 LINE SMOOTH",
"444 148 OFFCURVE",
"434 99 OFFCURVE",
"409 60 CURVE",
"367 2 OFFCURVE",
"269 -17 OFFCURVE",
"192 -11 CURVE SMOOTH",
"98 -2 OFFCURVE",
"40 38 OFFCURVE",
"36 170 CURVE SMOOTH",
"33 274 OFFCURVE",
"24 379 OFFCURVE",
"31 484 CURVE",
"32 547 OFFCURVE",
"46 639 OFFCURVE",
"107 673 CURVE",
"212 724 OFFCURVE",
"395 715 OFFCURVE",
"437 594 CURVE"
);
},
{
closed = 1;
nodes = (
"367 467 OFFCURVE",
"379 607 OFFCURVE",
"253 615 CURVE SMOOTH",
"134 621 OFFCURVE",
"104 516 OFFCURVE",
"105 327 CURVE SMOOTH",
"108 184 OFFCURVE",
"114 124 OFFCURVE",
"158 93 CURVE SMOOTH",
"175 81 OFFCURVE",
"201 75 OFFCURVE",
"234 76 CURVE SMOOTH",
"327 79 OFFCURVE",
"360 122 OFFCURVE",
"364 191 CURVE",
"364 238 OFFCURVE",
"369 316 OFFCURVE",
"369 314 CURVE",
"369 349 LINE SMOOTH",
"369 376 OFFCURVE",
"368 403 OFFCURVE",
"368 430 CURVE"
);
}
);
width = 485;
}
);
leftKerningGroup = G;
note = Oacute;
rightKerningGroup = O;
unicode = 00D3;
},
{
glyphname = Ocircumflex;
layers = (
{
hints = (
{
horizontal = 1;
place = "{-11, 87}";
type = Stem;
},
{
horizontal = 1;
place = "{916, -20}";
target = down;
type = TopGhost;
},
{
place = "{31, 74}";
type = Stem;
},
{
place = "{368, 87}";
type = Stem;
}
);
layerId = "95F3C079-8CB7-481A-B676-05495FEB06E6";
paths = (
{
closed = 1;
nodes = (
"248 916 LINE",
"186 859 OFFCURVE",
"141 822 OFFCURVE",
"87 754 CURVE",
"151 751 OFFCURVE",
"151 750 OFFCURVE",
"169 752 CURVE",
"190 758 OFFCURVE",
"240 825 OFFCURVE",
"247 828 CURVE",
"253 825 OFFCURVE",
"264 813 OFFCURVE",
"274 801 CURVE",
"296 779 LINE SMOOTH",
"314 761 OFFCURVE",
"326 750 OFFCURVE",
"330 750 CURVE",
"374 748 OFFCURVE",
"407 757 OFFCURVE",
"410 755 CURVE"
);
},
{
closed = 1;
nodes = (
"395 715 OFFCURVE",
"212 724 OFFCURVE",
"107 673 CURVE",
"46 639 OFFCURVE",
"32 547 OFFCURVE",
"31 484 CURVE",
"23 379 OFFCURVE",
"32 274 OFFCURVE",
"36 170 CURVE SMOOTH",
"39 38 OFFCURVE",
"97 -2 OFFCURVE",
"192 -11 CURVE SMOOTH",
"268 -17 OFFCURVE",
"366 2 OFFCURVE",
"409 60 CURVE",
"433 99 OFFCURVE",
"443 148 OFFCURVE",
"447 195 CURVE SMOOTH",
"450 228 LINE SMOOTH",
"454 297 OFFCURVE",
"451 362 OFFCURVE",
"455 433 CURVE SMOOTH",
"457 486 OFFCURVE",
"459 546 OFFCURVE",
"437 594 CURVE"
);
},
{
closed = 1;
nodes = (
"368 403 OFFCURVE",
"369 376 OFFCURVE",
"369 349 CURVE SMOOTH",
"369 314 LINE",
"369 316 OFFCURVE",
"364 238 OFFCURVE",
"364 191 CURVE",
"360 122 OFFCURVE",
"327 79 OFFCURVE",
"234 76 CURVE SMOOTH",
"201 75 OFFCURVE",
"175 81 OFFCURVE",
"157 93 CURVE SMOOTH",
"113 124 OFFCURVE",
"107 184 OFFCURVE",
"105 327 CURVE SMOOTH",
"103 516 OFFCURVE",
"134 621 OFFCURVE",
"253 615 CURVE SMOOTH",
"378 607 OFFCURVE",
"366 467 OFFCURVE",
"368 430 CURVE"
);
}
);
width = 484;
}
);
leftKerningGroup = G;
note = Ocircumflex;
rightKerningGroup = O;
unicode = 00D4;
},
{
glyphname = Otilde;
layers = (
{
hints = (
{
horizontal = 1;
place = "{-11, 87}";
type = Stem;
},
{
place = "{31, 74}";
type = Stem;
},
{
place = "{368, 87}";
type = Stem;
}
);
layerId = "95F3C079-8CB7-481A-B676-05495FEB06E6";
paths = (
{
closed = 1;
nodes = (
"118 745 LINE",
"117 802 OFFCURVE",
"146 843 OFFCURVE",
"193 843 CURVE SMOOTH",
"213 843 OFFCURVE",
"227 833 OFFCURVE",
"240 803 CURVE",
"260 737 OFFCURVE",
"311 731 OFFCURVE",
"355 742 CURVE SMOOTH",
"413 756 OFFCURVE",
"451 837 OFFCURVE",
"440 900 CURVE",
"439 900 LINE",
"439 901 LINE",
"419 901 OFFCURVE",
"399 901 OFFCURVE",
"379 899 CURVE",
"380 865 OFFCURVE",
"369 818 OFFCURVE",
"327 805 CURVE SMOOTH",
"278 791 OFFCURVE",
"260 873 OFFCURVE",
"232 893 CURVE SMOOTH",
"190 922 OFFCURVE",
"133 910 OFFCURVE",
"97 874 CURVE",
"72 847 OFFCURVE",
"45 774 OFFCURVE",
"37 745 CURVE",
"51 746 OFFCURVE",
"62 746 OFFCURVE",
"73 746 CURVE SMOOTH",
"90 746 OFFCURVE",
"107 745 OFFCURVE",
"118 744 CURVE"
);
},
{
closed = 1;
nodes = (
"395 715 OFFCURVE",
"212 724 OFFCURVE",
"107 673 CURVE",
"46 639 OFFCURVE",
"32 547 OFFCURVE",
"31 484 CURVE",
"23 379 OFFCURVE",
"32 274 OFFCURVE",
"36 170 CURVE SMOOTH",
"39 38 OFFCURVE",
"97 -2 OFFCURVE",
"192 -11 CURVE SMOOTH",
"268 -17 OFFCURVE",
"366 2 OFFCURVE",
"409 60 CURVE",
"433 99 OFFCURVE",
"443 148 OFFCURVE",
"447 195 CURVE SMOOTH",
"450 228 LINE SMOOTH",
"454 297 OFFCURVE",
"451 362 OFFCURVE",
"455 433 CURVE SMOOTH",
"457 486 OFFCURVE",
"459 546 OFFCURVE",
"437 594 CURVE"
);
},
{
closed = 1;
nodes = (
"368 403 OFFCURVE",
"369 376 OFFCURVE",
"369 349 CURVE SMOOTH",
"369 314 LINE",
"369 316 OFFCURVE",
"364 238 OFFCURVE",
"364 191 CURVE",
"360 122 OFFCURVE",
"327 79 OFFCURVE",
"234 76 CURVE SMOOTH",
"201 75 OFFCURVE",
"175 81 OFFCURVE",
"157 93 CURVE SMOOTH",
"113 124 OFFCURVE",
"107 184 OFFCURVE",
"105 327 CURVE SMOOTH",
"103 516 OFFCURVE",
"134 621 OFFCURVE",
"253 615 CURVE SMOOTH",
"378 607 OFFCURVE",
"366 467 OFFCURVE",
"368 430 CURVE"
);
}
);
width = 484;
}
);
leftKerningGroup = G;
note = Otilde;
rightKerningGroup = O;
unicode = 00D5;
},
{
glyphname = agrave;
layers = (
{
hints = (
{
horizontal = 1;
place = "{-1, 21}";
target = up;
type = BottomGhost;
},
{
horizontal = 1;
place = "{412, 86}";
type = Stem;
},
{
horizontal = 1;
place = "{748, -20}";
target = down;
type = TopGhost;
},
{
place = "{19, 84}";
type = Stem;
},
{
place = "{341, 98}";
type = Stem;
},
{
horizontal = 1;
place = "{502, -20}";
target = down;
type = TopGhost;
},
{
horizontal = 1;
place = "{-2, 90}";
type = Stem;
}
);
layerId = "95F3C079-8CB7-481A-B676-05495FEB06E6";
paths = (
{
closed = 1;
nodes = (
"159 730 OFFCURVE",
"141 712 OFFCURVE",
"124 695 CURVE",
"133 690 OFFCURVE",
"229 597 OFFCURVE",
"236 586 CURVE",
"275 582 OFFCURVE",
"321 585 OFFCURVE",
"335 589 CURVE",
"289 633 OFFCURVE",
"215 712 OFFCURVE",
"176 748 CURVE"
);
},
{
closed = 1;
nodes = (
"396 501 OFFCURVE",
"383 503 OFFCURVE",
"354 502 CURVE SMOOTH",
"347 502 OFFCURVE",
"341 501 OFFCURVE",
"341 500 CURVE SMOOTH",
"341 484 OFFCURVE",
"338 468 OFFCURVE",
"337 449 CURVE",
"313 497 OFFCURVE",
"254 500 OFFCURVE",
"187 497 CURVE SMOOTH",
"93 494 OFFCURVE",
"19 399 OFFCURVE",
"19 266 CURVE SMOOTH",
"19 159 OFFCURVE",
"63 -2 OFFCURVE",
"166 -2 CURVE SMOOTH",
"210 -2 OFFCURVE",
"307 5 OFFCURVE",
"344 55 CURVE",
"344 44 OFFCURVE",
"341 33 OFFCURVE",
"342 20 CURVE",
"342 9 OFFCURVE",
"345 0 OFFCURVE",
"352 -2 CURVE",
"359 -2 OFFCURVE",
"367 0 OFFCURVE",
"377 0 CURVE SMOOTH",
"387 0 OFFCURVE",
"399 -1 OFFCURVE",
"409 -1 CURVE SMOOTH",
"426 -1 LINE",
"442 2 OFFCURVE",
"439 23 OFFCURVE",
"439 40 CURVE",
"448 183 OFFCURVE",
"437 320 OFFCURVE",
"441 464 CURVE SMOOTH",
"441 474 LINE SMOOTH",
"441 482 OFFCURVE",
"440 490 OFFCURVE",
"439 498 CURVE"
);
},
{
closed = 1;
nodes = (
"121 366 OFFCURVE",
"168 414 OFFCURVE",
"242 412 CURVE",
"332 406 OFFCURVE",
"341 391 OFFCURVE",
"341 256 CURVE SMOOTH",
"341 145 OFFCURVE",
"338 87 OFFCURVE",
"233 88 CURVE",
"140 83 OFFCURVE",
"106 148 OFFCURVE",
"103 242 CURVE",
"103 267 OFFCURVE",
"104 295 OFFCURVE",
"111 320 CURVE"
);
}
);
width = 476;
}
);
leftKerningGroup = agrave;
note = agrave;
rightKerningGroup = q;
unicode = 00E0;
},
{
glyphname = aacute;
layers = (
{
hints = (
{
horizontal = 1;
place = "{-1, 21}";
target = up;
type = BottomGhost;
},
{
horizontal = 1;
place = "{412, 85}";
type = Stem;
},
{
horizontal = 1;
place = "{745, -20}";
target = down;
type = TopGhost;
},
{
place = "{19, 84}";
type = Stem;
},
{
place = "{341, 100}";
type = Stem;
},
{
horizontal = 1;
place = "{502, -20}";
target = down;
type = TopGhost;
},
{
horizontal = 1;
place = "{-2, 90}";
type = Stem;
}
);
layerId = "95F3C079-8CB7-481A-B676-05495FEB06E6";
paths = (
{
closed = 1;
nodes = (
"369 710 OFFCURVE",
"351 728 OFFCURVE",
"334 745 CURVE",
"294 709 OFFCURVE",
"222 630 OFFCURVE",
"175 587 CURVE",
"188 583 OFFCURVE",
"234 579 OFFCURVE",
"274 584 CURVE",
"280 594 OFFCURVE",
"377 687 OFFCURVE",
"386 692 CURVE"
);
},
{
closed = 1;
nodes = (
"440 490 OFFCURVE",
"441 482 OFFCURVE",
"441 474 CURVE SMOOTH",
"441 464 LINE SMOOTH",
"437 320 OFFCURVE",
"448 183 OFFCURVE",
"439 40 CURVE",
"439 23 OFFCURVE",
"442 2 OFFCURVE",
"426 -1 CURVE",
"409 -1 LINE SMOOTH",
"399 -1 OFFCURVE",
"387 0 OFFCURVE",
"377 0 CURVE SMOOTH",
"367 0 OFFCURVE",
"359 -2 OFFCURVE",
"352 -2 CURVE",
"345 0 OFFCURVE",
"342 9 OFFCURVE",
"342 20 CURVE",
"341 33 OFFCURVE",
"344 44 OFFCURVE",
"344 55 CURVE",
"307 5 OFFCURVE",
"210 -2 OFFCURVE",
"166 -2 CURVE SMOOTH",
"63 -2 OFFCURVE",
"19 159 OFFCURVE",
"19 266 CURVE SMOOTH",
"19 399 OFFCURVE",
"93 494 OFFCURVE",
"187 497 CURVE SMOOTH",
"254 500 OFFCURVE",
"313 497 OFFCURVE",
"337 449 CURVE",
"338 468 OFFCURVE",
"341 484 OFFCURVE",
"341 500 CURVE SMOOTH",
"341 501 OFFCURVE",
"347 502 OFFCURVE",
"354 502 CURVE SMOOTH",
"383 503 OFFCURVE",
"396 501 OFFCURVE",
"439 498 CURVE"
);
},
{
closed = 1;
nodes = (
"104 295 OFFCURVE",
"103 267 OFFCURVE",
"103 242 CURVE SMOOTH",
"106 148 OFFCURVE",
"140 83 OFFCURVE",
"233 88 CURVE",
"338 87 OFFCURVE",
"341 145 OFFCURVE",
"341 256 CURVE SMOOTH",
"341 391 OFFCURVE",
"332 406 OFFCURVE",
"242 412 CURVE",
"168 414 OFFCURVE",
"121 366 OFFCURVE",
"111 320 CURVE"
);
}
);
width = 476;
}
);
leftKerningGroup = agrave;
note = aacute;
rightKerningGroup = q;
unicode = 00E1;
},
{
glyphname = acircumflex;
layers = (
{
hints = (
{
horizontal = 1;
place = "{-1, 21}";
target = up;
type = BottomGhost;
},
{
horizontal = 1;
place = "{498, 96}";
type = Stem;
},
{
horizontal = 1;
place = "{756, -20}";
target = down;
type = TopGhost;
},
{
place = "{19, 84}";
type = Stem;
},
{
place = "{341, 98}";
type = Stem;
},
{
horizontal = 1;
place = "{502, -20}";
target = down;
type = TopGhost;
},
{
horizontal = 1;
place = "{412, 86}";
type = Stem;
},
{
horizontal = 1;
place = "{-2, 90}";
type = Stem;
}
);
layerId = "95F3C079-8CB7-481A-B676-05495FEB06E6";
paths = (
{
closed = 1;
nodes = (
"252 756 LINE",
"191 699 OFFCURVE",
"145 662 OFFCURVE",
"91 594 CURVE",
"156 591 OFFCURVE",
"156 590 OFFCURVE",
"174 592 CURVE",
"194 598 OFFCURVE",
"245 665 OFFCURVE",
"252 668 CURVE",
"257 665 OFFCURVE",
"269 653 OFFCURVE",
"278 641 CURVE",
"301 619 LINE SMOOTH",
"319 601 OFFCURVE",
"330 590 OFFCURVE",
"334 590 CURVE",
"379 588 OFFCURVE",
"411 597 OFFCURVE",
"414 595 CURVE"
);
},
{
closed = 1;
nodes = (
"396 501 OFFCURVE",
"383 503 OFFCURVE",
"354 502 CURVE SMOOTH",
"347 502 OFFCURVE",
"341 501 OFFCURVE",
"341 500 CURVE SMOOTH",
"341 484 OFFCURVE",
"338 468 OFFCURVE",
"337 449 CURVE",
"313 497 OFFCURVE",
"254 500 OFFCURVE",
"187 497 CURVE SMOOTH",
"93 494 OFFCURVE",
"19 399 OFFCURVE",
"19 266 CURVE SMOOTH",
"19 159 OFFCURVE",
"63 -2 OFFCURVE",
"166 -2 CURVE SMOOTH",
"210 -2 OFFCURVE",
"307 5 OFFCURVE",
"344 55 CURVE",
"344 44 OFFCURVE",
"341 33 OFFCURVE",
"342 20 CURVE",
"342 9 OFFCURVE",
"345 0 OFFCURVE",
"352 -2 CURVE",
"359 -2 OFFCURVE",
"367 0 OFFCURVE",
"377 0 CURVE SMOOTH",
"387 0 OFFCURVE",
"399 -1 OFFCURVE",
"409 -1 CURVE SMOOTH",
"426 -1 LINE",
"442 2 OFFCURVE",
"439 23 OFFCURVE",
"439 40 CURVE",
"448 183 OFFCURVE",
"437 320 OFFCURVE",
"441 464 CURVE SMOOTH",
"441 474 LINE SMOOTH",
"441 482 OFFCURVE",
"440 490 OFFCURVE",
"439 498 CURVE"
);
},
{
closed = 1;
nodes = (
"121 366 OFFCURVE",
"168 414 OFFCURVE",
"242 412 CURVE",
"332 406 OFFCURVE",
"341 391 OFFCURVE",
"341 256 CURVE SMOOTH",
"341 145 OFFCURVE",
"338 87 OFFCURVE",
"233 88 CURVE",
"140 83 OFFCURVE",
"106 148 OFFCURVE",
"103 242 CURVE",
"103 267 OFFCURVE",
"104 295 OFFCURVE",
"111 320 CURVE"
);
}
);
width = 476;
}
);
leftKerningGroup = agrave;
note = acircumflex;
rightKerningGroup = q;
unicode = 00E2;
},
{
glyphname = ograve;
layers = (
{
hints = (
{
horizontal = 1;
place = "{-7, 21}";
target = up;
type = BottomGhost;
},
{
horizontal = 1;
place = "{514, -20}";
target = down;
type = TopGhost;
},
{
horizontal = 1;
place = "{748, -20}";
target = down;
type = TopGhost;
},
{
place = "{115, 222}";
type = Stem;
},
{
place = "{337, 88}";
type = Stem;
}
);
layerId = "95F3C079-8CB7-481A-B676-05495FEB06E6";
paths = (
{
closed = 1;
nodes = (
"123 731 OFFCURVE",
"105 713 OFFCURVE",
"88 695 CURVE",
"97 691 OFFCURVE",
"193 598 OFFCURVE",
"200 587 CURVE",
"239 582 OFFCURVE",
"285 586 OFFCURVE",
"299 590 CURVE",
"253 633 OFFCURVE",
"179 712 OFFCURVE",
"140 748 CURVE"
);
},
{
closed = 1;
nodes = (
"25 397 OFFCURVE",
"24 367 OFFCURVE",
"24 325 CURVE",
"35 209 OFFCURVE",
"-12 23 OFFCURVE",
"161 -7 CURVE",
"238 -7 OFFCURVE",
"347 -28 OFFCURVE",
"393 37 CURVE",
"419 63 OFFCURVE",
"422 194 OFFCURVE",
"425 272 CURVE",
"422 360 OFFCURVE",
"422 445 OFFCURVE",
"384 470 CURVE",
"356 497 OFFCURVE",
"316 509 OFFCURVE",
"273 513 CURVE SMOOTH",
"245 515 OFFCURVE",
"222 511 OFFCURVE",
"195 514 CURVE",
"132 514 OFFCURVE",
"64 497 OFFCURVE",
"45 456 CURVE"
);
},
{
closed = 1;
nodes = (
"143 401 OFFCURVE",
"166 413 OFFCURVE",
"199 418 CURVE SMOOTH",
"371 440 OFFCURVE",
"342 274 OFFCURVE",
"337 179 CURVE",
"337 164 OFFCURVE",
"335 151 OFFCURVE",
"333 138 CURVE",
"317 76 OFFCURVE",
"240 73 OFFCURVE",
"187 81 CURVE",
"156 87 OFFCURVE",
"119 101 OFFCURVE",
"115 160 CURVE SMOOTH",
"113 210 OFFCURVE",
"110 250 OFFCURVE",
"111 281 CURVE",
"110 325 OFFCURVE",
"111 362 OFFCURVE",
"130 385 CURVE SMOOTH"
);
}
);
width = 448;
}
);
leftKerningGroup = o;
note = ograve;
rightKerningGroup = o;
unicode = 00F2;
},
{
glyphname = oacute;
layers = (
{
hints = (
{
horizontal = 1;
place = "{-7, 21}";
target = up;
type = BottomGhost;
},
{
horizontal = 1;
place = "{514, -20}";
target = down;
type = TopGhost;
},
{
horizontal = 1;
place = "{746, -20}";
target = down;
type = TopGhost;
},
{
place = "{111, 226}";
type = Stem;
},
{
place = "{337, 88}";
type = Stem;
}
);
layerId = "95F3C079-8CB7-481A-B676-05495FEB06E6";
paths = (
{
closed = 1;
nodes = (
"354 710 OFFCURVE",
"336 728 OFFCURVE",
"319 746 CURVE",
"279 709 OFFCURVE",
"207 630 OFFCURVE",
"160 587 CURVE",
"173 583 OFFCURVE",
"219 580 OFFCURVE",
"259 584 CURVE",
"265 595 OFFCURVE",
"362 687 OFFCURVE",
"371 693 CURVE"
);
},
{
closed = 1;
nodes = (
"64 497 OFFCURVE",
"132 514 OFFCURVE",
"195 514 CURVE",
"222 511 OFFCURVE",
"245 515 OFFCURVE",
"273 513 CURVE SMOOTH",
"316 509 OFFCURVE",
"356 497 OFFCURVE",
"384 470 CURVE",
"422 445 OFFCURVE",
"422 360 OFFCURVE",
"425 272 CURVE",
"422 194 OFFCURVE",
"419 63 OFFCURVE",
"393 37 CURVE",
"347 -28 OFFCURVE",
"238 -7 OFFCURVE",
"161 -7 CURVE",
"-12 23 OFFCURVE",
"35 209 OFFCURVE",
"24 325 CURVE",
"24 367 OFFCURVE",
"25 397 OFFCURVE",
"45 456 CURVE"
);
},
{
closed = 1;
nodes = (
"111 362 OFFCURVE",
"110 325 OFFCURVE",
"111 281 CURVE",
"110 250 OFFCURVE",
"113 210 OFFCURVE",
"115 160 CURVE SMOOTH",
"119 101 OFFCURVE",
"156 87 OFFCURVE",
"187 81 CURVE",
"240 73 OFFCURVE",
"317 76 OFFCURVE",
"333 138 CURVE",
"335 151 OFFCURVE",
"337 164 OFFCURVE",
"337 179 CURVE",
"342 274 OFFCURVE",
"371 440 OFFCURVE",
"199 418 CURVE SMOOTH",
"166 413 OFFCURVE",
"143 401 OFFCURVE",
"130 385 CURVE SMOOTH"
);
}
);
width = 448;
}
);
leftKerningGroup = o;
note = oacute;
rightKerningGroup = o;
unicode = 00F3;
},
{
glyphname = ocircumflex;
layers = (
{
hints = (
{
horizontal = 1;
place = "{-7, 21}";
target = up;
type = BottomGhost;
},
{
horizontal = 1;
place = "{514, 79}";
type = Stem;
},
{
horizontal = 1;
place = "{756, -20}";
target = down;
type = TopGhost;
},
{
place = "{115, 222}";
type = Stem;
},
{
place = "{337, 88}";
type = Stem;
}
);
layerId = "95F3C079-8CB7-481A-B676-05495FEB06E6";
paths = (
{
closed = 1;
nodes = (
"231 756 LINE",
"170 698 OFFCURVE",
"124 661 OFFCURVE",
"70 593 CURVE",
"135 590 OFFCURVE",
"135 589 OFFCURVE",
"153 591 CURVE",
"173 598 OFFCURVE",
"224 664 OFFCURVE",
"231 668 CURVE",
"236 664 OFFCURVE",
"248 652 OFFCURVE",
"257 641 CURVE",
"280 618 LINE SMOOTH",
"298 600 OFFCURVE",
"309 589 OFFCURVE",
"313 589 CURVE",
"358 587 OFFCURVE",
"390 596 OFFCURVE",
"393 594 CURVE"
);
},
{
closed = 1;
nodes = (
"25 397 OFFCURVE",
"24 367 OFFCURVE",
"24 325 CURVE",
"35 209 OFFCURVE",
"-12 23 OFFCURVE",
"161 -7 CURVE",
"238 -7 OFFCURVE",
"347 -28 OFFCURVE",
"393 37 CURVE",
"419 63 OFFCURVE",
"422 194 OFFCURVE",
"425 272 CURVE",
"422 360 OFFCURVE",
"422 445 OFFCURVE",
"384 470 CURVE",
"356 497 OFFCURVE",
"316 509 OFFCURVE",
"273 513 CURVE SMOOTH",
"245 515 OFFCURVE",
"222 511 OFFCURVE",
"195 514 CURVE",
"132 514 OFFCURVE",
"64 497 OFFCURVE",
"45 456 CURVE"
);
},
{
closed = 1;
nodes = (
"143 401 OFFCURVE",
"166 413 OFFCURVE",
"199 418 CURVE SMOOTH",
"371 440 OFFCURVE",
"342 274 OFFCURVE",
"337 179 CURVE",
"337 164 OFFCURVE",
"335 151 OFFCURVE",
"333 138 CURVE",
"317 76 OFFCURVE",
"240 73 OFFCURVE",
"187 81 CURVE",
"156 87 OFFCURVE",
"119 101 OFFCURVE",
"115 160 CURVE SMOOTH",
"113 210 OFFCURVE",
"110 250 OFFCURVE",
"111 281 CURVE",
"110 325 OFFCURVE",
"111 362 OFFCURVE",
"130 385 CURVE SMOOTH"
);
}
);
width = 448;
}
);
leftKerningGroup = o;
note = ocircumflex;
rightKerningGroup = o;
unicode = 00F4;
},
{
glyphname = otilde;
layers = (
{
hints = (
{
horizontal = 1;
place = "{-7, 21}";
target = up;
type = BottomGhost;
},
{
horizontal = 1;
place = "{514, -20}";
target = down;
type = TopGhost;
},
{
place = "{103, 234}";
type = Stem;
},
{
place = "{337, 88}";
type = Stem;
},
{
place = "{115, 222}";
type = Stem;
}
);
layerId = "95F3C079-8CB7-481A-B676-05495FEB06E6";
paths = (
{
closed = 1;
nodes = (
"103 591 LINE",
"102 648 OFFCURVE",
"132 683 OFFCURVE",
"172 689 CURVE SMOOTH",
"197 692 OFFCURVE",
"211 683 OFFCURVE",
"225 649 CURVE",
"245 586 OFFCURVE",
"288 579 OFFCURVE",
"331 586 CURVE SMOOTH",
"397 597 OFFCURVE",
"431 672 OFFCURVE",
"426 734 CURVE",
"426 739 OFFCURVE",
"425 742 OFFCURVE",
"425 747 CURVE",
"424 748 LINE",
"404 747 OFFCURVE",
"384 747 OFFCURVE",
"365 746 CURVE",
"366 711 OFFCURVE",
"355 665 OFFCURVE",
"313 652 CURVE SMOOTH",
"264 638 OFFCURVE",
"246 720 OFFCURVE",
"218 740 CURVE",
"175 768 OFFCURVE",
"118 757 OFFCURVE",
"83 721 CURVE SMOOTH",
"57 693 OFFCURVE",
"31 620 OFFCURVE",
"23 592 CURVE",
"36 592 OFFCURVE",
"48 593 OFFCURVE",
"59 593 CURVE SMOOTH",
"75 593 OFFCURVE",
"93 592 OFFCURVE",
"103 590 CURVE"
);
},
{
closed = 1;
nodes = (
"25 397 OFFCURVE",
"24 367 OFFCURVE",
"24 325 CURVE",
"35 209 OFFCURVE",
"-12 23 OFFCURVE",
"161 -7 CURVE",
"238 -7 OFFCURVE",
"347 -28 OFFCURVE",
"393 37 CURVE",
"419 63 OFFCURVE",
"422 194 OFFCURVE",
"425 272 CURVE",
"422 360 OFFCURVE",
"422 445 OFFCURVE",
"384 470 CURVE",
"356 497 OFFCURVE",
"316 509 OFFCURVE",
"273 513 CURVE SMOOTH",
"245 515 OFFCURVE",
"222 511 OFFCURVE",
"195 514 CURVE",
"132 514 OFFCURVE",
"64 497 OFFCURVE",
"45 456 CURVE"
);
},
{
closed = 1;
nodes = (
"143 401 OFFCURVE",
"166 413 OFFCURVE",
"199 418 CURVE SMOOTH",
"371 440 OFFCURVE",
"342 274 OFFCURVE",
"337 179 CURVE",
"337 164 OFFCURVE",
"335 151 OFFCURVE",
"333 138 CURVE",
"317 76 OFFCURVE",
"240 73 OFFCURVE",
"187 81 CURVE",
"156 87 OFFCURVE",
"119 101 OFFCURVE",
"115 160 CURVE SMOOTH",
"113 210 OFFCURVE",
"110 250 OFFCURVE",
"111 281 CURVE",
"110 325 OFFCURVE",
"111 362 OFFCURVE",
"130 385 CURVE SMOOTH"
);
}
);
width = 448;
}
);
leftKerningGroup = o;
note = otilde;
rightKerningGroup = o;
unicode = 00F5;
},
{
glyphname = Edieresis;
layers = (
{
hints = (
{
horizontal = 1;
place = "{3, 90}";
type = Stem;
},
{
horizontal = 1;
place = "{394, 202}";
type = Stem;
},
{
horizontal = 1;
place = "{689, 70}";
type = Stem;
},
{
place = "{45, 98}";
type = Stem;
},
{
horizontal = 1;
place = "{298, 96}";
type = Stem;
}
);
layerId = "95F3C079-8CB7-481A-B676-05495FEB06E6";
paths = (
{
closed = 1;
nodes = (
"122 759 LINE SMOOTH",
"145 759 OFFCURVE",
"168 758 OFFCURVE",
"190 758 CURVE",
"192 759 LINE",
"192 760 LINE SMOOTH",
"192 777 OFFCURVE",
"198 859 OFFCURVE",
"198 861 CURVE",
"184 867 OFFCURVE",
"137 866 OFFCURVE",
"118 860 CURVE",
"118 843 OFFCURVE",
"114 785 OFFCURVE",
"119 759 CURVE"
);
},
{
closed = 1;
nodes = (
"288 759 LINE SMOOTH",
"311 759 OFFCURVE",
"334 758 OFFCURVE",
"356 758 CURVE",
"358 759 LINE",
"358 760 LINE SMOOTH",
"358 778 OFFCURVE",
"364 859 OFFCURVE",
"364 861 CURVE",
"350 867 OFFCURVE",
"303 866 OFFCURVE",
"284 860 CURVE",
"284 843 OFFCURVE",
"280 785 OFFCURVE",
"285 759 CURVE"
);
},
{
closed = 1;
nodes = (
"460 88 LINE",
"361 85 OFFCURVE",
"308 94 OFFCURVE",
"144 93 CURVE",
"143 94 LINE",
"144 189 OFFCURVE",
"139 254 OFFCURVE",
"146 293 CURVE",
"150 296 OFFCURVE",
"167 297 OFFCURVE",
"196 298 CURVE SMOOTH",
"289 300 OFFCURVE",
"266 298 OFFCURVE",
"321 303 CURVE",
"320 326 OFFCURVE",
"323 355 OFFCURVE",
"319 390 CURVE",
"319 391 LINE",
"261 394 OFFCURVE",
"237 391 OFFCURVE",
"142 394 CURVE",
"141 395 LINE",
"135 416 OFFCURVE",
"136 452 OFFCURVE",
"139 504 CURVE SMOOTH",
"142 548 OFFCURVE",
"143 579 OFFCURVE",
"142 595 CURVE",
"146 596 LINE",
"207 600 OFFCURVE",
"252 599 OFFCURVE",
"277 599 CURVE SMOOTH",
"332 599 LINE SMOOTH",
"376 599 OFFCURVE",
"416 601 OFFCURVE",
"459 604 CURVE",
"459 614 LINE SMOOTH",
"459 641 OFFCURVE",
"463 668 OFFCURVE",
"460 695 CURVE",
"460 701 OFFCURVE",
"201 697 OFFCURVE",
"46 689 CURVE",
"33 460 OFFCURVE",
"45 237 OFFCURVE",
"45 5 CURVE",
"174 -6 OFFCURVE",
"319 4 OFFCURVE",
"455 3 CURVE",
"461 29 OFFCURVE",
"461 59 OFFCURVE",
"460 86 CURVE"
);
}
);
width = 481;
}
);
note = Edieresis;
rightKerningGroup = E;
unicode = 00CB;
},
{
glyphname = exclamdown;
layers = (
{
hints = (
{
horizontal = 1;
place = "{-71, 21}";
target = up;
type = BottomGhost;
},
{
horizontal = 1;
place = "{630, -20}";
target = down;
type = TopGhost;
},
{
place = "{63, 88}";
type = Stem;
}
);
layerId = "95F3C079-8CB7-481A-B676-05495FEB06E6";
paths = (
{
closed = 1;
nodes = (
"139 631 OFFCURVE",
"131 630 OFFCURVE",
"124 630 CURVE SMOOTH",
"93 630 LINE SMOOTH",
"84 630 OFFCURVE",
"79 631 OFFCURVE",
"69 631 CURVE SMOOTH",
"60 631 LINE",
"56 611 OFFCURVE",
"60 549 OFFCURVE",
"60 512 CURVE",
"88 508 OFFCURVE",
"120 505 OFFCURVE",
"146 512 CURVE",
"146 548 OFFCURVE",
"151 611 OFFCURVE",
"146 631 CURVE"
);
},
{
closed = 1;
nodes = (
"151 -71 LINE",
"154 105 OFFCURVE",
"147 286 OFFCURVE",
"153 459 CURVE",
"121 460 OFFCURVE",
"91 460 OFFCURVE",
"61 459 CURVE",
"67 286 OFFCURVE",
"59 105 OFFCURVE",
"63 -71 CURVE"
);
}
);
width = 216;
}
);
note = exclamdown;
unicode = 00A1;
},
{
glyphname = Odieresis;
layers = (
{
hints = (
{
horizontal = 1;
place = "{-11, 87}";
type = Stem;
},
{
place = "{31, 74}";
type = Stem;
},
{
place = "{368, 87}";
type = Stem;
}
);
layerId = "95F3C079-8CB7-481A-B676-05495FEB06E6";
paths = (
{
closed = 1;
nodes = (
"129 759 LINE SMOOTH",
"151 759 OFFCURVE",
"174 758 OFFCURVE",
"197 758 CURVE",
"199 759 LINE",
"199 760 LINE SMOOTH",
"199 777 OFFCURVE",
"205 859 OFFCURVE",
"205 861 CURVE",
"191 867 OFFCURVE",
"143 866 OFFCURVE",
"125 860 CURVE",
"125 843 OFFCURVE",
"121 785 OFFCURVE",
"126 759 CURVE"
);
},
{
closed = 1;
nodes = (
"295 759 LINE SMOOTH",
"317 759 OFFCURVE",
"340 758 OFFCURVE",
"363 758 CURVE",
"365 759 LINE",
"365 760 LINE SMOOTH",
"365 777 OFFCURVE",
"371 859 OFFCURVE",
"371 861 CURVE",
"357 867 OFFCURVE",
"309 866 OFFCURVE",
"291 860 CURVE",
"291 843 OFFCURVE",
"287 785 OFFCURVE",
"292 759 CURVE"
);
},
{
closed = 1;
nodes = (
"395 715 OFFCURVE",
"212 724 OFFCURVE",
"107 673 CURVE",
"46 639 OFFCURVE",
"32 547 OFFCURVE",
"31 484 CURVE",
"23 379 OFFCURVE",
"32 274 OFFCURVE",
"36 170 CURVE SMOOTH",
"39 38 OFFCURVE",
"97 -2 OFFCURVE",
"192 -11 CURVE SMOOTH",
"268 -17 OFFCURVE",
"366 2 OFFCURVE",
"409 60 CURVE",
"433 99 OFFCURVE",
"443 148 OFFCURVE",
"447 195 CURVE SMOOTH",
"450 228 LINE SMOOTH",
"454 297 OFFCURVE",
"451 362 OFFCURVE",
"455 433 CURVE SMOOTH",
"457 486 OFFCURVE",
"459 546 OFFCURVE",
"437 594 CURVE"
);
},
{
closed = 1;
nodes = (
"368 403 OFFCURVE",
"369 376 OFFCURVE",
"369 349 CURVE SMOOTH",
"369 314 LINE",
"369 316 OFFCURVE",
"364 238 OFFCURVE",
"364 191 CURVE",
"360 122 OFFCURVE",
"327 79 OFFCURVE",
"234 76 CURVE SMOOTH",
"201 75 OFFCURVE",
"175 81 OFFCURVE",
"157 93 CURVE SMOOTH",
"113 124 OFFCURVE",
"107 184 OFFCURVE",
"105 327 CURVE SMOOTH",
"103 516 OFFCURVE",
"134 621 OFFCURVE",
"253 615 CURVE SMOOTH",
"378 607 OFFCURVE",
"366 467 OFFCURVE",
"368 430 CURVE"
);
}
);
width = 484;
}
);
leftKerningGroup = G;
note = Odieresis;
rightKerningGroup = O;
unicode = 00D6;
},
{
glyphname = Udieresis;
layers = (
{
hints = (
{
place = "{40, 97}";
type = Stem;
},
{
place = "{371, 98}";
type = Stem;
}
);
layerId = "95F3C079-8CB7-481A-B676-05495FEB06E6";
paths = (
{
closed = 1;
nodes = (
"136 759 LINE SMOOTH",
"158 759 OFFCURVE",
"181 758 OFFCURVE",
"204 758 CURVE",
"206 759 LINE",
"206 760 LINE SMOOTH",
"206 777 OFFCURVE",
"212 859 OFFCURVE",
"212 861 CURVE",
"198 867 OFFCURVE",
"150 866 OFFCURVE",
"132 860 CURVE",
"132 843 OFFCURVE",
"128 785 OFFCURVE",
"133 759 CURVE"
);
},
{
closed = 1;
nodes = (
"302 759 LINE SMOOTH",
"324 759 OFFCURVE",
"347 758 OFFCURVE",
"370 758 CURVE",
"372 759 LINE",
"372 760 LINE SMOOTH",
"372 777 OFFCURVE",
"378 859 OFFCURVE",
"378 861 CURVE",
"364 867 OFFCURVE",
"316 866 OFFCURVE",
"298 860 CURVE",
"298 843 OFFCURVE",
"294 785 OFFCURVE",
"299 759 CURVE"
);
},
{
closed = 1;
nodes = (
"467 670 OFFCURVE",
"464 671 OFFCURVE",
"460 671 CURVE",
"440 680 OFFCURVE",
"394 673 OFFCURVE",
"371 671 CURVE",
"366 472 OFFCURVE",
"393 226 OFFCURVE",
"311 114 CURVE SMOOTH",
"292 88 OFFCURVE",
"252 79 OFFCURVE",
"215 90 CURVE SMOOTH",
"196 96 OFFCURVE",
"181 107 OFFCURVE",
"170 124 CURVE",
"129 234 OFFCURVE",
"130 354 OFFCURVE",
"137 623 CURVE SMOOTH",
"137 640 OFFCURVE",
"137 658 OFFCURVE",
"138 677 CURVE",
"109 683 OFFCURVE",
"70 680 OFFCURVE",
"41 680 CURVE SMOOTH",
"40 680 LINE",
"41 679 LINE",
"42 591 OFFCURVE",
"41 502 OFFCURVE",
"40 413 CURVE SMOOTH",
"38 324 OFFCURVE",
"38 238 OFFCURVE",
"40 157 CURVE SMOOTH",
"46 24 OFFCURVE",
"174 -25 OFFCURVE",
"293 -14 CURVE SMOOTH",
"388 -5 OFFCURVE",
"446 63 OFFCURVE",
"457 151 CURVE SMOOTH",
"476 323 OFFCURVE",
"477 498 OFFCURVE",
"469 669 CURVE"
);
}
);
width = 505;
}
);
leftKerningGroup = U;
note = Udieresis;
rightKerningGroup = U;
unicode = 00DC;
},
{
glyphname = atilde;
layers = (
{
hints = (
{
horizontal = 1;
place = "{-1, 21}";
target = up;
type = BottomGhost;
},
{
horizontal = 1;
place = "{412, 86}";
type = Stem;
},
{
place = "{19, 84}";
type = Stem;
},
{
place = "{341, 98}";
type = Stem;
},
{
horizontal = 1;
place = "{502, -20}";
target = down;
type = TopGhost;
},
{
horizontal = 1;
place = "{-2, 90}";
type = Stem;
}
);
layerId = "95F3C079-8CB7-481A-B676-05495FEB06E6";
paths = (
{
closed = 1;
nodes = (
"126 591 LINE",
"125 647 OFFCURVE",
"155 683 OFFCURVE",
"195 689 CURVE",
"220 691 OFFCURVE",
"234 682 OFFCURVE",
"248 649 CURVE",
"268 586 OFFCURVE",
"311 579 OFFCURVE",
"354 585 CURVE SMOOTH",
"420 596 OFFCURVE",
"454 672 OFFCURVE",
"449 734 CURVE",
"449 739 OFFCURVE",
"448 742 OFFCURVE",
"448 746 CURVE",
"447 747 LINE",
"427 747 OFFCURVE",
"407 747 OFFCURVE",
"388 745 CURVE",
"389 711 OFFCURVE",
"378 664 OFFCURVE",
"336 651 CURVE SMOOTH",
"287 637 OFFCURVE",
"269 719 OFFCURVE",
"241 739 CURVE SMOOTH",
"198 768 OFFCURVE",
"141 756 OFFCURVE",
"106 720 CURVE SMOOTH",
"80 693 OFFCURVE",
"54 620 OFFCURVE",
"46 591 CURVE",
"59 592 OFFCURVE",
"71 592 OFFCURVE",
"82 592 CURVE SMOOTH",
"98 592 OFFCURVE",
"116 591 OFFCURVE",
"126 590 CURVE"
);
},
{
closed = 1;
nodes = (
"396 501 OFFCURVE",
"383 503 OFFCURVE",
"354 502 CURVE SMOOTH",
"347 502 OFFCURVE",
"341 501 OFFCURVE",
"341 500 CURVE SMOOTH",
"341 484 OFFCURVE",
"338 468 OFFCURVE",
"337 449 CURVE",
"313 497 OFFCURVE",
"254 500 OFFCURVE",
"187 497 CURVE SMOOTH",
"93 494 OFFCURVE",
"19 399 OFFCURVE",
"19 266 CURVE SMOOTH",
"19 159 OFFCURVE",
"63 -2 OFFCURVE",
"166 -2 CURVE SMOOTH",
"210 -2 OFFCURVE",
"307 5 OFFCURVE",
"344 55 CURVE",
"344 44 OFFCURVE",
"341 33 OFFCURVE",
"342 20 CURVE",
"342 9 OFFCURVE",
"345 0 OFFCURVE",
"352 -2 CURVE",
"359 -2 OFFCURVE",
"367 0 OFFCURVE",
"377 0 CURVE SMOOTH",
"387 0 OFFCURVE",
"399 -1 OFFCURVE",
"409 -1 CURVE SMOOTH",
"426 -1 LINE",
"442 2 OFFCURVE",
"439 23 OFFCURVE",
"439 40 CURVE",
"448 183 OFFCURVE",
"437 320 OFFCURVE",
"441 464 CURVE SMOOTH",
"441 474 LINE SMOOTH",
"441 482 OFFCURVE",
"440 490 OFFCURVE",
"439 498 CURVE"
);
},
{
closed = 1;
nodes = (
"121 366 OFFCURVE",
"168 414 OFFCURVE",
"242 412 CURVE",
"332 406 OFFCURVE",
"341 391 OFFCURVE",
"341 256 CURVE SMOOTH",
"341 145 OFFCURVE",
"338 87 OFFCURVE",
"233 88 CURVE",
"140 83 OFFCURVE",
"106 148 OFFCURVE",
"103 242 CURVE",
"103 267 OFFCURVE",
"104 295 OFFCURVE",
"111 320 CURVE"
);
}
);
width = 476;
}
);
leftKerningGroup = agrave;
note = atilde;
rightKerningGroup = q;
unicode = 00E3;
},
{
glyphname = adieresis;
layers = (
{
hints = (
{
horizontal = 1;
place = "{-1, 21}";
target = up;
type = BottomGhost;
},
{
horizontal = 1;
place = "{412, 86}";
type = Stem;
},
{
horizontal = 1;
place = "{629, 119}";
type = Stem;
},
{
place = "{19, 84}";
type = Stem;
},
{
place = "{145, 92}";
type = Stem;
},
{
place = "{316, 92}";
type = Stem;
},
{
horizontal = 1;
place = "{502, -20}";
target = down;
type = TopGhost;
},
{
place = "{341, 98}";
type = Stem;
},
{
horizontal = 1;
place = "{-2, 90}";
type = Stem;
}
);
layerId = "95F3C079-8CB7-481A-B676-05495FEB06E6";
paths = (
{
closed = 1;
nodes = (
"211 750 OFFCURVE",
"173 750 OFFCURVE",
"145 748 CURVE",
"144 709 OFFCURVE",
"145 661 OFFCURVE",
"147 629 CURVE",
"148 629 LINE",
"174 630 OFFCURVE",
"205 625 OFFCURVE",
"226 628 CURVE",
"231 628 OFFCURVE",
"235 629 OFFCURVE",
"237 632 CURVE",
"237 650 LINE",
"236 678 OFFCURVE",
"238 740 OFFCURVE",
"238 747 CURVE"
);
},
{
closed = 1;
nodes = (
"382 750 OFFCURVE",
"344 750 OFFCURVE",
"316 748 CURVE",
"315 709 OFFCURVE",
"316 661 OFFCURVE",
"318 629 CURVE",
"319 629 LINE",
"345 630 OFFCURVE",
"376 625 OFFCURVE",
"397 628 CURVE",
"402 628 OFFCURVE",
"406 629 OFFCURVE",
"408 632 CURVE",
"408 650 LINE",
"407 678 OFFCURVE",
"409 740 OFFCURVE",
"409 747 CURVE"
);
},
{
closed = 1;
nodes = (
"396 501 OFFCURVE",
"383 503 OFFCURVE",
"354 502 CURVE SMOOTH",
"347 502 OFFCURVE",
"341 501 OFFCURVE",
"341 500 CURVE SMOOTH",
"341 484 OFFCURVE",
"338 468 OFFCURVE",
"337 449 CURVE",
"313 497 OFFCURVE",
"254 500 OFFCURVE",
"187 497 CURVE SMOOTH",
"93 494 OFFCURVE",
"19 399 OFFCURVE",
"19 266 CURVE SMOOTH",
"19 159 OFFCURVE",
"63 -2 OFFCURVE",
"166 -2 CURVE SMOOTH",
"210 -2 OFFCURVE",
"307 5 OFFCURVE",
"344 55 CURVE",
"344 44 OFFCURVE",
"341 33 OFFCURVE",
"342 20 CURVE",
"342 9 OFFCURVE",
"345 0 OFFCURVE",
"352 -2 CURVE",
"359 -2 OFFCURVE",
"367 0 OFFCURVE",
"377 0 CURVE SMOOTH",
"387 0 OFFCURVE",
"399 -1 OFFCURVE",
"409 -1 CURVE SMOOTH",
"426 -1 LINE",
"442 2 OFFCURVE",
"439 23 OFFCURVE",
"439 40 CURVE",
"448 183 OFFCURVE",
"437 320 OFFCURVE",
"441 464 CURVE SMOOTH",
"441 474 LINE SMOOTH",
"441 482 OFFCURVE",
"440 490 OFFCURVE",
"439 498 CURVE"
);
},
{
closed = 1;
nodes = (
"121 366 OFFCURVE",
"168 414 OFFCURVE",
"242 412 CURVE",
"332 406 OFFCURVE",
"341 391 OFFCURVE",
"341 256 CURVE SMOOTH",
"341 145 OFFCURVE",
"338 87 OFFCURVE",
"233 88 CURVE",
"140 83 OFFCURVE",
"106 148 OFFCURVE",
"103 242 CURVE",
"103 267 OFFCURVE",
"104 295 OFFCURVE",
"111 320 CURVE"
);
}
);
width = 476;
}
);
leftKerningGroup = agrave;
note = adieresis;
rightKerningGroup = q;
unicode = 00E4;
},
{
glyphname = edieresis;
layers = (
{
hints = (
{
horizontal = 1;
place = "{250, 58}";
type = Stem;
},
{
horizontal = 1;
place = "{637, 120}";
type = Stem;
},
{
place = "{353, 71}";
type = Stem;
}
);
layerId = "95F3C079-8CB7-481A-B676-05495FEB06E6";
paths = (
{
closed = 1;
nodes = (
"186 755 LINE",
"173 757 OFFCURVE",
"158 756 OFFCURVE",
"142 757 CURVE",
"119 757 OFFCURVE",
"104 755 OFFCURVE",
"92 750 CURVE",
"89 714 OFFCURVE",
"94 665 OFFCURVE",
"95 637 CURVE",
"121 638 OFFCURVE",
"153 633 OFFCURVE",
"174 636 CURVE",
"179 636 OFFCURVE",
"183 637 OFFCURVE",
"185 640 CURVE",
"185 658 LINE"
);
},
{
closed = 1;
nodes = (
"357 755 LINE",
"344 756 OFFCURVE",
"329 757 OFFCURVE",
"313 757 CURVE SMOOTH",
"290 757 OFFCURVE",
"275 755 OFFCURVE",
"263 750 CURVE",
"260 714 OFFCURVE",
"264 665 OFFCURVE",
"266 636 CURVE",
"267 636 LINE",
"293 638 OFFCURVE",
"324 633 OFFCURVE",
"345 636 CURVE",
"350 636 OFFCURVE",
"354 637 OFFCURVE",
"356 640 CURVE",
"356 658 LINE"
);
},
{
closed = 1;
nodes = (
"110 253 LINE",
"118 251 OFFCURVE",
"130 250 OFFCURVE",
"147 250 CURVE",
"175 249 OFFCURVE",
"276 247 OFFCURVE",
"312 249 CURVE SMOOTH",
"364 251 OFFCURVE",
"412 255 OFFCURVE",
"424 259 CURVE",
"432 371 OFFCURVE",
"414 486 OFFCURVE",
"290 507 CURVE",
"195 531 OFFCURVE",
"78 502 OFFCURVE",
"43 423 CURVE",
"27 379 OFFCURVE",
"25 333 OFFCURVE",
"21 284 CURVE",
"15 154 OFFCURVE",
"51 8 OFFCURVE",
"164 -10 CURVE",
"176 -15 OFFCURVE",
"351 -32 OFFCURVE",
"394 34 CURVE",
"421 79 OFFCURVE",
"423 124 OFFCURVE",
"422 190 CURVE",
"390 189 OFFCURVE",
"360 194 OFFCURVE",
"325 188 CURVE",
"334 123 OFFCURVE",
"306 75 OFFCURVE",
"212 83 CURVE SMOOTH",
"92 93 OFFCURVE",
"110 212 OFFCURVE",
"110 235 CURVE SMOOTH"
);
},
{
closed = 1;
nodes = (
"334 412 OFFCURVE",
"352 367 OFFCURVE",
"353 328 CURVE SMOOTH",
"353 315 OFFCURVE",
"356 310 OFFCURVE",
"345 309 CURVE SMOOTH",
"333 308 OFFCURVE",
"308 308 OFFCURVE",
"237 308 CURVE SMOOTH",
"110 305 OFFCURVE",
"110 306 OFFCURVE",
"115 343 CURVE SMOOTH",
"123 402 OFFCURVE",
"148 447 OFFCURVE",
"242 447 CURVE SMOOTH",
"265 447 OFFCURVE",
"276 445 OFFCURVE",
"296 436 CURVE"
);
}
);
width = 444;
}
);
leftKerningGroup = egrave;
note = edieresis;
rightKerningGroup = egrave;
unicode = 00EB;
},
{
glyphname = idieresis;
layers = (
{
hints = (
{
horizontal = 1;
place = "{636, 120}";
type = Stem;
},
{
place = "{59, 97}";
type = Stem;
},
{
horizontal = 1;
place = "{503, 133}";
type = Stem;
}
);
layerId = "95F3C079-8CB7-481A-B676-05495FEB06E6";
paths = (
{
closed = 1;
nodes = (
"39 757 OFFCURVE",
"1 757 OFFCURVE",
"-28 756 CURVE",
"-28 717 OFFCURVE",
"-28 669 OFFCURVE",
"-25 636 CURVE",
"1 638 OFFCURVE",
"33 633 OFFCURVE",
"54 635 CURVE",
"59 636 OFFCURVE",
"62 637 OFFCURVE",
"64 639 CURVE",
"64 657 LINE SMOOTH",
"64 685 OFFCURVE",
"66 747 OFFCURVE",
"66 755 CURVE"
);
},
{
closed = 1;
nodes = (
"210 757 OFFCURVE",
"172 757 OFFCURVE",
"143 756 CURVE",
"143 717 OFFCURVE",
"143 669 OFFCURVE",
"146 636 CURVE",
"172 638 OFFCURVE",
"204 633 OFFCURVE",
"225 635 CURVE",
"230 636 OFFCURVE",
"233 637 OFFCURVE",
"235 639 CURVE",
"235 657 LINE SMOOTH",
"235 685 OFFCURVE",
"237 747 OFFCURVE",
"237 755 CURVE"
);
},
{
closed = 1;
nodes = (
"157 503 LINE",
"99 503 OFFCURVE",
"74 507 OFFCURVE",
"63 505 CURVE",
"63 504 LINE",
"55 425 OFFCURVE",
"57 339 OFFCURVE",
"59 261 CURVE SMOOTH",
"59 177 LINE SMOOTH",
"59 117 OFFCURVE",
"60 57 OFFCURVE",
"58 -1 CURVE",
"71 3 OFFCURVE",
"132 -3 OFFCURVE",
"156 3 CURVE",
"146 168 OFFCURVE",
"156 339 OFFCURVE",
"157 500 CURVE SMOOTH"
);
}
);
width = 207;
}
);
note = idieresis;
unicode = 00EF;
},
{
glyphname = odieresis;
layers = (
{
hints = (
{
horizontal = 1;
place = "{-7, 21}";
target = up;
type = BottomGhost;
},
{
horizontal = 1;
place = "{514, -20}";
target = down;
type = TopGhost;
},
{
horizontal = 1;
place = "{637, 119}";
type = Stem;
},
{
place = "{115, 222}";
type = Stem;
},
{
place = "{337, 88}";
type = Stem;
}
);
layerId = "95F3C079-8CB7-481A-B676-05495FEB06E6";
paths = (
{
closed = 1;
nodes = (
"156 758 OFFCURVE",
"118 758 OFFCURVE",
"89 756 CURVE",
"89 717 OFFCURVE",
"89 669 OFFCURVE",
"92 637 CURVE",
"118 638 OFFCURVE",
"150 633 OFFCURVE",
"171 636 CURVE",
"176 636 OFFCURVE",
"179 637 OFFCURVE",
"181 640 CURVE",
"181 658 LINE SMOOTH",
"181 686 OFFCURVE",
"183 748 OFFCURVE",
"183 755 CURVE"
);
},
{
closed = 1;
nodes = (
"327 758 OFFCURVE",
"289 758 OFFCURVE",
"260 756 CURVE",
"260 717 OFFCURVE",
"260 669 OFFCURVE",
"263 637 CURVE",
"289 638 OFFCURVE",
"321 633 OFFCURVE",
"342 636 CURVE",
"347 636 OFFCURVE",
"350 637 OFFCURVE",
"352 640 CURVE",
"352 658 LINE SMOOTH",
"352 686 OFFCURVE",
"354 748 OFFCURVE",
"354 755 CURVE"
);
},
{
closed = 1;
nodes = (
"25 397 OFFCURVE",
"24 367 OFFCURVE",
"24 325 CURVE",
"35 209 OFFCURVE",
"-12 23 OFFCURVE",
"161 -7 CURVE",
"238 -7 OFFCURVE",
"347 -28 OFFCURVE",
"393 37 CURVE",
"419 63 OFFCURVE",
"422 194 OFFCURVE",
"425 272 CURVE",
"422 360 OFFCURVE",
"422 445 OFFCURVE",
"384 470 CURVE",
"356 497 OFFCURVE",
"316 509 OFFCURVE",
"273 513 CURVE SMOOTH",
"245 515 OFFCURVE",
"222 511 OFFCURVE",
"195 514 CURVE",
"132 514 OFFCURVE",
"64 497 OFFCURVE",
"45 456 CURVE"
);
},
{
closed = 1;
nodes = (
"143 401 OFFCURVE",
"166 413 OFFCURVE",
"199 418 CURVE SMOOTH",
"371 440 OFFCURVE",
"342 274 OFFCURVE",
"337 179 CURVE",
"337 164 OFFCURVE",
"335 151 OFFCURVE",
"333 138 CURVE",
"317 76 OFFCURVE",
"240 73 OFFCURVE",
"187 81 CURVE",
"156 87 OFFCURVE",
"119 101 OFFCURVE",
"115 160 CURVE SMOOTH",
"113 210 OFFCURVE",
"110 250 OFFCURVE",
"111 281 CURVE",
"110 325 OFFCURVE",
"111 362 OFFCURVE",
"130 385 CURVE SMOOTH"
);
}
);
width = 448;
}
);
leftKerningGroup = o;
note = odieresis;
rightKerningGroup = o;
unicode = 00F6;
},
{
glyphname = udieresis;
layers = (
{
hints = (
{
horizontal = 1;
place = "{-1, 21}";
target = up;
type = BottomGhost;
},
{
horizontal = 1;
place = "{637, 119}";
type = Stem;
},
{
place = "{89, 92}";
type = Stem;
},
{
place = "{326, 87}";
type = Stem;
},
{
place = "{31, 92}";
type = Stem;
},
{
place = "{260, 92}";
type = Stem;
}
);
layerId = "95F3C079-8CB7-481A-B676-05495FEB06E6";
paths = (
{
closed = 1;
nodes = (
"155 758 OFFCURVE",
"117 758 OFFCURVE",
"89 756 CURVE",
"88 717 OFFCURVE",
"89 669 OFFCURVE",
"91 637 CURVE",
"92 637 LINE",
"118 638 OFFCURVE",
"149 633 OFFCURVE",
"170 636 CURVE",
"175 636 OFFCURVE",
"179 637 OFFCURVE",
"181 640 CURVE",
"181 658 LINE",
"180 686 OFFCURVE",
"182 748 OFFCURVE",
"182 755 CURVE"
);
},
{
closed = 1;
nodes = (
"326 758 OFFCURVE",
"288 758 OFFCURVE",
"260 756 CURVE",
"259 717 OFFCURVE",
"260 669 OFFCURVE",
"262 637 CURVE",
"263 637 LINE",
"289 638 OFFCURVE",
"320 633 OFFCURVE",
"341 636 CURVE",
"346 636 OFFCURVE",
"350 637 OFFCURVE",
"352 640 CURVE",
"352 658 LINE",
"351 686 OFFCURVE",
"353 748 OFFCURVE",
"353 755 CURVE"
);
},
{
closed = 1;
nodes = (
"325 39 OFFCURVE",
"324 25 OFFCURVE",
"326 0 CURVE",
"326 -6 OFFCURVE",
"355 -1 OFFCURVE",
"364 -1 CURVE",
"382 1 OFFCURVE",
"389 2 OFFCURVE",
"413 2 CURVE",
"418 178 OFFCURVE",
"412 339 OFFCURVE",
"412 503 CURVE",
"371 500 OFFCURVE",
"357 504 OFFCURVE",
"328 496 CURVE",
"328 492 LINE",
"327 467 OFFCURVE",
"326 441 OFFCURVE",
"326 415 CURVE SMOOTH",
"327 367 OFFCURVE",
"332 269 OFFCURVE",
"331 221 CURVE SMOOTH",
"330 140 OFFCURVE",
"275 88 OFFCURVE",
"171 105 CURVE",
"140 113 OFFCURVE",
"126 133 OFFCURVE",
"123 178 CURVE SMOOTH",
"120 225 OFFCURVE",
"120 265 OFFCURVE",
"119 290 CURVE SMOOTH",
"116 358 OFFCURVE",
"121 444 OFFCURVE",
"116 500 CURVE",
"86 500 OFFCURVE",
"64 501 OFFCURVE",
"34 498 CURVE",
"38 430 OFFCURVE",
"32 323 OFFCURVE",
"31 229 CURVE SMOOTH",
"32 133 OFFCURVE",
"29 59 OFFCURVE",
"57 34 CURVE",
"98 -6 OFFCURVE",
"181 -4 OFFCURVE",
"263 25 CURVE",
"301 34 OFFCURVE",
"317 49 OFFCURVE",
"324 53 CURVE"
);
}
);
width = 449;
}
);
leftKerningGroup = u;
note = udieresis;
rightKerningGroup = q;
unicode = 00FC;
},
{
glyphname = yacute;
layers = (
{
hints = (
{
horizontal = 1;
place = "{-177, 90}";
type = Stem;
},
{
horizontal = 1;
place = "{746, -20}";
target = down;
type = TopGhost;
}
);
layerId = "95F3C079-8CB7-481A-B676-05495FEB06E6";
paths = (
{
closed = 1;
nodes = (
"354 710 OFFCURVE",
"336 728 OFFCURVE",
"319 746 CURVE",
"279 709 OFFCURVE",
"207 630 OFFCURVE",
"160 587 CURVE",
"173 583 OFFCURVE",
"219 580 OFFCURVE",
"259 584 CURVE",
"265 595 OFFCURVE",
"362 687 OFFCURVE",
"371 693 CURVE"
);
},
{
closed = 1;
nodes = (
"161 279 OFFCURVE",
"205 98 OFFCURVE",
"229 52 CURVE",
"265 95 OFFCURVE",
"326 454 OFFCURVE",
"343 497 CURVE",
"374 497 OFFCURVE",
"404 500 OFFCURVE",
"441 499 CURVE",
"420 419 OFFCURVE",
"404 347 OFFCURVE",
"387 278 CURVE SMOOTH",
"337 80 OFFCURVE",
"332 -197 OFFCURVE",
"-6 -177 CURVE",
"-16 -149 OFFCURVE",
"-16 -113 OFFCURVE",
"-10 -87 CURVE",
"80 -94 OFFCURVE",
"162 -86 OFFCURVE",
"148 -15 CURVE",
"75 245 OFFCURVE",
"47 337 OFFCURVE",
"3 500 CURVE",
"37 498 OFFCURVE",
"74 501 OFFCURVE",
"103 497 CURVE"
);
}
);
width = 449;
}
);
leftKerningGroup = y;
note = yacute;
rightKerningGroup = y;
unicode = 00FD;
},
{
glyphname = ydieresis;
layers = (
{
hints = (
{
horizontal = 1;
place = "{-177, 90}";
type = Stem;
},
{
horizontal = 1;
place = "{637, 119}";
type = Stem;
}
);
layerId = "95F3C079-8CB7-481A-B676-05495FEB06E6";
paths = (
{
closed = 1;
nodes = (
"160 758 OFFCURVE",
"122 758 OFFCURVE",
"93 756 CURVE",
"93 717 OFFCURVE",
"93 669 OFFCURVE",
"96 637 CURVE",
"122 638 OFFCURVE",
"154 633 OFFCURVE",
"175 636 CURVE",
"180 636 OFFCURVE",
"183 637 OFFCURVE",
"185 640 CURVE",
"185 658 LINE SMOOTH",
"185 686 OFFCURVE",
"187 748 OFFCURVE",
"187 755 CURVE"
);
},
{
closed = 1;
nodes = (
"331 758 OFFCURVE",
"293 758 OFFCURVE",
"264 756 CURVE",
"264 717 OFFCURVE",
"264 669 OFFCURVE",
"267 637 CURVE",
"293 638 OFFCURVE",
"325 633 OFFCURVE",
"346 636 CURVE",
"351 636 OFFCURVE",
"354 637 OFFCURVE",
"356 640 CURVE",
"356 658 LINE SMOOTH",
"356 686 OFFCURVE",
"358 748 OFFCURVE",
"358 755 CURVE"
);
},
{
closed = 1;
nodes = (
"74 501 OFFCURVE",
"37 498 OFFCURVE",
"3 500 CURVE",
"47 337 OFFCURVE",
"75 245 OFFCURVE",
"148 -15 CURVE",
"162 -86 OFFCURVE",
"80 -94 OFFCURVE",
"-10 -87 CURVE",
"-16 -113 OFFCURVE",
"-16 -149 OFFCURVE",
"-6 -177 CURVE",
"332 -197 OFFCURVE",
"337 80 OFFCURVE",
"387 278 CURVE SMOOTH",
"404 347 OFFCURVE",
"420 419 OFFCURVE",
"441 499 CURVE",
"404 500 OFFCURVE",
"374 497 OFFCURVE",
"343 497 CURVE",
"326 454 OFFCURVE",
"265 95 OFFCURVE",
"229 52 CURVE",
"205 98 OFFCURVE",
"161 279 OFFCURVE",
"103 497 CURVE"
);
}
);
width = 449;
}
);
leftKerningGroup = y;
note = ydieresis;
rightKerningGroup = y;
unicode = 00FF;
},
{
glyphname = Igrave;
layers = (
{
hints = (
{
horizontal = 1;
place = "{910, -20}";
target = down;
type = TopGhost;
},
{
place = "{66, 121}";
type = Stem;
}
);
layerId = "95F3C079-8CB7-481A-B676-05495FEB06E6";
paths = (
{
closed = 1;
nodes = (
"19 893 OFFCURVE",
"1 875 OFFCURVE",
"-16 857 CURVE",
"-7 853 OFFCURVE",
"89 760 OFFCURVE",
"96 749 CURVE",
"135 744 OFFCURVE",
"181 748 OFFCURVE",
"195 752 CURVE",
"149 795 OFFCURVE",
"75 874 OFFCURVE",
"36 910 CURVE"
);
},
{
closed = 1;
nodes = (
"188 703 LINE",
"116 704 OFFCURVE",
"113 711 OFFCURVE",
"75 708 CURVE",
"75 706 LINE",
"69 650 OFFCURVE",
"66 592 OFFCURVE",
"66 534 CURVE SMOOTH",
"67 461 OFFCURVE",
"69 374 OFFCURVE",
"70 274 CURVE SMOOTH",
"72 175 OFFCURVE",
"71 81 OFFCURVE",
"67 -4 CURVE",
"94 2 OFFCURVE",
"169 -10 OFFCURVE",
"187 3 CURVE",
"177 234 OFFCURVE",
"187 469 OFFCURVE",
"188 699 CURVE SMOOTH"
);
}
);
width = 260;
}
);
note = Igrave;
rightKerningGroup = I;
unicode = 00CC;
},
{
glyphname = Iacute;
layers = (
{
hints = (
{
horizontal = 1;
place = "{911, -20}";
target = down;
type = TopGhost;
},
{
place = "{70, 118}";
type = Stem;
}
);
layerId = "95F3C079-8CB7-481A-B676-05495FEB06E6";
paths = (
{
closed = 1;
nodes = (
"279 876 OFFCURVE",
"262 894 OFFCURVE",
"245 911 CURVE",
"205 876 OFFCURVE",
"132 796 OFFCURVE",
"85 753 CURVE",
"99 749 OFFCURVE",
"145 745 OFFCURVE",
"185 750 CURVE",
"193 764 OFFCURVE",
"287 853 OFFCURVE",
"296 858 CURVE"
);
},
{
closed = 1;
nodes = (
"188 699 LINE SMOOTH",
"187 469 OFFCURVE",
"177 234 OFFCURVE",
"187 3 CURVE",
"169 -10 OFFCURVE",
"94 2 OFFCURVE",
"67 -4 CURVE",
"71 81 OFFCURVE",
"72 175 OFFCURVE",
"70 274 CURVE SMOOTH",
"69 374 OFFCURVE",
"67 461 OFFCURVE",
"66 534 CURVE",
"66 592 OFFCURVE",
"69 650 OFFCURVE",
"75 706 CURVE",
"75 708 LINE",
"113 711 OFFCURVE",
"116 704 OFFCURVE",
"188 703 CURVE"
);
}
);
width = 259;
}
);
note = Iacute;
rightKerningGroup = I;
unicode = 00CD;
},
{
glyphname = Icircumflex;
layers = (
{
hints = (
{
horizontal = 1;
place = "{916, -20}";
target = down;
type = TopGhost;
},
{
place = "{66, 121}";
type = Stem;
}
);
layerId = "95F3C079-8CB7-481A-B676-05495FEB06E6";
paths = (
{
closed = 1;
nodes = (
"142 916 LINE",
"81 859 OFFCURVE",
"35 822 OFFCURVE",
"-19 754 CURVE",
"46 751 OFFCURVE",
"46 750 OFFCURVE",
"64 752 CURVE",
"84 758 OFFCURVE",
"135 825 OFFCURVE",
"142 828 CURVE",
"147 825 OFFCURVE",
"159 813 OFFCURVE",
"168 801 CURVE",
"191 779 LINE SMOOTH",
"209 761 OFFCURVE",
"220 750 OFFCURVE",
"224 750 CURVE",
"269 748 OFFCURVE",
"301 757 OFFCURVE",
"304 755 CURVE"
);
},
{
closed = 1;
nodes = (
"188 703 LINE",
"116 704 OFFCURVE",
"113 711 OFFCURVE",
"75 708 CURVE",
"75 706 LINE",
"69 650 OFFCURVE",
"66 592 OFFCURVE",
"66 534 CURVE SMOOTH",
"67 461 OFFCURVE",
"69 374 OFFCURVE",
"70 274 CURVE SMOOTH",
"72 175 OFFCURVE",
"71 81 OFFCURVE",
"67 -4 CURVE",
"94 2 OFFCURVE",
"169 -10 OFFCURVE",
"187 3 CURVE",
"177 234 OFFCURVE",
"187 469 OFFCURVE",
"188 699 CURVE SMOOTH"
);
}
);
width = 260;
}
);
note = Icircumflex;
rightKerningGroup = I;
unicode = 00CE;
},
{
glyphname = d;
layers = (
{
hints = (
{
horizontal = 1;
place = "{3, 83}";
type = Stem;
},
{
place = "{21, 80}";
type = Stem;
},
{
place = "{336, 87}";
type = Stem;
}
);
layerId = "95F3C079-8CB7-481A-B676-05495FEB06E6";
paths = (
{
closed = 1;
nodes = (
"336 690 LINE",
"334 664 OFFCURVE",
"336 621 OFFCURVE",
"335 610 CURVE SMOOTH",
"334 597 OFFCURVE",
"335 556 OFFCURVE",
"336 446 CURVE",
"335 453 OFFCURVE",
"310 492 OFFCURVE",
"265 498 CURVE",
"226 506 OFFCURVE",
"169 506 OFFCURVE",
"122 493 CURVE SMOOTH",
"42 472 OFFCURVE",
"21 385 OFFCURVE",
"21 285 CURVE SMOOTH",
"24 150 OFFCURVE",
"38 14 OFFCURVE",
"189 3 CURVE",
"214 0 OFFCURVE",
"242 1 OFFCURVE",
"273 11 CURVE",
"298 16 OFFCURVE",
"322 43 OFFCURVE",
"330 62 CURVE",
"339 33 OFFCURVE",
"333 4 OFFCURVE",
"336 1 CURVE",
"366 -3 OFFCURVE",
"402 -1 OFFCURVE",
"429 1 CURVE",
"434 193 OFFCURVE",
"423 415 OFFCURVE",
"423 638 CURVE SMOOTH",
"423 704 LINE",
"385 709 OFFCURVE",
"337 705 OFFCURVE",
"336 701 CURVE"
);
},
{
closed = 1;
nodes = (
"110 403 OFFCURVE",
"156 434 OFFCURVE",
"239 428 CURVE SMOOTH",
"330 423 OFFCURVE",
"334 359 OFFCURVE",
"335 265 CURVE SMOOTH",
"335 163 OFFCURVE",
"326 86 OFFCURVE",
"225 86 CURVE SMOOTH",
"146 86 OFFCURVE",
"106 119 OFFCURVE",
"101 254 CURVE",
"101 276 OFFCURVE",
"101 298 OFFCURVE",
"104 320 CURVE"
);
}
);
width = 463;
}
);
leftKerningGroup = d;
note = d;
unicode = 0064;
},
{
glyphname = period;
layers = (
{
hints = (
{
horizontal = 1;
place = "{1, 21}";
target = up;
type = BottomGhost;
}
);
layerId = "95F3C079-8CB7-481A-B676-05495FEB06E6";
paths = (
{
closed = 1;
nodes = (
"57 1 LINE",
"133 0 LINE",
"135 0 LINE",
"135 2 LINE SMOOTH",
"135 21 OFFCURVE",
"141 117 OFFCURVE",
"141 119 CURVE",
"126 125 OFFCURVE",
"78 127 OFFCURVE",
"53 117 CURVE",
"53 98 OFFCURVE",
"49 31 OFFCURVE",
"54 1 CURVE"
);
}
);
width = 189;
}
);
leftKerningGroup = period;
note = period;
rightKerningGroup = period;
unicode = 002E;
},
{
glyphname = ellipsis;
layers = (
{
hints = (
{
horizontal = 1;
place = "{1, 21}";
target = up;
type = BottomGhost;
}
);
layerId = "95F3C079-8CB7-481A-B676-05495FEB06E6";
paths = (
{
closed = 1;
nodes = (
"57 1 LINE",
"133 0 LINE",
"135 0 LINE",
"135 2 LINE SMOOTH",
"135 21 OFFCURVE",
"141 117 OFFCURVE",
"141 119 CURVE",
"126 125 OFFCURVE",
"78 127 OFFCURVE",
"53 117 CURVE",
"53 98 OFFCURVE",
"49 31 OFFCURVE",
"54 1 CURVE"
);
},
{
closed = 1;
nodes = (
"221 1 LINE",
"297 0 LINE",
"299 0 LINE",
"299 2 LINE SMOOTH",
"299 21 OFFCURVE",
"305 117 OFFCURVE",
"305 119 CURVE",
"290 125 OFFCURVE",
"242 127 OFFCURVE",
"217 117 CURVE",
"217 97 OFFCURVE",
"213 32 OFFCURVE",
"218 1 CURVE"
);
},
{
closed = 1;
nodes = (
"387 1 LINE",
"463 0 LINE",
"465 0 LINE",
"465 2 LINE SMOOTH",
"465 21 OFFCURVE",
"471 117 OFFCURVE",
"471 119 CURVE",
"456 125 OFFCURVE",
"408 127 OFFCURVE",
"383 117 CURVE",
"383 98 OFFCURVE",
"379 31 OFFCURVE",
"384 1 CURVE"
);
}
);
width = 520;
}
);
leftKerningGroup = period;
note = ellipsis;
unicode = 2026;
},
{
glyphname = equal;
layers = (
{
hints = (
{
horizontal = 1;
place = "{132, 101}";
type = Stem;
},
{
horizontal = 1;
place = "{341, 100}";
type = Stem;
}
);
layerId = "95F3C079-8CB7-481A-B676-05495FEB06E6";
paths = (
{
closed = 1;
nodes = (
"52 347 OFFCURVE",
"387 341 OFFCURVE",
"421 341 CURVE SMOOTH",
"425 341 LINE",
"420 373 OFFCURVE",
"423 408 OFFCURVE",
"422 441 CURVE",
"41 441 LINE",
"41 429 OFFCURVE",
"38 369 OFFCURVE",
"38 347 CURVE"
);
},
{
closed = 1;
nodes = (
"52 139 OFFCURVE",
"387 132 OFFCURVE",
"421 132 CURVE SMOOTH",
"425 132 LINE",
"420 165 OFFCURVE",
"423 200 OFFCURVE",
"422 233 CURVE",
"41 233 LINE",
"41 221 OFFCURVE",
"38 160 OFFCURVE",
"38 139 CURVE"
);
}
);
width = 466;
}
);
note = equal;
unicode = 003D;
},
{
glyphname = grave;
layers = (
{
hints = (
{
horizontal = 1;
place = "{685, -20}";
target = down;
type = TopGhost;
}
);
layerId = "95F3C079-8CB7-481A-B676-05495FEB06E6";
paths = (
{
closed = 1;
nodes = (
"60 669 OFFCURVE",
"43 653 OFFCURVE",
"25 637 CURVE",
"25 636 LINE",
"56 595 OFFCURVE",
"125 543 OFFCURVE",
"137 524 CURVE",
"177 519 OFFCURVE",
"223 523 OFFCURVE",
"237 527 CURVE",
"190 570 OFFCURVE",
"117 649 OFFCURVE",
"77 685 CURVE"
);
}
);
width = 255;
}
);
note = grave;
unicode = 0060;
},
{
glyphname = Adieresis;
layers = (
{
hints = (
{
horizontal = 1;
place = "{-2, 21}";
target = up;
type = BottomGhost;
},
{
horizontal = 1;
place = "{168, 81}";
type = Stem;
},
{
horizontal = 1;
place = "{578.1, 126.9}";
type = Stem;
},
{
horizontal = 1;
place = "{759, 106}";
type = Stem;
},
{
place = "{92, 74}";
type = Stem;
},
{
place = "{258, 74}";
type = Stem;
}
);
layerId = "95F3C079-8CB7-481A-B676-05495FEB06E6";
paths = (
{
closed = 1;
nodes = (
"96 759 LINE SMOOTH",
"118 759 OFFCURVE",
"141 758 OFFCURVE",
"164 758 CURVE SMOOTH",
"166 758 LINE",
"166 765 LINE SMOOTH",
"166 788 OFFCURVE",
"172 859 OFFCURVE",
"172 861 CURVE",
"158 867 OFFCURVE",
"110 866 OFFCURVE",
"92 860 CURVE",
"92 843 OFFCURVE",
"88 785 OFFCURVE",
"93 759 CURVE"
);
},
{
closed = 1;
nodes = (
"262 759 LINE SMOOTH",
"284 759 OFFCURVE",
"307 758 OFFCURVE",
"330 758 CURVE",
"332 759 LINE",
"332 760 LINE SMOOTH",
"332 777 OFFCURVE",
"338 859 OFFCURVE",
"338 861 CURVE",
"324 867 OFFCURVE",
"276 866 OFFCURVE",
"258 860 CURVE",
"258 843 OFFCURVE",
"254 785 OFFCURVE",
"259 759 CURVE"
);
},
{
closed = 1;
nodes = (
"437 1 LINE",
"390 220 OFFCURVE",
"335 464 OFFCURVE",
"280 705 CURVE",
"189 697 OFFCURVE",
"183 703 OFFCURVE",
"161 700 CURVE",
"52 387 OFFCURVE",
"12 29 OFFCURVE",
"4 2 CURVE",
"4 1 LINE",
"15 1 LINE SMOOTH",
"64 2 OFFCURVE",
"87 -1 OFFCURVE",
"96 1 CURVE SMOOTH",
"116 5 OFFCURVE",
"131 143 OFFCURVE",
"138 170 CURVE",
"197 169 OFFCURVE",
"240 171 OFFCURVE",
"301 168 CURVE",
"325 93 OFFCURVE",
"331 47 OFFCURVE",
"347 2 CURVE",
"348 2 LINE",
"355 0 OFFCURVE",
"363 -1 OFFCURVE",
"371 -2 CURVE",
"385 -5 OFFCURVE",
"408 -5 OFFCURVE",
"437 0 CURVE"
);
},
{
closed = 1;
nodes = (
"253 248 OFFCURVE",
"215 248 OFFCURVE",
"189 248 CURVE",
"164 249 OFFCURVE",
"146 248 OFFCURVE",
"137 249 CURVE",
"199 582 OFFCURVE",
"198 587 OFFCURVE",
"236 575 CURVE",
"243 568 OFFCURVE",
"265 462 OFFCURVE",
"303 249 CURVE"
);
}
);
width = 434;
}
);
leftKerningGroup = A;
note = Adieresis;
rightKerningGroup = A;
unicode = 00C4;
},
{
glyphname = Idieresis;
layers = (
{
hints = (
{
horizontal = 1;
place = "{703, 55}";
type = Stem;
},
{
place = "{66, 121}";
type = Stem;
}
);
layerId = "95F3C079-8CB7-481A-B676-05495FEB06E6";
paths = (
{
closed = 1;
nodes = (
"20 759 LINE SMOOTH",
"42 759 OFFCURVE",
"65 758 OFFCURVE",
"88 758 CURVE",
"90 759 LINE",
"90 760 LINE SMOOTH",
"90 777 OFFCURVE",
"96 859 OFFCURVE",
"96 861 CURVE",
"82 867 OFFCURVE",
"34 866 OFFCURVE",
"16 860 CURVE",
"16 843 OFFCURVE",
"12 785 OFFCURVE",
"17 759 CURVE"
);
},
{
closed = 1;
nodes = (
"186 759 LINE SMOOTH",
"208 759 OFFCURVE",
"231 758 OFFCURVE",
"254 758 CURVE",
"256 759 LINE",
"256 760 LINE SMOOTH",
"256 778 OFFCURVE",
"262 859 OFFCURVE",
"262 861 CURVE",
"248 867 OFFCURVE",
"200 866 OFFCURVE",
"182 860 CURVE",
"182 843 OFFCURVE",
"178 785 OFFCURVE",
"183 759 CURVE"
);
},
{
closed = 1;
nodes = (
"188 703 LINE",
"116 704 OFFCURVE",
"113 711 OFFCURVE",
"75 708 CURVE",
"75 706 LINE",
"69 650 OFFCURVE",
"66 592 OFFCURVE",
"66 534 CURVE SMOOTH",
"67 461 OFFCURVE",
"69 374 OFFCURVE",
"70 274 CURVE SMOOTH",
"72 175 OFFCURVE",
"71 81 OFFCURVE",
"67 -4 CURVE",
"94 2 OFFCURVE",
"169 -10 OFFCURVE",
"187 3 CURVE",
"177 234 OFFCURVE",
"187 469 OFFCURVE",
"188 699 CURVE SMOOTH"
);
}
);
width = 260;
}
);
note = Idieresis;
rightKerningGroup = I;
unicode = 00CF;
},
{
glyphname = colon;
layers = (
{
hints = (
{
horizontal = 1;
place = "{1, 21}";
target = up;
type = BottomGhost;
}
);
layerId = "95F3C079-8CB7-481A-B676-05495FEB06E6";
paths = (
{
closed = 1;
nodes = (
"64 337 LINE",
"141 336 LINE",
"143 336 LINE",
"143 338 LINE SMOOTH",
"143 357 OFFCURVE",
"149 453 OFFCURVE",
"149 455 CURVE",
"133 461 OFFCURVE",
"86 463 OFFCURVE",
"60 453 CURVE",
"60 434 OFFCURVE",
"56 367 OFFCURVE",
"61 337 CURVE"
);
},
{
closed = 1;
nodes = (
"64 1 LINE",
"140 0 LINE",
"142 0 LINE",
"142 2 LINE SMOOTH",
"142 21 OFFCURVE",
"148 117 OFFCURVE",
"148 119 CURVE",
"133 125 OFFCURVE",
"85 127 OFFCURVE",
"60 117 CURVE",
"60 98 OFFCURVE",
"56 31 OFFCURVE",
"61 1 CURVE"
);
}
);
width = 205;
}
);
leftKerningGroup = colon;
note = colon;
rightKerningGroup = colon;
unicode = 003A;
},
{
glyphname = divide;
layers = (
{
hints = (
{
horizontal = 1;
place = "{1, 21}";
target = up;
type = BottomGhost;
},
{
horizontal = 1;
place = "{272, 65}";
type = Stem;
}
);
layerId = "95F3C079-8CB7-481A-B676-05495FEB06E6";
paths = (
{
closed = 1;
nodes = (
"189 337 LINE SMOOTH",
"215 337 OFFCURVE",
"240 336 OFFCURVE",
"266 336 CURVE SMOOTH",
"268 336 LINE",
"268 342 LINE SMOOTH",
"268 367 OFFCURVE",
"274 453 OFFCURVE",
"274 455 CURVE",
"258 461 OFFCURVE",
"211 463 OFFCURVE",
"185 453 CURVE",
"185 434 OFFCURVE",
"181 367 OFFCURVE",
"186 337 CURVE"
);
},
{
closed = 1;
nodes = (
"35 185 OFFCURVE",
"411 179 OFFCURVE",
"438 179 CURVE SMOOTH",
"442 179 LINE",
"438 210 OFFCURVE",
"440 241 OFFCURVE",
"439 272 CURVE",
"25 272 LINE",
"25 260 OFFCURVE",
"22 204 OFFCURVE",
"22 185 CURVE"
);
},
{
closed = 1;
nodes = (
"189 1 LINE SMOOTH",
"214 1 OFFCURVE",
"240 0 OFFCURVE",
"265 0 CURVE SMOOTH",
"267 0 LINE",
"267 6 LINE",
"273 119 LINE",
"258 125 OFFCURVE",
"210 127 OFFCURVE",
"185 117 CURVE",
"185 98 OFFCURVE",
"181 31 OFFCURVE",
"186 1 CURVE"
);
}
);
width = 466;
}
);
note = divide;
unicode = 00F7;
},
{
glyphname = semicolon;
layers = (
{
hints = (
{
horizontal = 1;
place = "{-100, 21}";
target = up;
type = BottomGhost;
},
{
place = "{59, 90}";
type = Stem;
}
);
layerId = "95F3C079-8CB7-481A-B676-05495FEB06E6";
paths = (
{
closed = 1;
nodes = (
"63 337 LINE",
"143 336 LINE",
"145 336 LINE",
"145 338 LINE SMOOTH",
"145 357 OFFCURVE",
"151 453 OFFCURVE",
"151 455 CURVE",
"136 461 OFFCURVE",
"85 463 OFFCURVE",
"59 453 CURVE",
"59 434 OFFCURVE",
"55 367 OFFCURVE",
"60 337 CURVE"
);
},
{
closed = 1;
nodes = (
"140 -21 LINE",
"141 -14 OFFCURVE",
"144 -4 OFFCURVE",
"144 1 CURVE SMOOTH",
"144 2 OFFCURVE",
"145 3 OFFCURVE",
"145 4 CURVE",
"147 4 LINE",
"151 119 LINE",
"150 119 LINE",
"116 121 OFFCURVE",
"87 126 OFFCURVE",
"60 120 CURVE",
"59 120 LINE",
"59 119 LINE",
"54 10 OFFCURVE",
"55 7 OFFCURVE",
"55 4 CURVE",
"56 3 OFFCURVE",
"57 3 OFFCURVE",
"58 3 CURVE",
"91 -1 LINE",
"86 -37 OFFCURVE",
"67 -94 OFFCURVE",
"71 -98 CURVE",
"101 -99 OFFCURVE",
"119 -98 OFFCURVE",
"124 -100 CURVE",
"127 -87 OFFCURVE",
"129 -74 OFFCURVE",
"132 -61 CURVE SMOOTH"
);
}
);
width = 205;
}
);
leftKerningGroup = colon;
note = semicolon;
rightKerningGroup = colon;
unicode = 003B;
},
{
glyphname = comma;
layers = (
{
hints = (
{
horizontal = 1;
place = "{-100, 21}";
target = up;
type = BottomGhost;
},
{
place = "{55, 90}";
type = Stem;
}
);
layerId = "95F3C079-8CB7-481A-B676-05495FEB06E6";
paths = (
{
closed = 1;
nodes = (
"136 -21 LINE",
"137 -14 OFFCURVE",
"140 -4 OFFCURVE",
"140 1 CURVE SMOOTH",
"140 2 OFFCURVE",
"141 3 OFFCURVE",
"141 4 CURVE",
"143 4 LINE",
"147 119 LINE",
"146 119 LINE",
"112 121 OFFCURVE",
"83 126 OFFCURVE",
"56 120 CURVE",
"55 120 LINE",
"55 119 LINE",
"50 10 OFFCURVE",
"51 7 OFFCURVE",
"51 4 CURVE",
"52 3 OFFCURVE",
"53 3 OFFCURVE",
"54 3 CURVE",
"87 -1 LINE",
"82 -37 OFFCURVE",
"63 -94 OFFCURVE",
"67 -98 CURVE",
"97 -99 OFFCURVE",
"115 -98 OFFCURVE",
"120 -100 CURVE",
"123 -87 OFFCURVE",
"125 -74 OFFCURVE",
"128 -61 CURVE SMOOTH"
);
}
);
width = 188;
}
);
leftKerningGroup = period;
note = comma;
rightKerningGroup = period;
unicode = 002C;
},
{
glyphname = quotesinglbase;
layers = (
{
hints = (
{
horizontal = 1;
place = "{150, -20}";
target = down;
type = TopGhost;
}
);
layerId = "95F3C079-8CB7-481A-B676-05495FEB06E6";
paths = (
{
closed = 1;
nodes = (
"96 -95 LINE",
"97 -93 OFFCURVE",
"99 -88 OFFCURVE",
"100 -82 CURVE",
"124 -8 OFFCURVE",
"142 71 OFFCURVE",
"162 150 CURVE",
"137 151 OFFCURVE",
"125 150 OFFCURVE",
"106 150 CURVE",
"78 151 OFFCURVE",
"82 151 OFFCURVE",
"81 143 CURVE",
"60 74 OFFCURVE",
"37 -16 OFFCURVE",
"17 -96 CURVE",
"23 -102 OFFCURVE",
"75 -95 OFFCURVE",
"86 -95 CURVE SMOOTH"
);
}
);
width = 196;
}
);
leftKerningGroup = period;
note = quotesinglbase;
rightKerningGroup = period;
unicode = 201A;
},
{
glyphname = quotedblleft;
layers = (
{
hints = (
{
horizontal = 1;
place = "{457, 21}";
target = up;
type = BottomGhost;
},
{
horizontal = 1;
place = "{708, -20}";
target = down;
type = TopGhost;
}
);
layerId = "95F3C079-8CB7-481A-B676-05495FEB06E6";
paths = (
{
closed = 1;
nodes = (
"101 703 LINE",
"100 702 OFFCURVE",
"100 701 OFFCURVE",
"100 701 CURVE",
"67 610 OFFCURVE",
"65 579 OFFCURVE",
"33 458 CURVE",
"62 457 LINE SMOOTH",
"84 457 OFFCURVE",
"111 459 OFFCURVE",
"114 458 CURVE",
"119 476 OFFCURVE",
"168 660 OFFCURVE",
"178 704 CURVE",
"177 707 OFFCURVE",
"171 708 OFFCURVE",
"161 708 CURVE",
"139 709 OFFCURVE",
"109 703 OFFCURVE",
"102 703 CURVE SMOOTH"
);
},
{
closed = 1;
nodes = (
"259 703 LINE",
"258 702 OFFCURVE",
"258 701 OFFCURVE",
"258 701 CURVE",
"225 610 OFFCURVE",
"223 579 OFFCURVE",
"191 458 CURVE",
"220 457 LINE SMOOTH",
"242 457 OFFCURVE",
"269 459 OFFCURVE",
"272 458 CURVE",
"277 476 OFFCURVE",
"326 660 OFFCURVE",
"336 704 CURVE",
"335 707 OFFCURVE",
"329 708 OFFCURVE",
"319 708 CURVE",
"297 709 OFFCURVE",
"267 703 OFFCURVE",
"260 703 CURVE SMOOTH"
);
}
);
width = 367;
}
);
leftKerningGroup = quotedblleft;
note = quotedblleft;
rightKerningGroup = quotedblleft;
unicode = 201C;
},
{
glyphname = quotedblright;
layers = (
{
hints = (
{
horizontal = 1;
place = "{708, -20}";
target = down;
type = TopGhost;
}
);
layerId = "95F3C079-8CB7-481A-B676-05495FEB06E6";
paths = (
{
closed = 1;
nodes = (
"113 461 LINE",
"114 463 OFFCURVE",
"115 468 OFFCURVE",
"117 474 CURVE SMOOTH",
"140 548 OFFCURVE",
"158 627 OFFCURVE",
"179 706 CURVE",
"175 708 OFFCURVE",
"167 708 OFFCURVE",
"156 708 CURVE SMOOTH",
"96 709 OFFCURVE",
"100 708 OFFCURVE",
"97 699 CURVE",
"77 630 OFFCURVE",
"53 540 OFFCURVE",
"33 460 CURVE",
"39 454 OFFCURVE",
"92 461 OFFCURVE",
"102 461 CURVE SMOOTH"
);
},
{
closed = 1;
nodes = (
"271 461 LINE",
"272 463 OFFCURVE",
"273 468 OFFCURVE",
"275 474 CURVE SMOOTH",
"298 548 OFFCURVE",
"316 627 OFFCURVE",
"337 706 CURVE",
"333 708 OFFCURVE",
"325 708 OFFCURVE",
"314 708 CURVE SMOOTH",
"254 709 OFFCURVE",
"258 708 OFFCURVE",
"255 699 CURVE",
"235 630 OFFCURVE",
"211 540 OFFCURVE",
"191 460 CURVE",
"197 454 OFFCURVE",
"250 461 OFFCURVE",
"260 461 CURVE SMOOTH"
);
}
);
width = 367;
}
);
leftKerningGroup = quotedblright;
note = quotedblright;
rightKerningGroup = quotedblright;
unicode = 201D;
},
{
glyphname = quoteleft;
layers = (
{
hints = (
{
horizontal = 1;
place = "{708, -20}";
target = down;
type = TopGhost;
}
);
layerId = "95F3C079-8CB7-481A-B676-05495FEB06E6";
paths = (
{
closed = 1;
nodes = (
"113 461 LINE",
"114 463 OFFCURVE",
"115 468 OFFCURVE",
"117 474 CURVE SMOOTH",
"140 548 OFFCURVE",
"158 627 OFFCURVE",
"179 706 CURVE",
"175 708 OFFCURVE",
"167 708 OFFCURVE",
"156 708 CURVE SMOOTH",
"96 709 OFFCURVE",
"101 709 OFFCURVE",
"100 706 CURVE SMOOTH",
"77 638 OFFCURVE",
"53 540 OFFCURVE",
"33 460 CURVE",
"39 454 OFFCURVE",
"92 461 OFFCURVE",
"102 461 CURVE SMOOTH"
);
}
);
width = 207;
}
);
leftKerningGroup = quotedblleft;
note = quoteleft;
rightKerningGroup = quotedblleft;
unicode = 2018;
},
{
glyphname = quoteright;
layers = (
{
hints = (
{
horizontal = 1;
place = "{461, 245}";
type = Stem;
},
{
place = "{33, 146}";
type = Stem;
}
);
layerId = "95F3C079-8CB7-481A-B676-05495FEB06E6";
paths = (
{
closed = 1;
nodes = (
"113 461 LINE",
"114 463 OFFCURVE",
"115 468 OFFCURVE",
"117 474 CURVE SMOOTH",
"140 548 OFFCURVE",
"158 627 OFFCURVE",
"179 706 CURVE",
"175 708 OFFCURVE",
"167 708 OFFCURVE",
"156 708 CURVE SMOOTH",
"96 709 OFFCURVE",
"103 715 OFFCURVE",
"100 706 CURVE",
"80 637 OFFCURVE",
"53 540 OFFCURVE",
"33 460 CURVE",
"39 454 OFFCURVE",
"92 461 OFFCURVE",
"102 461 CURVE SMOOTH"
);
}
);
width = 207;
}
);
leftKerningGroup = quotedblright;
note = quoteright;
rightKerningGroup = quotedblright;
unicode = 2019;
},
{
glyphname = quotedblbase;
layers = (
{
hints = (
{
horizontal = 1;
place = "{-98, 245}";
type = Stem;
},
{
place = "{15, 304}";
type = Stem;
}
);
layerId = "95F3C079-8CB7-481A-B676-05495FEB06E6";
paths = (
{
closed = 1;
nodes = (
"83 147 LINE",
"82 146 OFFCURVE",
"82 145 OFFCURVE",
"82 145 CURVE",
"49 54 OFFCURVE",
"47 23 OFFCURVE",
"15 -98 CURVE",
"15 -99 LINE",
"37 -100 OFFCURVE",
"88 -98 OFFCURVE",
"97 -98 CURVE",
"102 -80 OFFCURVE",
"151 104 OFFCURVE",
"161 148 CURVE",
"147 155 OFFCURVE",
"93 147 OFFCURVE",
"84 147 CURVE SMOOTH"
);
},
{
closed = 1;
nodes = (
"241 147 LINE",
"240 146 OFFCURVE",
"240 145 OFFCURVE",
"240 145 CURVE",
"207 54 OFFCURVE",
"205 23 OFFCURVE",
"173 -98 CURVE",
"173 -99 LINE",
"195 -100 OFFCURVE",
"246 -98 OFFCURVE",
"255 -98 CURVE",
"260 -80 OFFCURVE",
"309 104 OFFCURVE",
"319 148 CURVE",
"299 155 OFFCURVE",
"254 147 OFFCURVE",
"242 147 CURVE SMOOTH"
);
}
);
width = 353;
}
);
leftKerningGroup = period;
note = quotedblbase;
rightKerningGroup = period;
unicode = 201E;
},
{
glyphname = questiondown;
layers = (
{
hints = (
{
horizontal = 1;
place = "{-91, 101}";
type = Stem;
},
{
horizontal = 1;
place = "{616, -20}";
target = down;
type = TopGhost;
},
{
horizontal = 1;
place = "{-91, 209}";
type = Stem;
}
);
layerId = "95F3C079-8CB7-481A-B676-05495FEB06E6";
paths = (
{
closed = 1;
nodes = (
"262 616 LINE",
"190 616 LINE",
"188 616 LINE",
"188 609 LINE SMOOTH",
"188 584 OFFCURVE",
"182 500 OFFCURVE",
"182 497 CURVE",
"201 492 OFFCURVE",
"243 492 OFFCURVE",
"266 500 CURVE",
"266 519 OFFCURVE",
"270 586 OFFCURVE",
"265 616 CURVE"
);
},
{
closed = 1;
nodes = (
"257 361 OFFCURVE",
"261 379 OFFCURVE",
"264 401 CURVE",
"265 414 LINE",
"265 422 OFFCURVE",
"266 432 OFFCURVE",
"263 439 CURVE",
"262 439 LINE",
"234 437 OFFCURVE",
"206 440 OFFCURVE",
"179 437 CURVE",
"179 436 LINE",
"181 428 OFFCURVE",
"179 415 OFFCURVE",
"176 398 CURVE SMOOTH",
"169 351 OFFCURVE",
"154 318 OFFCURVE",
"126 280 CURVE SMOOTH",
"89 230 OFFCURVE",
"29 189 OFFCURVE",
"19 105 CURVE SMOOTH",
"6 -13 OFFCURVE",
"113 -103 OFFCURVE",
"236 -91 CURVE",
"350 -86 OFFCURVE",
"428 16 OFFCURVE",
"433 117 CURVE",
"433 118 LINE",
"403 119 OFFCURVE",
"374 122 OFFCURVE",
"347 120 CURVE",
"330 89 OFFCURVE",
"317 6 OFFCURVE",
"239 10 CURVE",
"158 3 OFFCURVE",
"111 52 OFFCURVE",
"123 114 CURVE",
"135 163 OFFCURVE",
"170 205 OFFCURVE",
"202 249 CURVE SMOOTH",
"227 281 OFFCURVE",
"240 312 OFFCURVE",
"250 344 CURVE"
);
}
);
width = 450;
}
);
note = questiondown;
unicode = 00BF;
},
{
glyphname = bar;
layers = (
{
hints = (
{
horizontal = 1;
place = "{-28, 21}";
target = up;
type = BottomGhost;
},
{
horizontal = 1;
place = "{729, -20}";
target = down;
type = TopGhost;
}
);
layerId = "95F3C079-8CB7-481A-B676-05495FEB06E6";
paths = (
{
closed = 1;
nodes = (
"136 -28 LINE",
"145 -28 LINE",
"143 728 LINE",
"143 729 LINE",
"104 724 OFFCURVE",
"102 726 OFFCURVE",
"63 726 CURVE",
"63 -25 LINE"
);
}
);
width = 201;
}
);
note = bar;
unicode = 007C;
},
{
glyphname = backslash;
layers = (
{
hints = (
{
horizontal = 1;
place = "{-1, 21}";
target = up;
type = BottomGhost;
},
{
place = "{43, 331}";
type = Stem;
}
);
layerId = "95F3C079-8CB7-481A-B676-05495FEB06E6";
paths = (
{
closed = 1;
nodes = (
"241 123 OFFCURVE",
"264 65 OFFCURVE",
"285 7 CURVE SMOOTH",
"288 -2 OFFCURVE",
"299 1 OFFCURVE",
"374 -1 CURVE",
"377 3 OFFCURVE",
"355 60 OFFCURVE",
"348 80 CURVE SMOOTH",
"321 154 OFFCURVE",
"317 167 OFFCURVE",
"295 229 CURVE SMOOTH",
"276 280 OFFCURVE",
"241 363 OFFCURVE",
"192 517 CURVE SMOOTH",
"162 606 OFFCURVE",
"149 646 OFFCURVE",
"132 709 CURVE",
"102 704 OFFCURVE",
"63 711 OFFCURVE",
"43 701 CURVE",
"45 696 OFFCURVE",
"54 662 OFFCURVE",
"128 441 CURVE SMOOTH",
"159 355 OFFCURVE",
"185 267 OFFCURVE",
"219 181 CURVE SMOOTH"
);
}
);
width = 412;
}
);
leftKerningGroup = backslash;
note = backslash;
rightKerningGroup = backslash;
unicode = 005C;
},
{
glyphname = percent;
layers = (
{
hints = (
{
horizontal = 1;
place = "{21, 44}";
type = Stem;
},
{
horizontal = 1;
place = "{341, 42}";
type = Stem;
},
{
place = "{201, 40}";
type = Stem;
},
{
place = "{545, 38}";
type = Stem;
},
{
place = "{25, 216}";
type = Stem;
}
);
layerId = "95F3C079-8CB7-481A-B676-05495FEB06E6";
paths = (
{
closed = 1;
nodes = (
"273 151 LINE SMOOTH",
"345 330 OFFCURVE",
"445 651 OFFCURVE",
"453 683 CURVE",
"456 691 OFFCURVE",
"456 694 OFFCURVE",
"459 701 CURVE",
"439 711 OFFCURVE",
"401 704 OFFCURVE",
"371 709 CURVE",
"355 648 OFFCURVE",
"341 607 OFFCURVE",
"321 550 CURVE SMOOTH",
"261 363 OFFCURVE",
"228 286 OFFCURVE",
"205 222 CURVE SMOOTH",
"187 173 OFFCURVE",
"179 147 OFFCURVE",
"154 80 CURVE SMOOTH",
"146 59 OFFCURVE",
"125 4 OFFCURVE",
"128 -1 CURVE",
"200 1 OFFCURVE",
"214 -3 OFFCURVE",
"217 7 CURVE"
);
},
{
closed = 1;
nodes = (
"24 520 OFFCURVE",
"24 504 OFFCURVE",
"25 486 CURVE",
"25 485 LINE",
"34 416 OFFCURVE",
"37 345 OFFCURVE",
"127 341 CURVE",
"224 341 OFFCURVE",
"235 452 OFFCURVE",
"239 488 CURVE SMOOTH",
"240 499 OFFCURVE",
"241 509 OFFCURVE",
"241 522 CURVE SMOOTH",
"242 570 OFFCURVE",
"230 683 OFFCURVE",
"131 687 CURVE",
"63 687 OFFCURVE",
"37 633 OFFCURVE",
"32 593 CURVE",
"27 573 OFFCURVE",
"25 558 OFFCURVE",
"24 536 CURVE"
);
},
{
closed = 1;
nodes = (
"58 514 OFFCURVE",
"58 545 OFFCURVE",
"61 573 CURVE",
"68 612 OFFCURVE",
"85 639 OFFCURVE",
"121 643 CURVE",
"188 657 OFFCURVE",
"201 558 OFFCURVE",
"201 521 CURVE SMOOTH",
"202 467 OFFCURVE",
"188 385 OFFCURVE",
"129 383 CURVE SMOOTH",
"61 380 OFFCURVE",
"62 441 OFFCURVE",
"61 486 CURVE"
);
},
{
closed = 1;
nodes = (
"366 199 OFFCURVE",
"366 183 OFFCURVE",
"367 165 CURVE",
"376 95 OFFCURVE",
"379 24 OFFCURVE",
"469 21 CURVE SMOOTH",
"566 21 OFFCURVE",
"578 130 OFFCURVE",
"581 168 CURVE SMOOTH",
"582 179 OFFCURVE",
"583 190 OFFCURVE",
"583 201 CURVE SMOOTH",
"584 250 OFFCURVE",
"572 361 OFFCURVE",
"473 366 CURVE",
"368 366 OFFCURVE",
"370 259 OFFCURVE",
"366 216 CURVE"
);
},
{
closed = 1;
nodes = (
"402 196 OFFCURVE",
"402 228 OFFCURVE",
"405 255 CURVE",
"412 294 OFFCURVE",
"429 322 OFFCURVE",
"465 326 CURVE",
"532 340 OFFCURVE",
"545 240 OFFCURVE",
"545 204 CURVE",
"547 147 OFFCURVE",
"531 67 OFFCURVE",
"473 65 CURVE SMOOTH",
"405 63 OFFCURVE",
"406 124 OFFCURVE",
"405 169 CURVE"
);
}
);
width = 604;
}
);
note = percent;
unicode = 0025;
},
{
glyphname = less;
layers = (
{
hints = (
{
horizontal = 1;
place = "{19, 21}";
target = up;
type = BottomGhost;
},
{
horizontal = 1;
place = "{528, -20}";
target = down;
type = TopGhost;
}
);
layerId = "95F3C079-8CB7-481A-B676-05495FEB06E6";
paths = (
{
closed = 1;
nodes = (
"306 57 LINE SMOOTH",
"311 62 OFFCURVE",
"315 68 OFFCURVE",
"320 73 CURVE",
"257 124 OFFCURVE",
"179 204 OFFCURVE",
"117 267 CURVE",
"157 320 OFFCURVE",
"282 440 OFFCURVE",
"311 478 CURVE",
"297 490 OFFCURVE",
"275 518 OFFCURVE",
"258 528 CURVE",
"189 459 OFFCURVE",
"79 353 OFFCURVE",
"13 270 CURVE",
"91 168 OFFCURVE",
"183 102 OFFCURVE",
"264 20 CURVE SMOOTH",
"265 19 LINE",
"287 38 OFFCURVE",
"292 44 OFFCURVE",
"298 49 CURVE"
);
}
);
width = 363;
}
);
note = less;
unicode = 003C;
},
{
glyphname = greater;
layers = (
{
hints = (
{
horizontal = 1;
place = "{19, 21}";
target = up;
type = BottomGhost;
},
{
horizontal = 1;
place = "{528, -20}";
target = down;
type = TopGhost;
}
);
layerId = "95F3C079-8CB7-481A-B676-05495FEB06E6";
paths = (
{
closed = 1;
nodes = (
"47 68 OFFCURVE",
"51 62 OFFCURVE",
"56 57 CURVE SMOOTH",
"64 49 LINE",
"69 45 OFFCURVE",
"75 38 OFFCURVE",
"97 19 CURVE",
"98 20 LINE SMOOTH",
"179 102 OFFCURVE",
"270 169 OFFCURVE",
"349 270 CURVE",
"283 353 OFFCURVE",
"173 459 OFFCURVE",
"104 528 CURVE",
"86 518 OFFCURVE",
"65 490 OFFCURVE",
"51 478 CURVE",
"82 440 OFFCURVE",
"203 318 OFFCURVE",
"245 267 CURVE",
"182 204 OFFCURVE",
"105 124 OFFCURVE",
"42 73 CURVE"
);
}
);
width = 363;
}
);
note = greater;
unicode = 003E;
},
{
glyphname = endash;
layers = (
{
hints = (
{
horizontal = 1;
place = "{189, 21}";
target = up;
type = BottomGhost;
},
{
horizontal = 1;
place = "{317, -20}";
target = down;
type = TopGhost;
}
);
layerId = "95F3C079-8CB7-481A-B676-05495FEB06E6";
paths = (
{
closed = 1;
nodes = (
"52 196 OFFCURVE",
"387 189 OFFCURVE",
"413 189 CURVE SMOOTH",
"416 189 LINE",
"414 258 OFFCURVE",
"414 280 OFFCURVE",
"413 317 CURVE",
"39 317 LINE",
"39 304 OFFCURVE",
"36 220 OFFCURVE",
"36 196 CURVE"
);
}
);
width = 455;
}
);
leftKerningGroup = hyphen;
note = endash;
rightKerningGroup = hyphen;
unicode = 2013;
},
{
glyphname = at;
layers = (
{
hints = (
{
horizontal = 1;
place = "{-23, 68}";
type = Stem;
},
{
horizontal = 1;
place = "{410, 69}";
type = Stem;
},
{
horizontal = 1;
place = "{599, 60}";
type = Stem;
},
{
place = "{33, 68}";
type = Stem;
},
{
place = "{164, 65}";
type = Stem;
},
{
place = "{341, 64}";
type = Stem;
},
{
place = "{467, 66}";
type = Stem;
}
);
layerId = "95F3C079-8CB7-481A-B676-05495FEB06E6";
paths = (
{
closed = 1;
nodes = (
"381 475 OFFCURVE",
"352 479 OFFCURVE",
"333 479 CURVE SMOOTH",
"216 479 OFFCURVE",
"166 392 OFFCURVE",
"164 315 CURVE SMOOTH",
"162 244 OFFCURVE",
"182 160 OFFCURVE",
"278 160 CURVE SMOOTH",
"310 160 OFFCURVE",
"337 169 OFFCURVE",
"359 187 CURVE",
"378 162 OFFCURVE",
"394 154 OFFCURVE",
"418 154 CURVE SMOOTH",
"516 155 OFFCURVE",
"533 223 OFFCURVE",
"533 326 CURVE SMOOTH",
"533 380 LINE SMOOTH",
"533 453 OFFCURVE",
"530 546 OFFCURVE",
"470 602 CURVE SMOOTH",
"416 651 OFFCURVE",
"348 659 OFFCURVE",
"280 659 CURVE SMOOTH",
"210 659 OFFCURVE",
"128 648 OFFCURVE",
"83 590 CURVE SMOOTH",
"40 535 OFFCURVE",
"33 470 OFFCURVE",
"33 406 CURVE SMOOTH",
"33 376 LINE SMOOTH",
"33 312 OFFCURVE",
"36 263 OFFCURVE",
"40 195 CURVE SMOOTH",
"43 156 OFFCURVE",
"64 88 OFFCURVE",
"90 53 CURVE SMOOTH",
"137 -11 OFFCURVE",
"210 -23 OFFCURVE",
"293 -23 CURVE SMOOTH",
"375 -23 OFFCURVE",
"451 -9 OFFCURVE",
"531 42 CURVE",
"521 61 OFFCURVE",
"513 80 OFFCURVE",
"503 99 CURVE",
"455 75 OFFCURVE",
"379 48 OFFCURVE",
"331 45 CURVE",
"332 45 LINE",
"324 45 OFFCURVE",
"313 44 OFFCURVE",
"302 44 CURVE SMOOTH",
"292 44 LINE SMOOTH",
"260 44 OFFCURVE",
"219 46 OFFCURVE",
"182 68 CURVE SMOOTH",
"103 117 OFFCURVE",
"101 266 OFFCURVE",
"101 341 CURVE SMOOTH",
"101 522 OFFCURVE",
"139 596 OFFCURVE",
"260 599 CURVE SMOOTH",
"307 599 OFFCURVE",
"359 593 OFFCURVE",
"388 576 CURVE SMOOTH",
"453 535 OFFCURVE",
"464 455 OFFCURVE",
"467 404 CURVE",
"467 376 LINE",
"468 357 OFFCURVE",
"468 339 OFFCURVE",
"468 316 CURVE SMOOTH",
"468 237 OFFCURVE",
"421 219 OFFCURVE",
"414 224 CURVE",
"408 233 OFFCURVE",
"406 249 OFFCURVE",
"405 266 CURVE SMOOTH",
"404 279 OFFCURVE",
"405 292 OFFCURVE",
"404 304 CURVE SMOOTH",
"403 316 OFFCURVE",
"403 330 OFFCURVE",
"403 347 CURVE SMOOTH",
"403 374 OFFCURVE",
"404 398 OFFCURVE",
"404 413 CURVE",
"405 438 OFFCURVE",
"402 453 OFFCURVE",
"395 462 CURVE"
);
},
{
closed = 1;
nodes = (
"229 274 LINE SMOOTH",
"229 342 OFFCURVE",
"242 414 OFFCURVE",
"343 410 CURVE",
"342 410 OFFCURVE",
"341 393 OFFCURVE",
"341 358 CURVE SMOOTH",
"341 315 LINE SMOOTH",
"341 277 OFFCURVE",
"345 242 OFFCURVE",
"296 231 CURVE",
"261 220 OFFCURVE",
"234 236 OFFCURVE",
"229 271 CURVE"
);
}
);
width = 564;
}
);
note = at;
unicode = 0040;
},
{
glyphname = quotesingle;
layers = (
{
hints = (
{
place = "{52, 81}";
type = Stem;
}
);
layerId = "95F3C079-8CB7-481A-B676-05495FEB06E6";
paths = (
{
closed = 1;
nodes = (
"54 704 LINE",
"54 702 LINE",
"49 609 OFFCURVE",
"52 581 OFFCURVE",
"52 460 CURVE SMOOTH",
"52 459 LINE",
"73 458 OFFCURVE",
"130 459 OFFCURVE",
"135 460 CURVE",
"135 479 OFFCURVE",
"133 662 OFFCURVE",
"133 706 CURVE",
"130 711 OFFCURVE",
"109 711 OFFCURVE",
"93 709 CURVE SMOOTH",
"76 707 OFFCURVE",
"60 704 OFFCURVE",
"55 704 CURVE SMOOTH"
);
}
);
width = 185;
}
);
leftKerningGroup = quotesingle;
note = quotesingle;
rightKerningGroup = quotesingle;
unicode = 0027;
},
{
glyphname = quotedbl;
layers = (
{
hints = (
{
place = "{49, 82}";
type = Stem;
},
{
place = "{247, 81}";
type = Stem;
}
);
layerId = "95F3C079-8CB7-481A-B676-05495FEB06E6";
paths = (
{
closed = 1;
nodes = (
"51 704 LINE",
"51 702 LINE",
"46 609 OFFCURVE",
"49 581 OFFCURVE",
"49 460 CURVE SMOOTH",
"49 459 LINE",
"70 458 OFFCURVE",
"129 460 OFFCURVE",
"133 460 CURVE",
"133 479 OFFCURVE",
"131 662 OFFCURVE",
"131 706 CURVE",
"123 717 OFFCURVE",
"63 704 OFFCURVE",
"52 704 CURVE SMOOTH"
);
},
{
closed = 1;
nodes = (
"249 704 LINE",
"249 702 LINE",
"244 609 OFFCURVE",
"247 581 OFFCURVE",
"247 460 CURVE SMOOTH",
"247 459 LINE",
"269 458 OFFCURVE",
"326 459 OFFCURVE",
"330 460 CURVE",
"330 479 OFFCURVE",
"328 662 OFFCURVE",
"328 706 CURVE",
"325 711 OFFCURVE",
"305 711 OFFCURVE",
"288 709 CURVE SMOOTH",
"272 707 OFFCURVE",
"255 704 OFFCURVE",
"250 704 CURVE SMOOTH"
);
}
);
width = 378;
}
);
leftKerningGroup = quotesingle;
note = quotedbl;
rightKerningGroup = quotesingle;
unicode = 0022;
},
{
glyphname = emdash;
layers = (
{
hints = (
{
horizontal = 1;
place = "{189, 130}";
type = Stem;
}
);
layerId = "95F3C079-8CB7-481A-B676-05495FEB06E6";
paths = (
{
closed = 1;
nodes = (
"55 196 OFFCURVE",
"607 189 OFFCURVE",
"650 189 CURVE SMOOTH",
"655 189 LINE",
"650 226 OFFCURVE",
"652 282 OFFCURVE",
"651 319 CURVE",
"41 319 LINE",
"41 306 OFFCURVE",
"37 220 OFFCURVE",
"37 196 CURVE"
);
}
);
width = 692;
}
);
leftKerningGroup = hyphen;
note = emdash;
rightKerningGroup = hyphen;
unicode = 2014;
},
{
glyphname = underscore;
layers = (
{
hints = (
{
horizontal = 1;
place = "{-150, 87}";
type = Stem;
}
);
layerId = "95F3C079-8CB7-481A-B676-05495FEB06E6";
paths = (
{
closed = 1;
nodes = (
"41 -68 LINE",
"41 -93 OFFCURVE",
"43 -142 OFFCURVE",
"43 -148 CURVE",
"607 -150 LINE",
"607 -109 OFFCURVE",
"605 -103 OFFCURVE",
"611 -63 CURVE",
"610 -63 LINE"
);
}
);
width = 650;
}
);
note = underscore;
unicode = 005F;
},
{
glyphname = a;
layers = (
{
hints = (
{
horizontal = 1;
place = "{-1, 21}";
target = up;
type = BottomGhost;
},
{
horizontal = 1;
place = "{412, 86}";
type = Stem;
},
{
place = "{19, 84}";
type = Stem;
},
{
place = "{341, 98}";
type = Stem;
},
{
horizontal = 1;
place = "{502, -20}";
target = down;
type = TopGhost;
},
{
horizontal = 1;
place = "{-2, 90}";
type = Stem;
}
);
layerId = "95F3C079-8CB7-481A-B676-05495FEB06E6";
paths = (
{
closed = 1;
nodes = (
"396 501 OFFCURVE",
"383 503 OFFCURVE",
"354 502 CURVE SMOOTH",
"347 502 OFFCURVE",
"341 501 OFFCURVE",
"341 500 CURVE SMOOTH",
"341 484 OFFCURVE",
"338 468 OFFCURVE",
"337 449 CURVE",
"313 497 OFFCURVE",
"254 500 OFFCURVE",
"187 497 CURVE SMOOTH",
"93 494 OFFCURVE",
"19 399 OFFCURVE",
"19 266 CURVE SMOOTH",
"19 159 OFFCURVE",
"63 -2 OFFCURVE",
"166 -2 CURVE SMOOTH",
"210 -2 OFFCURVE",
"307 5 OFFCURVE",
"344 55 CURVE",
"344 44 OFFCURVE",
"341 33 OFFCURVE",
"342 20 CURVE",
"342 9 OFFCURVE",
"345 0 OFFCURVE",
"352 -2 CURVE",
"359 -2 OFFCURVE",
"367 0 OFFCURVE",
"377 0 CURVE SMOOTH",
"387 0 OFFCURVE",
"399 -1 OFFCURVE",
"409 -1 CURVE SMOOTH",
"426 -1 LINE",
"442 2 OFFCURVE",
"439 23 OFFCURVE",
"439 40 CURVE",
"448 183 OFFCURVE",
"437 320 OFFCURVE",
"441 464 CURVE SMOOTH",
"441 474 LINE SMOOTH",
"441 482 OFFCURVE",
"440 490 OFFCURVE",
"439 498 CURVE"
);
},
{
closed = 1;
nodes = (
"121 366 OFFCURVE",
"168 414 OFFCURVE",
"242 412 CURVE",
"332 406 OFFCURVE",
"341 391 OFFCURVE",
"341 256 CURVE SMOOTH",
"341 145 OFFCURVE",
"338 87 OFFCURVE",
"233 88 CURVE",
"140 83 OFFCURVE",
"106 148 OFFCURVE",
"103 242 CURVE",
"103 267 OFFCURVE",
"104 295 OFFCURVE",
"111 320 CURVE"
);
}
);
width = 476;
}
);
leftKerningGroup = agrave;
note = a;
rightKerningGroup = q;
unicode = 0061;
},
{
glyphname = Ccedilla;
layers = (
{
hints = (
{
horizontal = 1;
place = "{-10, 97}";
type = Stem;
},
{
horizontal = 1;
place = "{610, 98}";
type = Stem;
},
{
place = "{34, 92}";
type = Stem;
},
{
place = "{126, 242}";
type = Stem;
}
);
layerId = "95F3C079-8CB7-481A-B676-05495FEB06E6";
paths = (
{
closed = 1;
nodes = (
"38 553 OFFCURVE",
"36 537 OFFCURVE",
"34 514 CURVE",
"31 388 OFFCURVE",
"31 288 OFFCURVE",
"34 203 CURVE",
"34 198 LINE SMOOTH",
"38 78 OFFCURVE",
"62 -12 OFFCURVE",
"190 -8 CURVE",
"190 -9 LINE",
"186 -36 OFFCURVE",
"171 -87 OFFCURVE",
"166 -111 CURVE",
"166 -112 OFFCURVE",
"166 -113 OFFCURVE",
"167 -113 CURVE",
"187 -116 OFFCURVE",
"213 -111 OFFCURVE",
"236 -113 CURVE",
"236 -112 LINE",
"242 -92 OFFCURVE",
"255 -44 OFFCURVE",
"262 -9 CURVE",
"262 -10 LINE",
"415 -10 OFFCURVE",
"487 140 OFFCURVE",
"455 278 CURVE",
"430 283 OFFCURVE",
"392 279 OFFCURVE",
"368 278 CURVE",
"371 221 OFFCURVE",
"368 173 OFFCURVE",
"345 139 CURVE SMOOTH",
"323 105 OFFCURVE",
"289 88 OFFCURVE",
"252 87 CURVE",
"143 89 OFFCURVE",
"123 170 OFFCURVE",
"126 354 CURVE",
"122 497 OFFCURVE",
"136 614 OFFCURVE",
"229 610 CURVE SMOOTH",
"329 607 OFFCURVE",
"353 546 OFFCURVE",
"358 511 CURVE",
"363 486 OFFCURVE",
"363 412 OFFCURVE",
"373 412 CURVE",
"396 409 OFFCURVE",
"416 406 OFFCURVE",
"439 411 CURVE",
"443 411 OFFCURVE",
"450 412 OFFCURVE",
"459 414 CURVE",
"475 501 OFFCURVE",
"456 590 OFFCURVE",
"393 649 CURVE SMOOTH",
"337 701 OFFCURVE",
"269 714 OFFCURVE",
"193 708 CURVE SMOOTH",
"182 707 OFFCURVE",
"169 706 OFFCURVE",
"157 703 CURVE",
"85 694 OFFCURVE",
"50 630 OFFCURVE",
"41 564 CURVE"
);
}
);
width = 476;
}
);
leftKerningGroup = C;
note = Ccedilla;
rightKerningGroup = C;
unicode = 00C7;
},
